SplineFontDB: 3.0
FontName: Exo-Thin
FullName: Exo Thin
FamilyName: Exo
Weight: Thin
Copyright: Copyright (c) 2011 Natanael Gama (exo@ndiscovered.com), with Reserved Font Name "Exo"
UComments: "2010-2-8: Created." 
Version: 1.00
ItalicAngle: 0
UnderlinePosition: -100
UnderlineWidth: 50
Ascent: 800
Descent: 200
sfntRevision: 0x00010000
LayerCount: 2
Layer: 0 0 "Back"  1
Layer: 1 0 "Fore"  0
XUID: [1021 348 1054973004 1200425]
FSType: 8
OS2Version: 0
OS2_WeightWidthSlopeOnly: 0
OS2_UseTypoMetrics: 1
CreationTime: 1265665101
ModificationTime: 1325018817
PfmFamily: 33
TTFWeight: 100
TTFWidth: 5
LineGap: 90
VLineGap: 0
OS2TypoAscent: 0
OS2TypoAOffset: 1
OS2TypoDescent: 0
OS2TypoDOffset: 1
OS2TypoLinegap: 90
OS2WinAscent: 0
OS2WinAOffset: 1
OS2WinDescent: 0
OS2WinDOffset: 1
HheadAscent: 0
HheadAOffset: 1
HheadDescent: 0
HheadDOffset: 1
OS2Vendor: 'PfEd'
Lookup: 4 0 0 "'ordn' Ordinals lookup 21"  {"'ordn' Ordinals lookup 21-1"  } ['ordn' ('DFLT' <'dflt' > 'grek' <'dflt' > 'latn' <'dflt' > ) ]
Lookup: 1 0 0 "'smcp' Lowercase to Small Capitals lookup 16"  {"'smcp' Lowercase to Small Capitals lookup 16-1" ("smcp" ) } ['smcp' ('DFLT' <'dflt' > 'grek' <'dflt' > 'latn' <'FRA ' 'dflt' > ) ]
Lookup: 1 0 0 "'c2sc' Capitals to Small Capitals in Latin lookup 17"  {"'c2sc' Capitals to Small Capitals in Latin lookup 17 subtable" ("smcp" ) } ['c2sc' ('latn' <'dflt' > ) ]
Lookup: 4 0 0 "'dlig' Discretionary Ligatures lookup 14"  {"'dlig' Discretionary Ligatures lookup 14-1"  } ['dlig' ('DFLT' <'dflt' > 'grek' <'dflt' > 'latn' <'dflt' > ) ]
Lookup: 4 0 1 "'liga' Standard Ligatures lookup 15"  {"'liga' Standard Ligatures lookup 15-1"  } ['liga' ('DFLT' <'dflt' > 'grek' <'dflt' > 'latn' <'FRA ' 'dflt' > ) ]
Lookup: 1 0 0 "'frac' Diagonal Fractions lookup 13"  {"'frac' Diagonal Fractions lookup 13-1"  } ['frac' ('DFLT' <'dflt' > 'grek' <'dflt' > 'latn' <'FRA ' 'dflt' > ) ]

StartChar: a
Encoding: 97 97 0
Width: 520
VWidth: 0
Flags: W
HStem: -6 24<135.453 265.875> 296 24<131.625 356.4> 519 22<169.375 358.704>
VStem: 54 24<75.768 243.178> 429 24<14.2222 64 73.9396 306 319.713 450.055> 438 15<0 49.7778>
LayerCount: 2
Back
SplineSet
124 131 m 6xf8
 124 83 149 68 183 68 c 4
 263 68 405 119 405 119 c 13
 405 268 l 21
 183 252 l 5
 140 248 124 219 124 187 c 6
 124 131 l 6xf8
50 126 m 14
 50 187 l 6
 50 267 100 320 183 320 c 6
 183 320 405 319 405 320 c 4
 405 320 406 386 405 387 c 6
 405 448 373 469 323 469 c 4
 251 469 164 462 67 457 c 13
 67 511 l 21
 141 522 227 540 326 541 c 4
 409 542 479 497 479 387 c 6xf8
 479 0 l 13
 424 0 l 29xf4
 405 64 l 21
 403 64 274 -6 183 -6 c 31
 110 -6 50 41 50 126 c 14
EndSplineSet
Fore
SplineSet
54 126 m 10xf8
 54 187 l 2
 54 272 105 320 187 320 c 2
 187 320 429 319 429 320 c 0
 429 320 430 386 429 387 c 2
 429 456 400 518 299 519 c 0
 227 520 162 510 71 496 c 9
 71 510 l 17
 128 524 200 540 300 541 c 1
 383 542 453 497 453 387 c 2xf8
 453 0 l 9
 438 0 l 25xf4
 429 64 l 17
 427 64 285 -6 187 -6 c 27
 114 -6 54 41 54 126 c 10xf8
78 131 m 2
 78 46 138 19 187 18 c 0
 267 16 429 78 429 78 c 9
 429 306 l 17
 187 296 l 2
 106 293 78 248 78 187 c 2
 78 131 l 2
EndSplineSet
Validated: 33
AlternateSubs2: "'salt' Access All Alternates in Latin lookup 4-1" a.salt
Substitution2: "'smcp' Lowercase to Small Capitals lookup 16-1" a.smcp
EndChar

StartChar: z
Encoding: 122 122 1
Width: 475
VWidth: 0
Flags: W
HStem: 1 24<86 436> 507 24<40 404>
DStem2: 56 25 86 25 0.587573 0.809171<17.6272 594.496>
LayerCount: 2
Back
SplineSet
50 457 m 17
 50 531 l 25
 446 531 l 25
 446 457 l 25
 162 75 l 17
 446 75 l 17
 447 74 446 1 446 1 c 25
 65 1 l 25
 65 75 l 25
 354 457 l 17
 50 457 l 17
EndSplineSet
Fore
SplineSet
40 507 m 17
 40 531 l 25
 436 531 l 25
 436 507 l 25
 86 25 l 21
 436 25 l 17
 437 24 436 1 436 1 c 25
 56 1 l 25
 56 25 l 25
 404 507 l 17
 40 507 l 17
EndSplineSet
Validated: 1
Substitution2: "'smcp' Lowercase to Small Capitals lookup 16-1" z.smcp
EndChar

StartChar: e
Encoding: 101 101 2
Width: 526
VWidth: 0
Flags: W
HStem: -5 24<171.882 395.109> 250 23<92 413> 511 24<171.129 374.697>
VStem: 68 24<130.271 250 273 408.438> 448 24<303.745 435.565>
LayerCount: 2
Back
SplineSet
60 268 m 4
 60 505 128 535 292 535 c 7
 417 535 495 523.142 495 347 c 4
 495 270 454 225 358 225 c 6
 134 225 l 5
 134 100 157 69 235 69 c 7
 327 69 410 68 485 79 c 5
 485 23 l 21
 404 0 318 -5 235 -5 c 4
 100 -5 60 60 60 268 c 4
134 298 m 5
 358 298 l 6
 402 298 421 314 421 347 c 4
 421 452 400.82 461 293 461 c 7
 180 461 134 460 134 298 c 5
EndSplineSet
Fore
SplineSet
68 268 m 0
 68 502 122 535 270 535 c 3
 391 535 472 523 472 347 c 0
 472 268 422 250 336 250 c 2
 92 250 l 1
 92 48 155 19 242 19 c 3
 334 19 387 28 462 39 c 1
 462 23 l 17
 381 0 325 -6 242 -5 c 0
 106 -3 68 72 68 268 c 0
92 273 m 1
 336 273 l 2
 392 273 448 277 448 347 c 0
 448 497 388 511 270 511 c 3
 131 511 92 481 92 273 c 1
EndSplineSet
Validated: 33
Substitution2: "'smcp' Lowercase to Small Capitals lookup 16-1" e.smcp
EndChar

StartChar: o
Encoding: 111 111 3
Width: 573
VWidth: 0
Flags: W
HStem: -5 24<188.856 379.926> 512 24<191.087 376.51>
VStem: 68 24<137.276 387.516> 482 24<141.492 381.542>
LayerCount: 2
Back
SplineSet
134 258 m 7
 134 81 191 69 294 69 c 7
 401.979 69 454 83 454 258 c 7
 454 448 411.145 462 294 462 c 7
 182 462 134 449 134 258 c 7
60 258 m 7
 60 475.146 120 536 294 536 c 7
 473.419 536 528 469 528 258 c 7
 528 61.0498 473.437 -5 294 -5 c 7
 114.706 -5 60 68 60 258 c 7
EndSplineSet
Fore
SplineSet
68 258 m 3
 68 475 127 536 286 536 c 3
 459 536 506 445 506 258 c 3
 506 64 454 -5 286 -5 c 3
 110 -5 68 68 68 258 c 3
92 258 m 3
 92 47 159 19 286 19 c 3
 414 19 482 56 482 258 c 3
 482 475 407 512 286 512 c 3
 166 512 92 490 92 258 c 3
EndSplineSet
Validated: 1
Substitution2: "'smcp' Lowercase to Small Capitals lookup 16-1" o.smcp
EndChar

StartChar: c
Encoding: 99 99 5
Width: 501
VWidth: 0
Flags: W
HStem: -5 24<176.297 378.768> 512 24<174.59 363.559>
VStem: 68 24<138.284 395.204>
LayerCount: 2
Back
SplineSet
60 266 m 0
 60 498 133 536 235 536 c 7
 287 536 393 523 463 510 c 5
 463 456 l 5
 463 456 324 462 235 462 c 7
 175 462 134 451 134 262 c 3
 134 109 163 69 235 69 c 3
 327 69 470 80 470 80 c 1
 470 24 l 17
 389 1 318 -4 235 -5 c 0
 136 -5 60 33 60 266 c 0
EndSplineSet
Fore
SplineSet
68 266 m 4
 68 498 140 536 242 536 c 7
 294 536 378 524 440 510 c 5
 440 496 l 5
 440 496 331 512 242 512 c 7
 151 512 92 478 92 262 c 7
 92 56 156 19 242 19 c 7
 334 19 448 40 448 40 c 1
 448 24 l 17
 367 1 325 -4 242 -5 c 4
 143 -5 68 33 68 266 c 4
EndSplineSet
Validated: 1
Substitution2: "'smcp' Lowercase to Small Capitals lookup 16-1" c.smcp
EndChar

StartChar: d
Encoding: 100 100 6
Width: 552
VWidth: 0
Flags: W
HStem: -6 24<195.825 327.174> 515 24<188.784 350.371> 765 20G<450 471>
VStem: 68 24<156.145 382.798> 448 23<67.9329 487.491 499 785> 458 13<0 41.3>
LayerCount: 2
Back
SplineSet
135 263 m 0
 135 133 171 68 236 68 c 3
 315 68 378 92 432 114 c 1
 432 439 l 1
 363 457 313 465 236 465 c 3
 172 465 135 426 135 263 c 0
61 263 m 0
 61 399 85 539 236 539 c 3
 281 539 368 525 432 499 c 1
 432 785 l 1
 505 785 l 1
 505 0 l 1
 452 0 l 1
 432 59 l 17
 406 40 304 -6 236 -6 c 3
 91 -6 61 141 61 263 c 0
EndSplineSet
Fore
SplineSet
68 263 m 4xf8
 68 399 101 539 252 539 c 7
 297 539 386 525 450 499 c 5
 450 785 l 5
 471 785 l 5xf8
 471 0 l 5
 458 0 l 5xf4
 448 59 l 21
 422 35 320 -6 252 -6 c 7
 107 -6 68 141 68 263 c 4xf8
92 263 m 4
 92 82 167 18 252 18 c 7
 331 18 395 46 448 73 c 5
 448 485 l 5
 379 503 329 515 252 515 c 7
 168 515 92 472 92 263 c 4
EndSplineSet
Validated: 1
AlternateSubs2: "'salt' Access All Alternates in Latin lookup 4-1" d.salt
Substitution2: "'smcp' Lowercase to Small Capitals lookup 16-1" d.smcp
EndChar

StartChar: A
Encoding: 65 65 7
Width: 659
VWidth: 0
Flags: W
HStem: 0 21G<61 94.4308 597.806 631> 253 24<190 505> 712 20G<327.514 376.158>
DStem2: 61 0 87 0 0.350563 0.936539<9.11463 279.012 304.644 765.084> 369 732 352 708 0.336988 -0.941509<16.8674 474.217 499.846 768.714>
LayerCount: 2
Back
SplineSet
20 0 m 1
 289 732 l 1
 363 732 l 1
 620 0 l 1
 542 0 l 1
 469 204 l 1
 177 204 l 1
 101 0 l 1
 20 0 l 1
204 278 m 1
 443 278 l 1
 325 619 l 1
 204 278 l 1
EndSplineSet
Fore
SplineSet
61 0 m 1
 335 732 l 1
 369 732 l 1
 631 0 l 1
 605 0 l 1
 514 253 l 1
 181 253 l 1
 87 0 l 1
 61 0 l 1
190 277 m 1
 505 277 l 1
 352 708 l 1
 190 277 l 1
EndSplineSet
Validated: 1
Substitution2: "'c2sc' Capitals to Small Capitals in Latin lookup 17 subtable" a.smcp
EndChar

StartChar: p
Encoding: 112 112 8
Width: 552
VWidth: 0
Flags: W
HStem: -8 24<202.414 361.561> 513 24<225.089 354.456>
VStem: 81 24<-268 32 43.5089 463.067> 81 13<493.455 531> 461 24<149.027 373.413>
LayerCount: 2
Back
SplineSet
90 -270 m 1xe8
 90 531 l 1
 143 531 l 1xd8
 162 472 l 17
 188 491 291 537 359 537 c 3
 504 537 534 390 534 268 c 0
 534 132 510 -8 359 -8 c 3
 314 -8 226 6 162 32 c 1
 162 -270 l 1
 90 -270 l 1xe8
162 92 m 1xe8
 231 74 282 66 359 66 c 3
 423 66 460 105 460 268 c 0
 460 398 424 463 359 463 c 3
 280 463 216 439 162 417 c 1
 162 92 l 1xe8
EndSplineSet
Fore
SplineSet
81 -268 m 1xe8
 81 531 l 1
 94 531 l 1xd8
 105 472 l 17
 131 496 232 537 300 537 c 3
 445 537 485 390 485 268 c 0
 485 132 451 -8 300 -8 c 3
 255 -8 168 6 104 32 c 1
 104 -268 l 1
 81 -268 l 1xe8
105 46 m 1xe8
 174 28 223 16 300 16 c 3
 384 16 461 63 461 268 c 0
 461 442 385 513 300 513 c 3
 221 513 158 485 105 458 c 1
 105 46 l 1xe8
EndSplineSet
Validated: 1
AlternateSubs2: "'salt' Access All Alternates in Latin lookup 4-1" p.salt
Substitution2: "'smcp' Lowercase to Small Capitals lookup 16-1" p.smcp
EndChar

StartChar: b
Encoding: 98 98 9
Width: 552
VWidth: 0
Flags: W
HStem: -6 24<224.826 354.456> 515 24<201.903 361.561> 765 20G<81 103>
VStem: 81 23<67.9329 487.491 499 785> 81 13<0 41.3> 461 24<157.587 381.973>
LayerCount: 2
Back
SplineSet
153 114 m 1
 207 92 270 68 349 68 c 3
 414 68 450 133 450 263 c 0
 450 426 413 465 349 465 c 3
 272 465 222 457 153 439 c 1
 153 114 l 1
80 0 m 1
 80 785 l 1
 152 785 l 1
 152 499 l 1
 216 525 304 539 349 539 c 3
 500 539 524 399 524 263 c 0
 524 141 494 -6 349 -6 c 3
 281 -6 179 40 153 59 c 9
 133 0 l 1
 80 0 l 1
EndSplineSet
Fore
SplineSet
81 0 m 1xec
 81 785 l 1
 103 785 l 1
 103 499 l 1
 167 525 255 539 300 539 c 3
 451 539 485 399 485 263 c 0
 485 141 445 -6 300 -6 c 3
 232 -6 130 35 104 59 c 9xf4
 94 0 l 1
 81 0 l 1xec
104 73 m 1
 157 46 221 18 300 18 c 3
 385 18 461 89 461 263 c 0
 461 468 384 515 300 515 c 3
 223 515 173 503 104 485 c 1
 104 73 l 1
EndSplineSet
Validated: 1
AlternateSubs2: "'salt' Access All Alternates in Latin lookup 4-1" b.salt
Substitution2: "'smcp' Lowercase to Small Capitals lookup 16-1" b.smcp
EndChar

StartChar: q
Encoding: 113 113 10
Width: 558
VWidth: 0
Flags: W
HStem: -10 24<187.882 355.865> 513 24<193.36 442.549>
VStem: 68 24<141.359 380.594> 454 24<-270 29 42.1193 513>
LayerCount: 2
Back
SplineSet
144 268 m 7
 144 181 140 64 254 64 c 7
 328 64 358 68 441 89 c 5
 441 463 l 6
 254 463 l 6
 147 463 144 331 144 268 c 7
70 268 m 7
 70 436 129 537 254 537 c 7
 360 537 468 518 515 514 c 5
 515 -270 l 21
 441 -270 l 13
 441 29 l 5
 377 3 299 -10 254 -10 c 7
 101 -10 70 110 70 268 c 7
EndSplineSet
Fore
SplineSet
68 268 m 3
 68 436 127 537 252 537 c 1
 358 537 429 533 478 525 c 1
 478 -270 l 17
 454 -270 l 9
 454 29 l 1
 390 3 297 -10 252 -10 c 3
 99 -10 68 110 68 268 c 3
92 268 m 3
 92 107 128 14 252 14 c 3
 326 14 371 24 454 45 c 1
 454 513 l 2
 252 513 l 2
 132 513 92 405 92 268 c 3
EndSplineSet
Validated: 1
Substitution2: "'smcp' Lowercase to Small Capitals lookup 16-1" q.smcp
EndChar

StartChar: n
Encoding: 110 110 11
Width: 552
VWidth: 0
Flags: W
HStem: 0 21G<81 105 461 485> 511 20G<81 98.2258> 516 24<236.355 379.995>
VStem: 81 24<0 460.5> 81 14<487.6 531> 461 24<0 429.908>
LayerCount: 2
Back
SplineSet
80 0 m 5xd8
 80 531 l 5
 132 531 l 5xb8
 154 469 l 5
 215 504 269 540 350 540 c 7
 456 540 514 458 514 370 c 6
 514 0 l 13
 440 0 l 21
 440 370 l 6
 440 436 401 466 350 466 c 31
 270 466 231 446 154 409 c 5
 154 0 l 5
 80 0 l 5xd8
EndSplineSet
Fore
SplineSet
81 0 m 1xb4
 81 531 l 1
 95 531 l 1xcc
 105 469 l 1
 163 507 240 540 321 540 c 3
 427 540 485 458 485 370 c 2
 485 0 l 9
 461 0 l 17
 461 370 l 2
 461 449 410 516 321 516 c 3
 233 516 179 495 105 455 c 1
 105 0 l 1
 81 0 l 1xb4
EndSplineSet
Validated: 1
AlternateSubs2: "'salt' Access All Alternates in Latin lookup 4-1" n.salt
Substitution2: "'smcp' Lowercase to Small Capitals lookup 16-1" n.smcp
EndChar

StartChar: i
Encoding: 105 105 12
Width: 170
VWidth: 0
Flags: W
HStem: 0 21G<72 96> 511 20G<72 96> 610 86<68 102>
VStem: 72 24<0 531 611.373 695.051>
LayerCount: 2
Back
SplineSet
80 617 m 6xf0
 80 671 l 6
 80 686 88 696 104 696 c 6
 154 696 l 6
 169 696 177 685 177 671 c 6
 177 617 l 6
 177 602 168 594 154 594 c 6
 104 594 l 6
 90 594 80 603 80 617 c 6xf0
90 0 m 1xe8
 90 531 l 1
 164 531 l 1
 164 0 l 1
 90 0 l 1xe8
EndSplineSet
Fore
SplineSet
68 622 m 2
 68 684 l 2
 68 692 72 696 80 696 c 2
 91 696 l 2
 99 696 102 691 102 684 c 2
 102 622 l 2
 102 614 98 610 91 610 c 2
 80 610 l 2
 73 610 68 615 68 622 c 2
72 0 m 1
 72 531 l 1
 96 531 l 1
 96 0 l 1
 72 0 l 1
EndSplineSet
Validated: 1
Substitution2: "'smcp' Lowercase to Small Capitals lookup 16-1" i.smcp
EndChar

StartChar: h
Encoding: 104 104 13
Width: 552
VWidth: 0
Flags: W
HStem: 0 21G<81 105 461 485> 516 24<236.355 379.995> 764 20G<81 105>
VStem: 81 24<0 460.5 469 784> 461 24<0 433.688>
LayerCount: 2
Back
SplineSet
90 0 m 1
 90 784 l 1
 164 784 l 1
 164 469 l 1
 225 504 279 540 360 540 c 7
 466 540 524 458 524 370 c 6
 524 0 l 13
 450 0 l 21
 450 370 l 6
 450 436 412 466 360 466 c 31
 280 466 241 446 164 409 c 1
 164 0 l 1
 90 0 l 1
EndSplineSet
Fore
SplineSet
81 0 m 1
 81 784 l 1
 105 784 l 1
 105 469 l 5
 163 507 240 540 321 540 c 7
 427 540 485 458 485 370 c 6
 485 0 l 13
 461 0 l 21
 461 370 l 6
 461 454 410 516 321 516 c 7
 233 516 179 495 105 455 c 5
 105 0 l 1
 81 0 l 1
EndSplineSet
Validated: 1
Substitution2: "'smcp' Lowercase to Small Capitals lookup 16-1" h.smcp
EndChar

StartChar: u
Encoding: 117 117 14
Width: 552
VWidth: 0
Flags: W
HStem: -8 24<173.005 316.645> 1 21G<454.774 472> 512 20G<68 92 448 472>
VStem: 68 24<102.092 532> 448 24<71.5005 532> 458 14<1 44.4>
LayerCount: 2
Back
SplineSet
70 161 m 6xb8
 70 531 l 13
 144 531 l 21
 144 161 l 6
 144 95 183 65 234 65 c 31xb8
 314 65 353 85 430 122 c 5
 430 531 l 5
 504 531 l 5
 504 0 l 5
 452 0 l 5x78
 430 62 l 5
 369 27 315 -9 234 -9 c 7
 128 -9 70 73 70 161 c 6xb8
EndSplineSet
Fore
SplineSet
68 162 m 6xb8
 68 532 l 13
 92 532 l 21
 92 162 l 6
 92 83 143 16 232 16 c 7
 320 16 374 37 448 77 c 5
 448 532 l 5
 472 532 l 5xb8
 472 1 l 5
 458 1 l 5x74
 448 63 l 5
 390 25 313 -8 232 -8 c 7
 126 -8 68 74 68 162 c 6xb8
EndSplineSet
Validated: 1
AlternateSubs2: "'salt' Access All Alternates in Latin lookup 4-1" u.salt
Substitution2: "'smcp' Lowercase to Small Capitals lookup 16-1" u.smcp
EndChar

StartChar: r
Encoding: 114 114 15
Width: 424
VWidth: 0
Flags: W
HStem: 0 21G<81 105> 513 24<238.078 395.968>
VStem: 81 24<0 449.167> 81 12<491.917 531>
LayerCount: 2
Back
SplineSet
80 0 m 5xe0
 80 531 l 5
 132 531 l 5xd0
 154 464 l 5
 215 499 270 537 352 537 c 31
 381 537 414 535 426 529 c 5
 426 456 l 5
 414 459 381 462 352 462 c 31
 272 462 231 441 154 404 c 5
 154 0 l 5
 80 0 l 5xe0
EndSplineSet
Fore
SplineSet
81 0 m 1xe0
 81 531 l 1
 93 531 l 1xd0
 105 464 l 1
 166 499 233 537 323 537 c 27
 352 537 377 536 397 529 c 5
 397 506 l 5
 373 511 352 513 323 513 c 27
 234 513 182 481 105 444 c 1
 105 0 l 1
 81 0 l 1xe0
EndSplineSet
Validated: 1
AlternateSubs2: "'salt' Access All Alternates in Latin lookup 4-1" r.salt
Substitution2: "'smcp' Lowercase to Small Capitals lookup 16-1" r.smcp
EndChar

StartChar: m
Encoding: 109 109 16
Width: 931
VWidth: 0
Flags: W
HStem: 0 21G<81 105 461 485 840 864> 511 20G<81 98.2258> 516 24<236.355 379.742 620.039 758.995>
VStem: 81 24<0 460.5> 81 14<487.6 531> 461 24<0 432.388> 840 24<0 429.908>
LayerCount: 2
Back
SplineSet
80 0 m 1
 80 531 l 1
 132 531 l 1
 154 467 l 1
 215 502 264 537 343 537 c 27
 408 537 467 508 490 459 c 1
 542 502 615 537 704 537 c 27
 796 537 868 468 868 366 c 2
 868 0 l 1
 794 0 l 1
 794 366 l 2
 794 425 756 463 704 463 c 27
 625 463 574 450 508 407 c 1
 508 368.3 l 26
 508 0 l 1
 434 0 l 1
 434 366 l 2
 434 425 395 463 343 463 c 27
 266 463 231 444 154 407 c 1
 154 0 l 1
 80 0 l 1
EndSplineSet
Fore
SplineSet
81 0 m 1xb6
 81 531 l 1
 95 531 l 1xce
 105 469 l 1
 163 507 240 540 321 540 c 0
 389 540 438 506 464 458 c 1
 516 497 620 540 700 540 c 0
 806 540 864 458 864 370 c 2
 864 0 l 1
 840 0 l 1
 840 370 l 2
 840 449 789 516 700 516 c 0
 616 516 540 484 469 446 c 1
 479 422 485 397 485 370 c 2
 485 0 l 1
 461 0 l 1
 461 370 l 2
 461 449 410 516 321 516 c 0
 233 516 179 495 105 455 c 1
 105 0 l 1
 81 0 l 1xb6
EndSplineSet
Validated: 1
AlternateSubs2: "'salt' Access All Alternates in Latin lookup 4-1" m.salt
Substitution2: "'smcp' Lowercase to Small Capitals lookup 16-1" m.smcp
EndChar

StartChar: f
Encoding: 102 102 17
Width: 384
VWidth: 0
Flags: W
HStem: 0 21G<114 138> 507 24<138 316> 507 14<27 87.9> 762 24<172.364 355.278> 762 13<317.504 357>
VStem: 114 24<0 507 531 720.777>
LayerCount: 2
Back
SplineSet
20 457 m 1xb8
 20 514 l 1xb8
 117 531 l 1
 117 630 l 2
 117 684 120 786 240 786 c 0
 289 786 331 777 380 762 c 1
 380 713 l 1
 379 713 257 714 257 714 c 2
 192.722 714.522 191 678 191 630 c 2
 191 531 l 1
 339 531 l 1
 339 457 l 1
 191 457 l 9xd8
 191 0 l 17
 117 0 l 1
 117 457 l 1
 20 457 l 1xb8
EndSplineSet
Fore
SplineSet
27 507 m 5xa4
 27 521 l 5xa4
 114 531 l 5
 114 630 l 6
 114 684 117 786 207 786 c 4xd4
 237 786 321 785 357 775 c 5
 357 762 l 5x8c
 215 762 l 6
 147 762 138 708 138 630 c 6
 138 531 l 5
 316 531 l 5
 316 507 l 5
 138 507 l 13xd4
 138 0 l 21
 114 0 l 5
 114 507 l 5
 27 507 l 5xa4
EndSplineSet
Validated: 1
AlternateSubs2: "'salt' Access All Alternates in Latin lookup 4-1" f.salt
Substitution2: "'smcp' Lowercase to Small Capitals lookup 16-1" f.smcp
EndChar

StartChar: l
Encoding: 108 108 18
Width: 298
VWidth: 0
Flags: W
HStem: 0 13<226.454 271> 763 20G<81 105>
VStem: 81 24<95.0224 783>
LayerCount: 2
Back
SplineSet
90 189 m 6
 90 783 l 5
 164 783 l 5
 164 189 l 6
 164 102 187 82 221 74 c 6
 221 74 303 53 310 53 c 5
 310 0 l 5
 222 0 l 6
 145 0 90 48 90 189 c 6
EndSplineSet
Fore
SplineSet
81 189 m 6
 81 783 l 1
 105 783 l 1
 105 189 l 6
 105 32 167 28 197 24 c 6
 197 24 264 13 271 13 c 5
 271 0 l 5
 204 0 l 6
 120 0 81 57 81 189 c 6
EndSplineSet
Validated: 1
Substitution2: "'smcp' Lowercase to Small Capitals lookup 16-1" l.smcp
EndChar

StartChar: j
Encoding: 106 106 19
Width: 197
VWidth: 0
Flags: W
HStem: 511 20G<87 111> 610 86<81 116>
VStem: 87 24<-190.829 531 610.75 695.215> 87 13<-270 -211.78>
LayerCount: 2
Back
SplineSet
76 617 m 6xe0
 76 671 l 6
 76 686 84 696 100 696 c 6
 150 696 l 6
 165 696 173 685 173 671 c 6
 173 617 l 6
 173 602 164 594 150 594 c 6
 100 594 l 6
 86 594 76 603 76 617 c 6xe0
87 -270 m 1xc8
 87 531 l 1
 161 531 l 1
 161 -4 l 2xd0
 162 -90 160 -190 135 -270 c 1
 87 -270 l 1xc8
EndSplineSet
Fore
SplineSet
81 622 m 6xc0
 81 684 l 2
 81 692 85 696 93 696 c 2
 104 696 l 2
 112 696 116 691 116 684 c 2
 116 622 l 6
 116 614 111 610 104 610 c 6
 93 610 l 6
 86 610 81 615 81 622 c 6xc0
87 -270 m 1xd0
 87 531 l 1
 111 531 l 1
 111 -4 l 2xe0
 112 -90 112 -182 100 -270 c 1
 87 -270 l 1xd0
EndSplineSet
Validated: 33
Substitution2: "'smcp' Lowercase to Small Capitals lookup 16-1" j.smcp
EndChar

StartChar: t
Encoding: 116 116 20
Width: 350
VWidth: 0
Flags: W
HStem: -1 13<256.454 301> 508 24<135 310> 508 16<27 100.5>
VStem: 111 24<94.0224 508> 119 16<550.5 680>
LayerCount: 2
Back
SplineSet
20 458 m 1xb0
 20 514 l 1xb0
 119 532 l 1xd0
 137 680 l 1
 193 680 l 1
 193 532 l 1xc8
 348 532 l 1
 348 458 l 1
 193 458 l 1xd0
 193 190 l 2
 193 103 216 83 250 75 c 2
 250 75 332 54 339 54 c 1
 339 1 l 1
 251 1 l 2
 174 1 119 49 119 190 c 2
 119 458 l 1
 20 458 l 1xb0
EndSplineSet
Fore
SplineSet
27 508 m 1xb0
 27 524 l 1xb0
 111 532 l 1xd0
 119 680 l 1
 135 680 l 1
 135 532 l 1xc8
 310 532 l 1
 310 508 l 1
 135 508 l 1xd0
 135 188 l 6
 135 31 197 27 227 23 c 6
 227 23 294 12 301 12 c 5
 301 -1 l 5
 234 -1 l 6
 150 -1 111 56 111 188 c 6
 111 508 l 1
 27 508 l 1xb0
EndSplineSet
Validated: 1
AlternateSubs2: "'salt' Access All Alternates in Latin lookup 4-1" t.salt
Substitution2: "'smcp' Lowercase to Small Capitals lookup 16-1" t.smcp
EndChar

StartChar: s
Encoding: 115 115 21
Width: 504
VWidth: 0
Flags: W
HStem: -5 24<131.252 388.674> 5 14<76 203.283> 252 24<107.027 375.306> 513 23<126.984 379.679> 513 14<290.755 423>
VStem: 54 24<305.114 469.229> 426 24<58.1934 206.019>
LayerCount: 2
Back
SplineSet
46 358 m 10xa6
 46 404 l 18
 46 486 81 536 184 536 c 3xb6
 236 536 393 525 445 520 c 9
 445 463 l 17x2e
 184 463 l 2
 119.999 463 120 438 120 404 c 10
 120 358 l 18
 120 303 147 301 184 301 c 2
 342 301 l 2
 429 301 472 247 472 172 c 1
 472 123 l 2
 472 14 406 -5 342 -5 c 3xb6
 293 -5 106 10 68 14 c 9
 68 69 l 17x66
 342 69 l 26
 342 69 398 63 398 123 c 2
 398 172 l 2
 398 207 386 227 342 227 c 10
 184 227 l 2
 90 227 46 255 46 358 c 10xa6
EndSplineSet
Fore
SplineSet
54 363 m 10xa6
 54 409 l 18
 54 491 89 536 192 536 c 3xb6
 244 536 371 532 423 527 c 9
 423 513 l 17x2e
 192 513 l 2
 108 513 78 481 78 409 c 10
 78 363 l 18
 78 277 117 276 192 276 c 2
 320 276 l 2
 396 276 450 237 450 162 c 2
 450 113 l 2
 450 4 384 -5 320 -5 c 3xb6
 271 -5 114 1 76 5 c 9
 76 19 l 17x66
 320 19 l 18
 367 19 426 20 426 113 c 2
 426 162 l 2
 426 211 391 252 320 252 c 10
 192 252 l 2
 98 252 54 260 54 363 c 10xa6
EndSplineSet
Validated: 1
Substitution2: "'smcp' Lowercase to Small Capitals lookup 16-1" s.smcp
EndChar

StartChar: k
Encoding: 107 107 22
Width: 498
VWidth: 0
Flags: W
HStem: 0 21G<81 105 416.57 470> 293 24<105 165> 511 20G<407.953 471> 762 20G<81 105>
VStem: 81 24<0 293 317 782>
DStem2: 165 317 189 304 0.778979 0.62705<10.5438 342.955> 189 304 165 293 0.678782 -0.73434<0 390.22>
LayerCount: 2
Back
SplineSet
90 0 m 1
 90 782 l 1
 164 782 l 1
 164 342 l 1
 204 342 l 1
 407 531 l 1
 510 531 l 1
 274 305 l 5
 510 0 l 1
 418 0 l 1
 204 268 l 1
 164 268 l 1
 164 0 l 1
 90 0 l 1
EndSplineSet
Fore
SplineSet
81 0 m 1
 81 782 l 1
 105 782 l 1
 105 317 l 1
 165 317 l 1
 433 531 l 1
 471 531 l 1
 189 304 l 1
 470 0 l 1
 435 0 l 1
 165 293 l 1
 105 293 l 1
 105 0 l 1
 81 0 l 1
EndSplineSet
Validated: 1
Substitution2: "'smcp' Lowercase to Small Capitals lookup 16-1" k.smcp
EndChar

StartChar: g
Encoding: 103 103 23
Width: 572
VWidth: 0
Flags: W
HStem: -270 24<160.22 432.519> 37 23<119.948 434.523> 173 25<157.678 394.16> 509 24<156.078 410.907> 519 14<468.3 546>
VStem: 64 22<-173.252 24.6667 87.75 145.602 276.546 429.201> 472 24<277.55 428.199> 493 24<-187.3 -19.025>
LayerCount: 2
Back
SplineSet
142 344 m 0xec
 142 295 157 223 234 223 c 2
 332 223 l 2
 412 223 431 297 429 344 c 0
 426 414 410 459 331 459 c 2
 241 459 l 2
 159 459 142 399 142 344 c 0xec
138 19 m 1
 138 -30 l 1
 138 -116 l 2
 138 -189 189 -196 224 -196 c 2
 374 -196 l 2
 433 -196 450 -163 450 -116 c 2
 450 -88 l 2xca
 450 -41 414 -20 362 -12 c 2
 176 13.8565 l 10
 138 19 l 1
64 -31 m 1
 104 34 l 1
 76 54 67 87 67 114 c 0
 67 147 85 190 126 198 c 1
 82 226 68 291 68 344 c 0
 68 471 134 533 241 533 c 2xea
 553 533 l 1
 553 477 l 1xda
 472 459 l 1
 483 438 503 417 503 344 c 0xec
 503 284 480 149 338 149 c 2
 182 149 l 2
 166 149 141 143 141 117 c 0
 141 91 160 86 182 83 c 2
 379 58 l 2
 465 47 524 -4 524 -83 c 2
 524 -116 l 2
 524 -176 505 -270 374 -270 c 2
 224 -270 l 2
 130 -270 64 -220 64 -116 c 1
 64 -31 l 1
EndSplineSet
Fore
SplineSet
64 120 m 1xf5
 64 150 90.5 186 149 188 c 1
 75 218 62 285 62 344 c 0
 62 476 113 533 234 533 c 2xf5
 546 533 l 1
 546 519 l 1xed
 435 509 l 1
 453 496 496 459 496 344 c 0xf6
 496 284 473 173 331 173 c 2
 175 173 l 2
 159 173 86 168 86 116 c 0
 86 76 138 60 166 60 c 2
 372 60 l 2
 466.5 60 517 6 517 -73 c 2
 517 -126 l 2
 517 -186 498 -270 367 -270 c 2
 217 -270 l 2
 123 -270 61 -215 61 -116 c 2
 61 -22 l 1
 73 83 l 1
 66 92.5 64 106 64 120 c 1xf5
86 -116 m 2
 86 -228 177 -246 217 -246 c 2
 367 -246 l 2
 437 -246 493 -220 493 -126 c 2
 493 -73 l 2
 493 -14 462.5 37 372 37 c 2
 168 37 l 2
 114 37 86 66 86 66 c 1
 86 -116 l 2
86 344 m 0
 86 238 142 198 227 198 c 2
 329 198 l 2
 437 198 472 270 472 344 c 0xf6
 472 458 422 509 372 509 c 2
 224 509 l 2
 114 509 86 442 86 344 c 0
EndSplineSet
AlternateSubs2: "'salt' Access All Alternates in Latin lookup 4-1" g.salt
Substitution2: "'smcp' Lowercase to Small Capitals lookup 16-1" g.smcp
EndChar

StartChar: v
Encoding: 118 118 24
Width: 520
VWidth: 0
Flags: W
HStem: 0 21G<236.789 279.362> 511 20G<27 59.3133 460.526 493>
DStem2: 51 531 27 531 0.379786 -0.925074<0 539.303> 258 33 271 0 0.385725 0.922614<0 540.85>
LayerCount: 2
Back
SplineSet
20 531 m 29
 101 531 l 21
 267 109 l 13
 435 531 l 29
 516 531 l 29
 303 0 l 29
 229 0 l 29
 20 531 l 29
EndSplineSet
Fore
SplineSet
27 531 m 29
 51 531 l 21
 258 33 l 13
 469 531 l 29
 493 531 l 29
 271 0 l 29
 245 0 l 29
 27 531 l 29
EndSplineSet
Validated: 1
Substitution2: "'smcp' Lowercase to Small Capitals lookup 16-1" v.smcp
EndChar

StartChar: w
Encoding: 119 119 25
Width: 777
VWidth: 0
Flags: W
HStem: 0 21G<227.166 268.632 503.118 545.985> 511 20G<27 59.8244 431.375 463 718.936 750>
DStem2: 52 531 27 531 0.36473 -0.931113<0 537.975> 248 30 261 0 0.355556 0.934655<0 301.962 332.399 536.173> 389 332 377 304 0.40586 -0.913935<20.7199 331.205> 525 30 538 0 0.370788 0.928718<0 540.187>
LayerCount: 2
Back
SplineSet
20 531 m 5
 101 531 l 5
 267 109 l 5
 435 531 l 5
 516 531 l 5
 450 368 l 5
 552 109 l 5
 720 531 l 5
 801 531 l 5
 588 0 l 5
 514 0 l 5
 409 265 l 5
 303 0 l 5
 229 0 l 5
 20 531 l 5
EndSplineSet
Fore
SplineSet
27 531 m 1
 52 531 l 1
 248 30 l 1
 439 531 l 5
 463 531 l 1
 389 332 l 1
 525 30 l 1
 727 531 l 1
 750 531 l 1
 538 0 l 1
 512 0 l 1
 377 304 l 1
 261 0 l 1
 235 0 l 1
 27 531 l 1
EndSplineSet
Substitution2: "'smcp' Lowercase to Small Capitals lookup 16-1" w.smcp
EndChar

StartChar: y
Encoding: 121 121 26
Width: 529
VWidth: 0
Flags: W
HStem: 0 25<258.769 295> 511 20G<28 61.1325 467.241 499>
DStem2: 54 531 28 531 0.335628 -0.941995<0 507.204> 208 -270 266 -168 0.315161 0.949038<3.78193 283.659 309.907 844.012>
LayerCount: 2
Back
SplineSet
20.6699 531 m 1
 101.67 531 l 1
 231 116 l 2
 248.626 59.4416 298 77 297 77 c 9
 448.67 531 l 1
 531.67 531 l 9
 297.67 -168 l 17
 222.67 -270 l 1
 176.67 -270 l 1
 270.67 0 l 0
 250 0 183.885 1.81516 150.518 110 c 2
 20.6699 531 l 1
EndSplineSet
Fore
SplineSet
28 531 m 1
 54 531 l 1
 202 116 l 2
 239 13 304 25 303 25 c 9
 474 531 l 1
 499 531 l 9
 266 -168 l 17
 220 -270 l 1
 208 -270 l 1
 295 0 l 0
 274 1 209 9 178 110 c 2
 28 531 l 1
EndSplineSet
Validated: 37
Substitution2: "'smcp' Lowercase to Small Capitals lookup 16-1" y.smcp
EndChar

StartChar: x
Encoding: 120 120 27
Width: 480
VWidth: 0
Flags: W
HStem: 0 21G<32 78.4856 401.514 448> 511 20G<32 78.4856 401.514 448>
DStem2: 64 531 32 531 0.585992 -0.810317<0 300.042 336.506 636.547> 32 0 64 0 0.585992 0.810317<18.7517 318.793 355.258 655.299>
LayerCount: 2
Back
SplineSet
24 0 m 1
 216 265.5 l 1
 24 531 l 1
 116 531 l 1
 260.463 326.984 l 1
 408 531 l 1
 500 531 l 1
 305.979 262.705 l 1
 492 0 l 1
 408 0 l 1
 262 201.891 l 1
 116 0 l 1
 24 0 l 1
EndSplineSet
Fore
SplineSet
32 0 m 1
 224 266 l 1
 32 531 l 1
 64 531 l 1
 240 288 l 1
 416 531 l 1
 448 531 l 1
 256 266 l 1
 448 0 l 1
 416 0 l 1
 240 243 l 1
 64 0 l 1
 32 0 l 1
EndSplineSet
Validated: 1
AlternateSubs2: "'salt' Access All Alternates in Latin lookup 4-1" x.salt
Substitution2: "'smcp' Lowercase to Small Capitals lookup 16-1" x.smcp
EndChar

StartChar: V
Encoding: 86 86 28
Width: 659
VWidth: 0
Flags: W
HStem: 0 21G<315.842 364.486> 712 20G<61 94.1469 597.514 631>
DStem2: 87 732 61 732 0.336988 -0.941509<0 751.846> 340 24 357 0 0.350563 0.936539<0 755.969>
LayerCount: 2
Back
SplineSet
20 732 m 1
 101 732 l 1
 315 118 l 5
 539 732 l 1
 620 732 l 1
 351 0 l 1
 277 0 l 1
 20 732 l 1
EndSplineSet
Fore
SplineSet
61 732 m 5
 87 732 l 5
 340 24 l 5
 605 732 l 5
 631 732 l 5
 357 0 l 5
 323 0 l 5
 61 732 l 5
EndSplineSet
Validated: 1
Substitution2: "'c2sc' Capitals to Small Capitals in Latin lookup 17 subtable" v.smcp
EndChar

StartChar: W
Encoding: 87 87 29
Width: 971
VWidth: 0
Flags: W
HStem: 0 21G<315.842 363.97 646.919 695.94> 712 20G<61 94.1469 578.079 611 911.994 943>
DStem2: 87 732 61 732 0.336988 -0.941509<0 751.846> 340 24 357 0 0.32782 0.94474<0 402.255 439.583 749.192> 508 431 495 396 0.371784 -0.928319<27.658 438.427> 671 24 689 0 0.32782 0.94474<0 750.175>
LayerCount: 2
Back
SplineSet
20 732 m 1
 101 732 l 1
 314 129 l 1
 495 732 l 1
 579 732 l 1
 511 498 l 1
 644 123 l 1
 831 732 l 1
 912 732 l 1
 683 0 l 1
 609 0 l 1
 472 374 l 1
 351 0 l 1
 277 0 l 1
 20 732 l 1
EndSplineSet
Fore
SplineSet
61 732 m 1
 87 732 l 1
 340 24 l 1
 585 732 l 1
 611 732 l 1
 508 431 l 1
 671 24 l 1
 919 732 l 1
 943 732 l 1
 689 0 l 1
 655 0 l 1
 495 396 l 1
 357 0 l 1
 323 0 l 1
 61 732 l 1
EndSplineSet
Validated: 1
Substitution2: "'c2sc' Capitals to Small Capitals in Latin lookup 17 subtable" w.smcp
EndChar

StartChar: C
Encoding: 67 67 30
Width: 570
VWidth: 0
Flags: W
HStem: -6 24<246.642 464.168> 716 24<232.29 453.849>
VStem: 74 24<225.511 526.613>
LayerCount: 2
Back
SplineSet
75 368 m 0
 75 602 119 740 318 740 c 4
 370 740 492 728 562 715 c 5
 562 656 l 17
 560.667 656 410 666 318 666 c 3
 193 666 149 609 149 366 c 0
 149 202 185.965 68 319 68 c 3
 424.005 68 562 75 562 75 c 1
 562 16 l 1
 492 3 370 -6 318 -6 c 0
 133 -6 75 153 75 368 c 0
EndSplineSet
Fore
SplineSet
74 368 m 0
 74 598 114 740 317 740 c 0
 369 740 461 729 531 716 c 1
 531 702 l 17
 530 702 409 716 317 716 c 3
 170 716 98 646 98 366 c 0
 98 138 166 18 318 18 c 3
 423 18 531 30 531 30 c 1
 531 16 l 1
 461 3 369 -6 317 -6 c 0
 132 -6 74 153 74 368 c 0
EndSplineSet
Validated: 1
Substitution2: "'c2sc' Capitals to Small Capitals in Latin lookup 17 subtable" c.smcp
EndChar

StartChar: D
Encoding: 68 68 31
Width: 671
VWidth: 0
Flags: W
HStem: 0 24<132 425.244> 708 24<132 437.016>
VStem: 108 24<24 708> 596 24<257.821 495.833>
LayerCount: 2
Back
SplineSet
159 77 m 1
 358 77 l 2
 490 77 543 210 543 364 c 0
 543 578 474 658 358 658 c 2
 159 658 l 1
 159 77 l 1
85 0 m 1
 85 732 l 2
 358 732 l 0
 583 732 617 513 617 363 c 0
 617 197 551 0 358 0 c 0
 85 0 l 1
EndSplineSet
Fore
SplineSet
108 0 m 1
 108 732 l 2
 361 732 l 4
 587 732 620 513 620 363 c 4
 620 197 546 0 361 0 c 4
 108 0 l 1
132 24 m 1
 361 24 l 6
 528 24 596 216 596 364 c 4
 596 600 509 708 361 708 c 6
 132 708 l 1
 132 24 l 1
EndSplineSet
Validated: 1
Substitution2: "'c2sc' Capitals to Small Capitals in Latin lookup 17 subtable" d.smcp
EndChar

StartChar: O
Encoding: 79 79 32
Width: 675
VWidth: 0
Flags: W
HStem: -4 24<243.453 466.859> 713 24<240.325 465.915>
VStem: 88 24<191.922 526.072> 600 24<198.788 533.952>
LayerCount: 2
Back
SplineSet
75 361 m 3
 75 704 189.926 737 358 737 c 3
 531.201 737 641 704 641 361 c 3
 641 38 538.295 -4 358 -4 c 3
 177.578 -4 75 28 75 361 c 3
149 361 m 3
 149 103.714 200 70 358 70 c 3
 514 70 567 112 567 361 c 3
 567 660 494 663 358 663 c 3
 224.873 663 149 660 149 361 c 3
EndSplineSet
Fore
SplineSet
88 361 m 3
 88 704 184 737 356 737 c 3
 529 737 624 704 624 361 c 3
 624 38 536 -4 356 -4 c 3
 176 -4 88 28 88 361 c 3
112 361 m 3
 112 63 177 20 356 20 c 3
 527 20 600 65 600 361 c 3
 600 685 516 713 356 713 c 3
 208 713 112 698 112 361 c 3
EndSplineSet
Validated: 1
Substitution2: "'c2sc' Capitals to Small Capitals in Latin lookup 17 subtable" o.smcp
EndChar

StartChar: S
Encoding: 83 83 33
Width: 586
VWidth: 0
Flags: W
HStem: -8 24<129.777 428.644> 347 24<173.06 449.318> 714 24<191.693 445.754>
VStem: 88 24<428.481 635.158> 511 24<92.9184 288.085>
LayerCount: 2
Back
SplineSet
55 494 m 14
 55 560 l 22
 55 705 141 738 253 738 c 4
 306 738 455 719 493 714 c 9
 493 654 l 17
 429.5 658 253 664 253 664 c 4
 183 667 129 660 129 560 c 14
 129 494 l 22
 129 403.333 171.333 396 231 396 c 6
 363 396 l 18
 496 396 520 306 520 224 c 2
 520 156 l 2
 520 14 416 -8 317 -8 c 7
 268 -8 124 8.5 78 17 c 13
 78 77 l 21
 117.5 73.5 224 66 317 66 c 4
 358 66 446 68 446 156 c 2
 446 224 l 2
 446 281 428 322 363 322 c 10
 233 322 l 6
 73.3333 322 55 410.333 55 494 c 14
EndSplineSet
Fore
SplineSet
88 494 m 10
 88 560 l 18
 88 705 169 738 281 738 c 0
 334 738 454 727 503 719 c 1
 503 706 l 1
 439 710 281 714 281 714 c 2
 175.992 717.784 112 681 112 560 c 10
 112 494 l 18
 112 390 167 371 259 371 c 2
 373 371 l 18
 506 371 535 306 535 224 c 2
 535 156 l 2
 535 14 440 -8 341 -8 c 3
 292 -8 152 -1 106 7 c 9
 106 22 l 17
 150 18 248 16 341 16 c 1
 431 16 511 39 511 156 c 2
 511 224 l 2
 511 309 473 347 373 347 c 10
 261 347 l 2
 106 347 88 416 88 494 c 10
EndSplineSet
Validated: 33
Substitution2: "'c2sc' Capitals to Small Capitals in Latin lookup 17 subtable" s.smcp
EndChar

StartChar: G
Encoding: 71 71 34
Width: 620
VWidth: 0
Flags: W
HStem: -5 24<220.517 386.27> 364 25<321.882 533.645> 364 14<320 356.397> 716 24<218.178 435.777>
VStem: 74 24<191.754 544.654> 534 24<65.7194 364> 544 14<0 47.25>
LayerCount: 2
Back
SplineSet
75 370 m 3xda
 75 570 109 740 308 740 c 0
 360 740 492 726 562 713 c 1
 562 654 l 1
 556.333 654 407.171 666 308 666 c 27
 176.271 666 149 570 149 368 c 0
 149 146 189.994 69.6079 313 68 c 0
 389.5 67 505 114 505 114 c 9
 505 314 l 25xdc
 336 314 l 25
 336 364 l 17xbc
 376 375 430 389 511 389 c 0
 532 389 555 388 579 386 c 9
 579 0 l 17
 522 0 l 0
 507 49 l 1
 469.5 28 403 -5 313 -5 c 1
 106 -7 75 158 75 370 c 3xda
EndSplineSet
Fore
SplineSet
74 370 m 3xda
 74 570 93 740 292 740 c 0
 344 740 471 726 541 713 c 1
 541 694 l 1
 535 694 386 716 292 716 c 3
 126 716 98 585 98 368 c 0
 98 120 138 19 297 19 c 0
 375 19 534 69 534 69 c 9
 534 364 l 25
 320 364 l 25
 320 378 l 17xbc
 360 389 409 389 490 389 c 0
 511 389 534 388 558 386 c 9
 558 0 l 17
 544 0 l 0
 536 54 l 1
 506 38 387 -5 297 -5 c 1
 90 -7 74 163 74 370 c 3xda
EndSplineSet
Validated: 33
Substitution2: "'c2sc' Capitals to Small Capitals in Latin lookup 17 subtable" g.smcp
EndChar

StartChar: Q
Encoding: 81 81 35
Width: 675
VWidth: 0
Flags: W
HStem: -4 24<243.453 466.859> 713 24<240.325 465.915>
VStem: 88 24<191.922 526.072> 600 24<198.788 533.952>
LayerCount: 2
Back
SplineSet
75 361 m 3
 75 704 186.103 737 358 737 c 3
 531.201 737 641 704 641 361 c 3
 641 38 538.295 -4 358 -4 c 3
 177.578 -4 75 28 75 361 c 3
149 361 m 3
 149 103.714 200 70 358 70 c 3
 514 70 567 112 567 361 c 3
 567 660 494 663 358 663 c 3
 224.873 663 149 660 149 361 c 3
327 -33 m 9
 379 -33 l 17
 441 -77 489 -74 547 -53 c 5
 547 -133 l 5
 475 -160 343 -133 327 -33 c 9
EndSplineSet
Fore
SplineSet
88 361 m 3
 88 704 184 737 356 737 c 3
 529 737 624 704 624 361 c 3
 624 38 536 -4 356 -4 c 3
 176 -4 88 28 88 361 c 3
112 361 m 3
 112 63 177 20 356 20 c 3
 527 20 600 65 600 361 c 3
 600 685 516 713 356 713 c 3
 208 713 112 698 112 361 c 3
348 -33 m 9
 362 -33 l 17
 392 -115 479 -116 538 -96 c 1
 538 -120 l 1
 466 -147 368 -127 348 -33 c 9
EndSplineSet
Validated: 33
Substitution2: "'c2sc' Capitals to Small Capitals in Latin lookup 17 subtable" q.smcp
EndChar

StartChar: M
Encoding: 77 77 36
Width: 797
VWidth: 0
Flags: W
HStem: 0 21G<74 100.191 384.855 424.031 708.696 735> 712 20G<152.787 197.165 606.951 653.295>
DStem2: 74 0 98 0 0.109984 0.993933<2.63963 709.844> 191 732 175 703 0.293704 -0.955897<23.0217 723.083> 404 41 418 0 0.288722 0.957413<0 699.059> 651 732 630 703 0.114006 -0.99348<26.4168 734.068>
LayerCount: 2
Back
SplineSet
70 0 m 1
 118 732 l 1
 220 732 l 1
 415 123 l 5
 604 732 l 1
 705 732 l 1
 761 0 l 1
 687 0 l 1
 642 598 l 1
 454 0 l 1
 378 0 l 1
 184 598 l 1
 144 0 l 1
 70 0 l 1
EndSplineSet
Fore
SplineSet
74 0 m 1
 155 732 l 1
 191 732 l 1
 404 41 l 1
 613 732 l 1
 651 732 l 5
 735 0 l 1
 711 0 l 1
 630 703 l 1
 418 0 l 1
 391 0 l 1
 175 703 l 1
 98 0 l 1
 74 0 l 1
EndSplineSet
Validated: 1
AlternateSubs2: "'salt' Access All Alternates in Latin lookup 4-1" M.salt
Substitution2: "'c2sc' Capitals to Small Capitals in Latin lookup 17 subtable" m.smcp
EndChar

StartChar: I
Encoding: 73 73 37
Width: 200
VWidth: 0
Flags: W
HStem: 0 21G<108 132> 712 20G<108 132>
VStem: 108 24<0 732>
LayerCount: 2
Back
SplineSet
85 0 m 5
 85 732 l 5
 159 732 l 5
 159 0 l 5
 85 0 l 5
EndSplineSet
Fore
SplineSet
108 0 m 1
 108 732 l 1
 132 732 l 1
 132 0 l 1
 108 0 l 1
EndSplineSet
Validated: 1
Substitution2: "'c2sc' Capitals to Small Capitals in Latin lookup 17 subtable" i.smcp
EndChar

StartChar: J
Encoding: 74 74 38
Width: 349
VWidth: 0
Flags: W
HStem: 21 14<51 55.1464> 712 20G<257 281>
VStem: 257 24<86.25 732>
LayerCount: 2
Back
SplineSet
20 21 m 1
 24 75 l 1
 98 57 209 26 210 165 c 1
 210 732 l 1
 284 732 l 1
 284 165 l 2
 284 118 282 50 232 18 c 0
 179 -16 72 -13 20 21 c 1
EndSplineSet
Fore
SplineSet
47 21 m 5
 51 35 l 5
 139 8 257 -9 257 165 c 1
 257 732 l 1
 281 732 l 1
 281 165 l 2
 281 118 274 51 229 18 c 0
 186 -14 99 -13 47 21 c 5
EndSplineSet
Validated: 33
Substitution2: "'c2sc' Capitals to Small Capitals in Latin lookup 17 subtable" j.smcp
EndChar

StartChar: H
Encoding: 72 72 39
Width: 664
VWidth: 0
Flags: W
HStem: 0 21G<108 132 572 596> 342 24<132 572> 712 20G<108 132 572 596>
VStem: 108 24<0 342 366 732> 572 24<0 342 366 732>
LayerCount: 2
Back
SplineSet
85 0 m 1
 85 732 l 1
 159 732 l 1
 159 391 l 1
 509 391 l 1
 509 732 l 1
 583 732 l 1
 583 0 l 1
 509 0 l 1
 509 317 l 1
 159 317 l 1
 159 0 l 1
 85 0 l 1
EndSplineSet
Fore
SplineSet
108 0 m 1
 108 732 l 1
 132 732 l 1
 132 366 l 1
 572 366 l 1
 572 732 l 1
 596 732 l 1
 596 0 l 1
 572 0 l 1
 572 342 l 1
 132 342 l 1
 132 0 l 1
 108 0 l 1
EndSplineSet
Validated: 1
Substitution2: "'c2sc' Capitals to Small Capitals in Latin lookup 17 subtable" h.smcp
EndChar

StartChar: E
Encoding: 69 69 40
Width: 582
VWidth: 0
Flags: W
HStem: -3 24<175.605 445.2> 7 14<330.8 531> 351 24<132 491> 708 24<179.101 441.9> 708 14<323.1 531>
VStem: 108 24<65.695 351 375 659.819>
LayerCount: 2
Back
SplineSet
85 123 m 2x8c
 85 602 l 2
 85 700 143.534 735.635 211 732 c 2
 508 716 l 1
 508 658 l 1
 211 658 l 2
 159.5 658 159 629 159 602 c 2
 159 402 l 1xac
 468 392 l 1
 468 333 l 1x1c
 159 323 l 1
 159 123 l 2
 160 70 192 71 221 71 c 2xac
 508 71 l 1
 508 14 l 1x4c
 221 -3 l 2
 155 -6 85 10 85 123 c 2x8c
EndSplineSet
Fore
SplineSet
108 123 m 2xa4
 108 602 l 2
 108 700 170.005 734.154 234 732 c 0xb4
 531 722 l 1
 531 708 l 1x2c
 234 708 l 2
 172 708 132 677 132 602 c 2
 132 375 l 1
 491 370 l 1
 491 356 l 1
 132 351 l 1
 132 123 l 2
 132 31 189 21 244 21 c 2xb4
 531 21 l 1
 531 7 l 1x64
 245 -3 l 0
 178.973 -5.30078 108 10 108 123 c 2xa4
EndSplineSet
Substitution2: "'c2sc' Capitals to Small Capitals in Latin lookup 17 subtable" e.smcp
EndChar

StartChar: L
Encoding: 76 76 41
Width: 559
VWidth: 0
Flags: W
HStem: 0 24<177.525 520> 712 20G<108 132>
VStem: 108 24<68.7894 732>
LayerCount: 2
Back
SplineSet
86 126 m 6
 86 732 l 5
 160 732 l 5
 160 126 l 6
 160 72.9902 193.001 74.2246 222 74 c 6
 508 74 l 5
 508 0 l 5
 222 0 l 6
 155.934 0.516602 85.793 13 86 126 c 6
EndSplineSet
Fore
SplineSet
108 126 m 2
 108 732 l 1
 132 732 l 1
 132 126 l 2
 132 34 190 24 244 24 c 2
 520 24 l 5
 520 0 l 5
 244 0 l 2
 178 0 108 13 108 126 c 2
EndSplineSet
Validated: 1
Substitution2: "'c2sc' Capitals to Small Capitals in Latin lookup 17 subtable" l.smcp
EndChar

StartChar: F
Encoding: 70 70 42
Width: 582
VWidth: 0
Flags: HW
HStem: 0 21G<108 132> 351 24<132 491> 708 24<179.101 441.9> 708 14<323.1 531>
VStem: 108 24<0 351 375 659.819>
LayerCount: 2
Back
SplineSet
85 0 m 25xd8
 85 602 l 2
 85 700 143.534 735.635 211 732 c 2
 508 716 l 1
 508 658 l 1
 211 658 l 2
 159.5 658 159 629 159 602 c 2
 159 402 l 1xd8
 468 392 l 1
 468 333 l 1xb8
 159 323 l 1
 159 0 l 25
 85 0 l 25xd8
EndSplineSet
Fore
SplineSet
108 0 m 25xe8
 108 602 l 2
 108 700 170.005 734.154 234 732 c 0xe8
 531 722 l 1
 531 708 l 1xd8
 234 708 l 2
 172 708 132 677 132 602 c 2
 132 375 l 1
 491 370 l 1
 491 356 l 1
 132 351 l 1
 132 0 l 25
 108 0 l 25xe8
EndSplineSet
Substitution2: "'c2sc' Capitals to Small Capitals in Latin lookup 17 subtable" f.smcp
EndChar

StartChar: K
Encoding: 75 75 43
Width: 593
VWidth: 0
Flags: W
HStem: 0 21G<108 133 510.423 554> 355 24<133 283> 712 20G<108 132 511.346 554>
VStem: 108 25<0 355 379 732>
DStem2: 306 367 283 355 0.559899 -0.828561<0 426.14> 284 379 306 367 0.562 0.827137<2.43835 427.421>
LayerCount: 2
Back
SplineSet
85 0 m 1
 85 732 l 1
 159 732 l 1
 159 404 l 1
 242 404 l 1
 472 732 l 1
 561 732 l 1
 310 367 l 1
 561 0 l 1
 472 0 l 1
 242 330 l 1
 160 330 l 9
 160 0 l 17
 85 0 l 1
EndSplineSet
Fore
SplineSet
108 0 m 1
 108 732 l 1
 132 732 l 1
 132 379 l 1
 284 379 l 1
 525 732 l 1
 554 732 l 1
 306 367 l 1
 554 0 l 1
 524 0 l 5
 283 355 l 5
 133 355 l 9
 133 0 l 17
 108 0 l 1
EndSplineSet
Validated: 1
Substitution2: "'c2sc' Capitals to Small Capitals in Latin lookup 17 subtable" k.smcp
EndChar

StartChar: T
Encoding: 84 84 44
Width: 604
VWidth: 0
Flags: W
HStem: 0 21G<291 315> 708 24<47 291 315 565>
VStem: 291 24<0 708>
LayerCount: 2
Back
SplineSet
20 658 m 1
 20 732 l 1
 528 732 l 1
 528 658 l 1
 308 658 l 1
 308 0 l 1
 234 0 l 1
 234 658 l 1
 20 658 l 1
EndSplineSet
Fore
SplineSet
47 708 m 1
 47 732 l 1
 565 732 l 1
 565 708 l 1
 315 708 l 1
 315 0 l 1
 291 0 l 1
 291 708 l 1
 47 708 l 1
EndSplineSet
Validated: 1
Substitution2: "'c2sc' Capitals to Small Capitals in Latin lookup 17 subtable" t.smcp
EndChar

StartChar: P
Encoding: 80 80 45
Width: 584
VWidth: 0
Flags: W
HStem: 0 21G<81 105> 323 24<166.775 426.908> 333 14<105 239.506> 707 25<105 432.015>
VStem: 81 24<0 333 347 707> 508 25<436.959 619.805>
LayerCount: 2
Back
SplineSet
85 0 m 1xbc
 85 732 l 1
 371 732 l 2
 450 732 547 699 547 520 c 0
 547 310.9 445 298 371 298 c 0xdc
 331 298 164 315 159 318 c 1
 159 0 l 1
 85 0 l 1xbc
159 372 m 2xbc
 371 372 l 2xdc
 423 372 472 387 472 520 c 1
 470 651 406 657 371 657 c 2
 159 657 l 1
 159 372 l 2xbc
EndSplineSet
Fore
SplineSet
81 0 m 1xbc
 81 732 l 1
 357 732 l 2
 436 732 533 711 533 532 c 0
 533 328 431 323 357 323 c 0xdc
 317 323 110 330 105 333 c 1
 105 0 l 1
 81 0 l 1xbc
105 347 m 2xbc
 357 347 l 2xdc
 436 347 510 373 508 532 c 1
 508 686 433 707 357 707 c 2
 105 707 l 1
 105 347 l 2xbc
EndSplineSet
Validated: 33
Substitution2: "'c2sc' Capitals to Small Capitals in Latin lookup 17 subtable" p.smcp
EndChar

StartChar: R
Encoding: 82 82 46
Width: 574
VWidth: 0
Flags: W
HStem: 0 21G<81 105 499.969 535> 323 24<161.292 348 374 429.219> 333 14<105 238.969> 707 25<105 432.015>
VStem: 81 24<0 333 347 707> 508 25<435.916 621.237>
DStem2: 374 323 348 323 0.44832 -0.893873<0 349.693>
LayerCount: 2
Back
SplineSet
86 0 m 1
 86 732 l 1
 378 732 l 2
 473 732 547 678 547 512 c 0
 547 322 449 306 421 302 c 1
 575 0 l 1
 494 0 l 1
 340 299 l 1
 160 313 l 1
 160 0 l 1
 86 0 l 1
161 379 m 1
 378 379 l 2
 424 379 472 379 472 512 c 0
 472 643 422 657 378 657 c 2
 161 657 l 1
 161 379 l 1
EndSplineSet
Fore
SplineSet
81 0 m 1xbc
 81 732 l 1
 357 732 l 2
 436 732 533 711 533 532 c 0
 533 344 446 325 374 323 c 1
 535 0 l 1
 510 0 l 1
 348 323 l 1xdc
 295 324 110 330 105 333 c 1
 105 0 l 1
 81 0 l 1xbc
105 347 m 1xbc
 357 347 l 2
 436 347 508 370 508 532 c 0
 508 686 433 707 357 707 c 2
 105 707 l 1
 105 347 l 1xbc
EndSplineSet
Validated: 1
Substitution2: "'c2sc' Capitals to Small Capitals in Latin lookup 17 subtable" r.smcp
EndChar

StartChar: U
Encoding: 85 85 47
Width: 683
VWidth: 0
Flags: W
HStem: -5 24<244.692 468.844> 712 20G<108 132 591 615>
VStem: 108 24<178.16 732> 591 24<180.281 732>
LayerCount: 2
Back
SplineSet
80 320 m 2
 80 732 l 1
 154 732 l 1
 154 320 l 2
 154 62.7139 234 69 351 69 c 3
 450.011 69 542 71 542 320 c 2
 542 732 l 1
 617 732 l 1
 617 320 l 2
 617 -3 471.604 -5 351 -5 c 3
 214.908 -5 80 -13 80 320 c 2
EndSplineSet
Fore
SplineSet
108 320 m 2
 108 732 l 1
 132 732 l 1
 132 320 l 2
 132 21 228 19 364 19 c 3
 489 19 591 35 591 320 c 2
 591 732 l 1
 615 732 l 1
 615 320 l 2
 615 -3 485 -5 364 -5 c 3
 228 -5 108 -9 108 320 c 2
EndSplineSet
Validated: 33
Substitution2: "'c2sc' Capitals to Small Capitals in Latin lookup 17 subtable" u.smcp
EndChar

StartChar: B
Encoding: 66 66 48
Width: 599
VWidth: 0
Flags: W
HStem: 0 25<132 435.203> 371 24<132 422.417> 708 24<132 443.578>
VStem: 108 24<25 371 395 708> 530 24<124.177 266.752 498.724 619.743>
LayerCount: 2
Back
SplineSet
85 0 m 1
 85 732 l 1
 348 732 l 2
 494 732 538 624 538 542 c 0
 538 468 517 402 446 380 c 1
 490 370 541 318 541 204 c 0
 541 102 502 0 348 0 c 2
 85 0 l 1
160 74 m 1
 348 74 l 2
 396 74 467 87 467 206 c 0
 467 280 432 346 348 346 c 9
 160 346 l 1
 160 74 l 1
160 420 m 1
 348 420 l 2
 423 420 464 460 464 542 c 0
 464 639 400 658 348 658 c 2
 160 658 l 1
 160 420 l 1
EndSplineSet
Fore
SplineSet
108 0 m 1
 108 732 l 1
 361 732 l 2
 509 732 551 656 551 549 c 0
 551 453 485 391 422 384 c 1
 466 374 554 318 554 204 c 0
 554 102 515 0 361 0 c 2
 108 0 l 1
132 25 m 1
 361 25 l 2
 440 25 530 56 530 206 c 0
 530 298 453 373 361 371 c 9
 132 371 l 1
 132 25 l 1
132 395 m 1
 361 395 l 2
 454 395 524 451 527 549 c 0
 531 667 468 708 361 708 c 2
 132 708 l 1
 132 395 l 1
EndSplineSet
Validated: 33
Substitution2: "'c2sc' Capitals to Small Capitals in Latin lookup 17 subtable" b.smcp
EndChar

StartChar: N
Encoding: 78 78 49
Width: 665
VWidth: 0
Flags: W
HStem: 0 21G<108 132 560.143 597> 712 20G<108 145.828 573 597>
VStem: 108 24<0 686> 573 24<46 732>
DStem2: 133 732 132 686 0.540758 -0.841178<38.1535 814.982>
LayerCount: 2
Back
SplineSet
70 0 m 5
 70 732 l 5
 146 732 l 5
 515 138 l 5
 515 732 l 5
 589 732 l 5
 589 0 l 4
 515 0 l 5
 145 594 l 5
 145 0 l 5
 70 0 l 5
EndSplineSet
Fore
SplineSet
108 0 m 1
 108 732 l 1
 133 732 l 1
 573 46 l 1
 573 732 l 1
 597 732 l 1
 597 0 l 0
 573 0 l 1
 132 686 l 1
 132 0 l 1
 108 0 l 1
EndSplineSet
Validated: 1
AlternateSubs2: "'salt' Access All Alternates in Latin lookup 4-1" N.salt
Substitution2: "'c2sc' Capitals to Small Capitals in Latin lookup 17 subtable" n.smcp
EndChar

StartChar: X
Encoding: 88 88 50
Width: 565
VWidth: 0
Flags: W
HStem: 0 21G<64 107.047 488.953 532> 712 20G<61 103.977 493.907 537>
DStem2: 92 732 61 732 0.515184 -0.857079<0 400.963 444.674 838.093> 64 0 95 0 0.516901 0.856045<16.0239 409.442 453.1 855.095>
LayerCount: 2
Back
SplineSet
20 732 m 5
 101 732 l 5
 281 425 l 5
 465 732 l 5
 546 732 l 5
 330 371 l 5
 541 0 l 5
 460 0 l 5
 281 308 l 5
 104 0 l 5
 23 0 l 5
 232 371 l 5
 20 732 l 5
EndSplineSet
Fore
SplineSet
61 732 m 1
 92 732 l 1
 298 388 l 1
 506 732 l 1
 537 732 l 1
 314 363 l 1
 532 0 l 1
 501 0 l 1
 298 337 l 1
 95 0 l 1
 64 0 l 1
 283 363 l 1
 61 732 l 1
EndSplineSet
Validated: 1
AlternateSubs2: "'salt' Access All Alternates in Latin lookup 4-1" X.salt
Substitution2: "'c2sc' Capitals to Small Capitals in Latin lookup 17 subtable" x.smcp
EndChar

StartChar: Z
Encoding: 90 90 51
Width: 549
VWidth: 0
Flags: W
HStem: 0 24<77 510> 708 24<47 480>
DStem2: 47 24 77 24 0.534876 0.844931<16.0463 809.534>
LayerCount: 2
Back
SplineSet
43 0 m 1
 43 74 l 1
 439 658 l 5
 43 658 l 1
 43 732 l 1
 536 732 l 5
 536 658 l 5
 140 74 l 1
 536 74 l 5
 536 0 l 5
 43 0 l 1
EndSplineSet
Fore
SplineSet
47 0 m 1
 47 24 l 1
 480 708 l 1
 47 708 l 1
 47 732 l 1
 510 732 l 1
 510 708 l 1
 77 24 l 5
 510 24 l 1
 510 0 l 1
 47 0 l 1
EndSplineSet
Validated: 1
Substitution2: "'c2sc' Capitals to Small Capitals in Latin lookup 17 subtable" z.smcp
EndChar

StartChar: Y
Encoding: 89 89 52
Width: 619
VWidth: 0
Flags: W
HStem: 0 21G<304 328> 712 20G<61 98.3401 552.753 591>
VStem: 304 24<0 260>
DStem2: 88 732 61 732 0.457731 -0.889091<0 496.452> 316 291 328 260 0.486742 0.873545<0 505.946>
LayerCount: 2
Back
SplineSet
20 732 m 1
 101 732 l 1
 290 348 l 5
 499 732 l 1
 580 732 l 1
 327 260 l 5
 327 0 l 1
 253 0 l 1
 253 260 l 5
 20 732 l 1
EndSplineSet
Fore
SplineSet
61 732 m 1
 88 732 l 1
 316 291 l 1
 564 732 l 1
 591 732 l 1
 328 260 l 1
 328 0 l 1
 304 0 l 1
 304 260 l 1
 61 732 l 1
EndSplineSet
Validated: 1
Substitution2: "'c2sc' Capitals to Small Capitals in Latin lookup 17 subtable" y.smcp
EndChar

StartChar: AE
Encoding: 198 198 59
Width: 933
VWidth: 0
Flags: W
HStem: -3 24<555.613 804.6> 7 14<701.4 882> 252 24<246 488> 351 24<512 842> 708 24<538.941 801.6> 708 14<694.4 882>
VStem: 488 24<65.695 252 276 351 375 654.599>
DStem2: 40 0 70 0 0.536792 0.843714<16.1038 314.607 343.444 793.018>
LayerCount: 2
Back
SplineSet
20 0 m 1
 318 604 l 2
 390 748 463 732 546 732 c 1xa5
 846 716 l 1
 846 657 l 1x23
 546 657 l 2
 498 657 498 631 496 604 c 1
 496 397 l 1x35
 806 387 l 1
 806 328 l 1x29
 496 318 l 1
 496 121 l 2
 496 68 529 74 558 74 c 2xb1
 845 73 l 1
 845 12 l 1x61
 558 -5 l 2
 492 -8 422 7.99512 422 121 c 2xa1
 422 227 l 1
 212 227 l 1
 101 0 l 1
 20 0 l 1
249 301 m 1
 422 301 l 1
 422 652 l 1
 249 301 l 1
EndSplineSet
Fore
SplineSet
40 0 m 1xb2
 416 590 l 2
 479 689 504 737 614 732 c 1xba
 882 722 l 1
 882 708 l 1x36
 614 708 l 2
 498 708 512 667 512 592 c 2
 512 375 l 1
 842 370 l 1
 842 356 l 1
 512 351 l 1
 512 123 l 2
 512 31 569 21 624 21 c 2xba
 882 21 l 1
 882 7 l 1x72
 624 -3 l 2
 560 -5 488 8 488 121 c 2
 488 252 l 1
 230 252 l 1
 70 0 l 1
 40 0 l 1xb2
246 276 m 1
 488 276 l 1
 488 657 l 1
 246 276 l 1
EndSplineSet
Validated: 33
EndChar

StartChar: Ccedilla
Encoding: 199 199 60
Width: 570
VWidth: 0
Flags: W
HStem: -172 7<213 245 213 245> -6 24<246.642 464.168 246.642 464.168> 716 24<232.29 453.849 232.29 453.849>
VStem: 74 24<225.511 526.613 225.511 526.613> 327 17<-111.854 -36 -111.854 -36>
LayerCount: 2
Back
SplineSet
234.5 -135.467 m 25
 287.5 -120.467 l 17
 315.5 -108.467 319.5 -74.4668 319.5 -36.4668 c 1
 386.5 -36.4668 l 17
 386.5 -138.467 365.5 -172.467 285.5 -172.467 c 2
 234.5 -172.467 l 9
 234.5 -135.467 l 25
75 368 m 0
 75 602 119 740 318 740 c 4
 370 740 492 728 562 715 c 5
 562 656 l 17
 560.667 656 410 666 318 666 c 3
 193 666 149 609 149 366 c 0
 149 202 185.965 68 319 68 c 3
 424.005 68 562 75 562 75 c 1
 562 16 l 1
 492 3 370 -6 318 -6 c 0
 133 -6 75 153 75 368 c 0
EndSplineSet
Fore
Refer: 121 184 S 1 0 0 1 145 1 2
Refer: 30 67 N 1 0 0 1 0 0 3
Validated: 1
Substitution2: "'c2sc' Capitals to Small Capitals in Latin lookup 17 subtable" ccedilla.smcp
EndChar

StartChar: Eth
Encoding: 208 208 61
Width: 671
VWidth: 0
Flags: W
HStem: 0 24<132 415.244> 366 14<43 108 132 291> 708 24<132 427.016>
VStem: 108 24<24 366 380 708> 586 24<257.821 495.833>
LayerCount: 2
Back
SplineSet
20 346 m 1
 20 400 l 1
 85 400 l 1
 85 731 l 2
 85 732 298 732 358 732 c 0
 583 732 617 513 617 363 c 0
 617 197 551 0 358 0 c 2
 85 0 l 1
 85 346 l 1
 20 346 l 1
159 77 m 1
 358 77 l 2
 490 77 540 210 540 364 c 0
 540 574 466 653 358 653 c 2
 159 652 l 1
 159 400 l 1
 298 400 l 1
 298 346 l 1
 159 346 l 1
 159 77 l 1
EndSplineSet
Fore
SplineSet
43 366 m 1
 43 380 l 1
 108 380 l 1
 108 732 l 1
 351 732 l 2
 577 732 610 513 610 363 c 0
 610 197 536 0 351 0 c 2
 108 0 l 1
 108 366 l 1
 43 366 l 1
132 24 m 1
 351 24 l 2
 518 24 586 216 586 364 c 0
 586 600 499 708 351 708 c 2
 132 708 l 1
 132 380 l 1
 291 380 l 1
 291 366 l 1
 132 366 l 1
 132 24 l 1
EndSplineSet
Validated: 1
Substitution2: "'c2sc' Capitals to Small Capitals in Latin lookup 17 subtable" eth.smcp
EndChar

StartChar: Ograve
Encoding: 210 210 71
Width: 675
VWidth: 0
Flags: W
HStem: -4 24<243.453 466.859> 713 24<240.325 465.915> 797 133
VStem: 88 24<191.922 526.072> 216 147 600 24<198.788 533.952>
DStem2: 242 930 216 930 0.707107 -0.707107<0 169.706>
LayerCount: 2
Back
SplineSet
190.5 930 m 29
 285.5 930 l 29
 392.5 797 l 29
 323.5 797 l 29
 190.5 930 l 29
75 361 m 3
 75 704 189.926 737 358 737 c 3
 531.201 737 641 704 641 361 c 3
 641 38 538.295 -4 358 -4 c 3
 177.578 -4 75 28 75 361 c 3
149 361 m 3
 149 103.714 200 70 358 70 c 3
 514 70 567 112 567 361 c 3
 567 660 494 663 358 663 c 3
 224.873 663 149 660 149 361 c 3
EndSplineSet
Fore
Refer: 118 96 N 1 0 0 1 189 266 2
Refer: 32 79 N 1 0 0 1 0 0 3
Validated: 1
Substitution2: "'c2sc' Capitals to Small Capitals in Latin lookup 17 subtable" ograve.smcp
EndChar

StartChar: Oacute
Encoding: 211 211 72
Width: 675
VWidth: 0
Flags: W
HStem: -4 24<243.453 466.859> 713 24<240.325 465.915> 797 133
VStem: 88 24<191.922 526.072> 349 147 600 24<198.788 533.952>
DStem2: 349 797 363 797 0.707107 0.707107<9.8995 179.605>
LayerCount: 2
Back
SplineSet
323.5 797 m 29
 430.5 930 l 29
 525.5 930 l 29
 392.5 797 l 29
 323.5 797 l 29
75 361 m 3
 75 704 189.926 737 358 737 c 3
 531.201 737 641 704 641 361 c 3
 641 38 538.295 -4 358 -4 c 3
 177.578 -4 75 28 75 361 c 3
149 361 m 3
 149 103.714 200 70 358 70 c 3
 514 70 567 112 567 361 c 3
 567 660 494 663 358 663 c 3
 224.873 663 149 660 149 361 c 3
EndSplineSet
Fore
Refer: 120 180 N 1 0 0 1 322 266 2
Refer: 32 79 N 1 0 0 1 0 0 3
Validated: 1
Substitution2: "'c2sc' Capitals to Small Capitals in Latin lookup 17 subtable" oacute.smcp
EndChar

StartChar: Ocircumflex
Encoding: 212 212 73
Width: 675
VWidth: 0
Flags: W
HStem: -4 24<243.453 466.859> 713 24<240.325 465.915> 797 130
VStem: 88 24<191.922 526.072> 220 272 600 24<198.788 533.952>
DStem2: 220 797 238 797 0.712484 0.701689<12.8247 181.867> 372 927 362 912 0.67828 -0.734803<4.23925 164.709>
CounterMasks: 1 1c
LayerCount: 2
Back
SplineSet
212 797 m 5
 329 927 l 5
 400 927 l 5
 504 797 l 5
 433 797 l 5
 362 868 l 5
 284 797 l 5
 212 797 l 5
400 927 m 5
329 927 m 5
75 361 m 3
 75 704 189.926 737 358 737 c 3
 531.201 737 641 704 641 361 c 3
 641 38 538.295 -4 358 -4 c 3
 177.578 -4 75 28 75 361 c 3
149 361 m 3
 149 103.714 200 70 358 70 c 3
 514 70 567 112 567 361 c 3
 567 660 494 663 358 663 c 3
 224.873 663 149 660 149 361 c 3
EndSplineSet
Fore
Refer: 294 710 N 1 0 0 1 152 266 2
Refer: 32 79 N 1 0 0 1 0 0 3
Validated: 1
Substitution2: "'c2sc' Capitals to Small Capitals in Latin lookup 17 subtable" ocircumflex.smcp
EndChar

StartChar: Otilde
Encoding: 213 213 74
Width: 675
VWidth: 0
Flags: W
HStem: -4 24<243.453 466.859> 713 24<240.325 465.915> 797 16<396.832 452.61> 870 16<257.304 314.72>
VStem: 88 24<191.922 526.072> 600 24<198.788 533.952>
LayerCount: 2
Back
SplineSet
189 838 m 17x40
 229 871 266 902 307 902 c 1x40
 357 899 386 868 414 867 c 0
 438 866 473 886 505 903 c 9
 527 861 l 17
 494 836 454 796 412 798 c 0x80
 356 801 341 833 305 832 c 0
 261 831 247 811 210 797 c 25
 189 838 l 17x40
75 361 m 3
 75 704 189.926 737 358 737 c 3
 531.201 737 641 704 641 361 c 3
 641 38 538.295 -4 358 -4 c 3
 177.578 -4 75 28 75 361 c 3
149 361 m 3
 149 103.714 200 70 358 70 c 3
 514 70 567 112 567 361 c 3
 567 660 494 663 358 663 c 3
 224.873 663 149 660 149 361 c 3
EndSplineSet
Fore
Refer: 295 732 N 1 0 0 1 119 256 2
Refer: 32 79 N 1 0 0 1 0 0 3
Validated: 1
Substitution2: "'c2sc' Capitals to Small Capitals in Latin lookup 17 subtable" otilde.smcp
EndChar

StartChar: Odieresis
Encoding: 214 214 75
Width: 675
VWidth: 0
Flags: W
HStem: -4 24<243.453 466.859> 713 24<240.325 465.915> 797 35<211.52 245.48 465.523 500.48>
VStem: 88 24<191.922 526.072> 211.5 34<797.006 831.995> 465.5 35<797.023 831.98> 600 24<198.788 533.952>
LayerCount: 2
Back
SplineSet
435 848 m 4
 435 876 458 898 486 898 c 4
 514 898 536 876 536 848 c 4
 536 820 514 797 486 797 c 4
 458 797 435 820 435 848 c 4
180 848 m 4
 180 876 203 898 231 898 c 4
 259 898 281 876 281 848 c 4
 281 820 259 797 231 797 c 4
 203 797 180 820 180 848 c 4
75 361 m 3
 75 704 189.926 737 358 737 c 3
 531.201 737 641 704 641 361 c 3
 641 38 538.295 -4 358 -4 c 3
 177.578 -4 75 28 75 361 c 3
149 361 m 3
 149 103.714 200 70 358 70 c 3
 514 70 567 112 567 361 c 3
 567 660 494 663 358 663 c 3
 224.873 663 149 660 149 361 c 3
EndSplineSet
Fore
Refer: 119 168 N 1 0 0 1 143.5 233 2
Refer: 32 79 N 1 0 0 1 0 0 3
Validated: 1
Substitution2: "'c2sc' Capitals to Small Capitals in Latin lookup 17 subtable" odieresis.smcp
EndChar

StartChar: Oslash
Encoding: 216 216 76
Width: 675
VWidth: 0
Flags: W
HStem: -4 24<242.92 466.859> 713 24<240.325 468.629>
VStem: 88 24<191.078 526.072> 600 24<198.788 532.404>
DStem2: 112 0 130 0 0.541106 0.840954<9.73991 66.039 97.6369 779.479 811.076 870.44>
LayerCount: 2
Back
SplineSet
214.101 99.8337 m 1
 246.751 75.6281 293.445 70 358 70 c 0
 514 70 567 112 567 361 c 0
 567 480.301 555.378 552.479 532.77 596.144 c 1
 214.101 99.8337 l 1
75 361 m 0
 75 704 186.103 737 358 737 c 0
 430.234 737 491.44 731.26 538.253 699.688 c 1
 559 732 l 1
 620 732 l 1
 576.284 663.914 l 1
 617.939 610.276 641 518.192 641 361 c 0
 641 38 538.295 -4 358 -4 c 0
 281.238 -4 218.567 1.7925 171.891 34.0945 c 1
 150 0 l 1
 89 0 l 1
 134.392 70.6957 l 1
 95.5359 123.268 75 212.004 75 361 c 0
149 361 m 0
 149 253.345 157.929 184.833 179.889 141.556 c 1
 498.365 637.564 l 1
 463.917 662.438 416.858 663 358 663 c 0
 224.873 663 149 660 149 361 c 0
EndSplineSet
Fore
SplineSet
88 361 m 0
 88 704 184 737 356 737 c 0
 440 737 506 729 551 682 c 1
 583 732 l 1
 601 732 l 1
 561 670 l 1
 602 617 624 524 624 361 c 0
 624 38 536 -4 356 -4 c 0
 270 -4 205 3 161 47 c 1
 130 0 l 1
 112 0 l 1
 150 59 l 1
 109 110 88 200 88 361 c 0
112 361 m 0
 112 215 128 131 165 82 c 1
 537 660 l 1
 496 706 435 713 356 713 c 0
 208 713 112 698 112 361 c 0
175 70 m 1
 214 30 272 20 356 20 c 0
 527 20 600 65 600 361 c 0
 600 511 582 597 547 647 c 1
 175 70 l 1
EndSplineSet
Validated: 1
Substitution2: "'c2sc' Capitals to Small Capitals in Latin lookup 17 subtable" oslash.smcp
EndChar

StartChar: ae
Encoding: 230 230 88
Width: 889
VWidth: 0
Flags: W
HStem: -6 24<135.453 263.534 519.043 756.123> 262 23<128.593 372.872 454 778.125> 510 24<534.494 753.572> 519 22<169.375 358.704>
VStem: 54 24<75.768 211.411> 429 25<80.5349 262 287.713 446.576> 811 24<313.586 447.799>
LayerCount: 2
Back
SplineSet
50 132 m 2
 50 172 l 2
 50 252 100 305 183 305 c 2
 183 305 405 304 405 305 c 2
 405 305 406 392 405 393 c 1
 405 454 373 475 323 475 c 0x84fe
 251 475 164 468 67 463 c 1
 67 517 l 1x017e
 141 528 227.001 545.903 326 547 c 0
 378.518 547.582 425.83 529.812 453.498 488.815 c 1
 490.617 532.501 550.711 541 638 541 c 0
 763 541 841 529.142 841 353 c 0
 841 276 800 231 704 231 c 2
 480 231 l 1x20fe
 480 106 503 75 581 75 c 0
 673 75 756 74 831 85 c 1
 831 29 l 1x60fe
 750 6 664 1 581 1 c 0
 494.453 1 462.5 29.5 427 71 c 1
 425 71 274 0 183 0 c 0
 110 0 50 47 50 132 c 2
480 304 m 1
 704 304 l 2
 748 304 767 320 767 353 c 0
 767 458 746.82 467 639 467 c 0
 526 467 480 466 480 304 c 1
124 137 m 2
 124 89 149 74 183 74 c 0
 263 74 405 125 405 125 c 1
 405 253 l 1x847e
 183 237 l 2
 140 233 124 204 124 172 c 2
 124 137 l 2
EndSplineSet
Fore
SplineSet
54 126 m 2xee
 54 155 l 2
 54 240 105 288 187 288 c 2
 187 288 429 287 429 288 c 2
 429 288 430 386 429 387 c 0
 429 456 400 518 299 519 c 0xde
 227 520 162 510 71 496 c 1
 71 510 l 1xee
 128 524 200 540 300 541 c 0xde
 370 542 430 510 448 435 c 1
 468 515 531 534 632 534 c 0
 753 534 835 535 835 359 c 0
 835 280 784 262 698 262 c 2
 454 262 l 1
 452 72 448 20 605 18 c 0
 697 17 750 27 825 38 c 1
 825 22 l 1
 744 -1 688 -6 605 -6 c 0
 475 -6 454 43 444 63 c 1
 442 63 285 -6 187 -6 c 0
 114 -6 54 41 54 126 c 2xee
78 131 m 2
 78 46 138 19 187 18 c 0
 267 16 429 85 429 85 c 1
 429 270 l 1
 187 264 l 2
 106 262 78 216 78 155 c 2
 78 131 l 2
454 285 m 1
 698 285 l 2
 761 285 811 289 811 359 c 0
 811 509 757 510 633 510 c 0xee
 485 510 456 472 454 285 c 1
EndSplineSet
Validated: 33
Substitution2: "'smcp' Lowercase to Small Capitals lookup 16-1" ae.smcp
EndChar

StartChar: ccedilla
Encoding: 231 231 89
Width: 501
VWidth: 0
Flags: W
HStem: -171 7<159 192> -5 24<176.297 378.768> 512 24<174.59 363.559>
VStem: 68 24<138.284 395.204> 274 17<-110.854 -35>
LayerCount: 2
Back
SplineSet
60 266 m 0
 60 498 133 538 235 538 c 3
 287 538 393 523 463 510 c 1
 463 456 l 1
 463 456 324 464 235 464 c 3
 175 464 134 451 134 262 c 3
 134 109 163 67 235 67 c 3
 327 67 470 78 470 78 c 1
 470 22 l 17
 389 -1 318 -6 235 -7 c 3
 136 -7 60 33 60 266 c 0
185 -136 m 25
 238 -121 l 17
 266 -109 270 -75 270 -37 c 1
 337 -37 l 17
 337 -139 316 -173 236 -173 c 2
 185 -173 l 9
 185 -136 l 25
EndSplineSet
Fore
SplineSet
68 266 m 0
 68 498 140 536 242 536 c 3
 294 536 378 524 440 510 c 1
 440 496 l 1
 440 496 331 512 242 512 c 3
 151 512 92 478 92 262 c 3
 92 56 156 19 242 19 c 3
 334 19 448 40 448 40 c 1
 448 24 l 17
 367 1 325 -4 242 -5 c 0
 143 -5 68 33 68 266 c 0
159 -164 m 25
 192 -159 l 18
 245 -151 276 -143 274 -35 c 1
 291 -35 l 17
 291 -135 273 -171 190 -171 c 2
 159 -171 l 9
 159 -164 l 25
EndSplineSet
Validated: 33
Substitution2: "'smcp' Lowercase to Small Capitals lookup 16-1" ccedilla.smcp
EndChar

StartChar: igrave
Encoding: 236 236 94
Width: 186
VWidth: 0
Flags: W
HStem: 0 21<81 105> 511 20<81 105> 596 133
VStem: -47 147 81 24<0 531>
DStem2: -21 729 -47 729 0.707107 -0.707107<0 169.706>
LayerCount: 2
Back
SplineSet
-48 724 m 29
 47 724 l 29
 154 591 l 29
 85 591 l 29
 -48 724 l 29
80 0 m 1
 80 531 l 1
 154 531 l 1
 154 0 l 1
 80 0 l 1
EndSplineSet
Fore
Refer: 118 96 N 1 0 0 1 -74 65 2
Refer: 299 305 N 1 0 0 1 0 0 3
Validated: 1
Substitution2: "'smcp' Lowercase to Small Capitals lookup 16-1" igrave.smcp
EndChar

StartChar: iacute
Encoding: 237 237 95
Width: 186
VWidth: 0
Flags: W
HStem: 0 21<81 105> 511 20<81 105> 596 133
VStem: 81 24<0 531> 86 147
DStem2: 86 596 100 596 0.707107 0.707107<9.8995 179.605>
LayerCount: 2
Back
SplineSet
84 591 m 29
 191 724 l 29
 286 724 l 29
 153 591 l 29
 84 591 l 29
80 0 m 1
 80 531 l 1
 154 531 l 1
 154 0 l 1
 80 0 l 1
EndSplineSet
Fore
Refer: 120 180 N 1 0 0 1 59 65 2
Refer: 299 305 N 1 0 0 1 0 0 3
Validated: 1
Substitution2: "'smcp' Lowercase to Small Capitals lookup 16-1" iacute.smcp
EndChar

StartChar: icircumflex
Encoding: 238 238 96
Width: 186
VWidth: 0
Flags: W
HStem: 0 21<81 105> 511 20<81 105> 596 130
VStem: -43 272 81 24<0 531>
DStem2: -43 596 -25 596 0.712484 0.701689<12.8247 181.867> 109 726 99 711 0.67828 -0.734803<4.23925 164.709>
LayerCount: 2
Back
SplineSet
-27 591 m 5
 90 721 l 5
 161 721 l 5
 265 591 l 5
 194 591 l 5
 123 662 l 5
 45 591 l 5
 -27 591 l 5
161 721 m 5
90 721 m 5
80 0 m 1
 80 531 l 1
 154 531 l 1
 154 0 l 1
 80 0 l 1
EndSplineSet
Fore
Refer: 294 710 N 1 0 0 1 -111 65 2
Refer: 299 305 N 1 0 0 1 0 0 3
Validated: 1
Substitution2: "'smcp' Lowercase to Small Capitals lookup 16-1" icircumflex.smcp
EndChar

StartChar: idieresis
Encoding: 239 239 97
Width: 186
VWidth: 0
Flags: W
HStem: 0 21<81 105> 511 20<81 105> 596 35<-51.4796 -17.52 202.523 237.48>
VStem: -51.5 34<596.006 630.995> 81 24<0 531> 202.5 35<596.023 630.98>
LayerCount: 2
Back
SplineSet
196 642 m 4
 196 670 219 692 247 692 c 4
 275 692 297 670 297 642 c 4
 297 614 275 591 247 591 c 4
 219 591 196 614 196 642 c 4
-59 642 m 4
 -59 670 -36 692 -8 692 c 4
 20 692 42 670 42 642 c 4
 42 614 20 591 -8 591 c 4
 -36 591 -59 614 -59 642 c 4
80 0 m 1
 80 531 l 1
 154 531 l 1
 154 0 l 1
 80 0 l 1
EndSplineSet
Fore
Refer: 119 168 N 1 0 0 1 -119.5 32 2
Refer: 299 305 N 1 0 0 1 0 0 3
Validated: 1
Substitution2: "'smcp' Lowercase to Small Capitals lookup 16-1" idieresis.smcp
EndChar

StartChar: eth
Encoding: 240 240 98
Width: 540
VWidth: 0
Flags: W
HStem: 0 26<160.027 366.93> 507 24<166.927 364.807> 762 21<138 217.856>
VStem: 54 24<138.625 385.377> 458 24<151.336 388.418>
DStem2: 174 634 179 620 0.930346 0.366684<0 165.641 198.4 329.055>
LayerCount: 2
Back
SplineSet
134 264 m 0
 134 85 180 76 238 76 c 2
 338 76 l 2
 423 76 444 146 444 264 c 0
 444 414 422 457 338 457 c 2
 238 457 l 2
 172 457 134 428 134 264 c 0
60 264 m 0
 60 434 103 531 238 531 c 2
 338 531 l 2
 344 531 394 531 408 516 c 1
 394 562 371 611 334 648 c 1
 189 590 l 1
 165 650 l 1
 274 694 l 1
 231 717 181 720 144 718 c 1
 144 783 l 1
 236 783 301 764 353 724 c 1
 471 771 l 1
 496 711 l 1
 405 675 l 1
 505 552 518 360 518 264 c 0
 518 65 445 0 338 0 c 2
 238 0 l 2
 101 0 60 85 60 264 c 0
EndSplineSet
Fore
SplineSet
54 264 m 0
 54 434 97 531 232 531 c 2
 302 531 l 2
 389 531 433 484 442 465 c 1
 431 523 407 617 340 684 c 1
 179 620 l 1
 174 634 l 1
 328 695 l 1
 282 734 225 761 138 762 c 1
 138 783 l 1
 234 783 300 751 352 704 c 1
 480 755 l 1
 486 741 l 1
 364 693 l 1
 461 590 482 415 482 264 c 0
 482 65 409 0 302 0 c 2
 232 0 l 2
 95 0 54 85 54 264 c 0
78 264 m 0
 78 63 135 26 232 26 c 2
 302 26 l 2
 428 26 458 133 458 264 c 0
 458 374 445 507 302 507 c 2
 232 507 l 2
 143 507 78 466 78 264 c 0
EndSplineSet
Validated: 1
Substitution2: "'smcp' Lowercase to Small Capitals lookup 16-1" eth.smcp
EndChar

StartChar: oslash
Encoding: 248 248 105
Width: 573
VWidth: 0
Flags: W
HStem: -5 24<187.677 379.926> 512 24<191.087 378.104>
VStem: 68 24<135.197 387.31> 482 24<140.668 381.386>
DStem2: 78 0 96 0 0.595878 0.803075<10.7258 60.1293 89.4029 582.739 609.81 661.209>
LayerCount: 2
Back
SplineSet
134 258 m 0
 134 196.658 140.846 155.134 154.08 127.058 c 1
 390.703 450.057 l 1
 366.597 460.301 334.805 462 294 462 c 0
 182 462 134 449 134 258 c 0
60 258 m 0
 60 475.146 120 536 294 536 c 0
 354.143 536 400.258 528.472 434.993 510.514 c 1
 450 531 l 1
 516 531 l 1
 476.679 478.007 l 1
 513.951 435.032 528 365.048 528 258 c 0
 528 61.0498 473.437 -5 294 -5 c 0
 227.482 -5 178.113 5.04768 142.323 27.3898 c 1
 122 0 l 1
 61 0 l 1
 105.392 60.5962 l 1
 72.5661 102.752 60 166.938 60 258 c 0
187.277 87.9748 m 1
 213.705 71.2325 249.574 69 294 69 c 0
 401.979 69 454 83 454 258 c 0
 454 336.54 446.677 385.007 429.811 414.842 c 1
 187.277 87.9748 l 1
EndSplineSet
Fore
SplineSet
68 258 m 0
 68 475 127 536 286 536 c 0
 357 536 407 521 441 490 c 1
 472 531 l 1
 490 531 l 1
 451 479 l 1
 492 433 506 360 506 258 c 0
 506 64 454 -5 286 -5 c 0
 210 -5 159 9 125 40 c 1
 96 0 l 1
 78 0 l 1
 115 50 l 1
 79 92 68 159 68 258 c 0
92 258 m 0
 92 164 105 107 131 72 c 1
 427 471 l 1
 393 505 345 512 286 512 c 0
 166 512 92 489 92 258 c 0
140 60 m 1
 173 26 222 19 286 19 c 0
 414 19 482 52 482 258 c 0
 482 360 465 423 436 460 c 1
 140 60 l 1
EndSplineSet
Validated: 1
Substitution2: "'smcp' Lowercase to Small Capitals lookup 16-1" oslash.smcp
EndChar

StartChar: thorn
Encoding: 254 254 106
Width: 562
VWidth: 0
Flags: W
HStem: -10 24<221.744 393.494> 516 24<262.242 386.684> 762 20G<94 118>
VStem: 94 24<-270 29 39.8766 461.618 471 782> 484 24<137.712 382.889>
LayerCount: 2
Back
SplineSet
159 89 m 1
 241 66 301 67 354 64 c 1
 415 64 455 104 455 269 c 0
 455 394 416 466 354 466 c 1
 289 462 221 440 159 416 c 1
 159 89 l 1
85 -270 m 1
 85 782 l 1
 159 782 l 1
 159 471 l 17
 185 490 286 540 354 540 c 3
 490 540 529 403 529 267 c 0
 529 133 508 -10 354 -10 c 3
 309 -10 223 3 159 29 c 1
 159 -270 l 1
 85 -270 l 1
EndSplineSet
Fore
SplineSet
94 -270 m 1
 94 782 l 1
 118 782 l 1
 118 471 l 17
 144 490 266 540 334 540 c 3
 470 540 508 403 508 267 c 0
 508 133 488 -10 334 -10 c 3
 289 -10 182 3 118 29 c 1
 118 -270 l 1
 94 -270 l 1
118 43 m 1
 200 20 249 14 334 14 c 7
 442 14 484 94 484 269 c 0
 484 443 422 516 334 516 c 3
 263 516 180 481 118 457 c 1
 118 43 l 1
EndSplineSet
Validated: 1
Substitution2: "'smcp' Lowercase to Small Capitals lookup 16-1" thorn.smcp
EndChar

StartChar: Thorn
Encoding: 222 222 113
Width: 554
VWidth: 0
Flags: W
HStem: 0 21G<81 105> 149 24<131.468 388.19> 159 14<105 224.241> 564 24<105 386.5>
VStem: 81 24<0 159 173 564 588 729> 474 24<276.192 466.083>
LayerCount: 2
Back
SplineSet
80 0 m 1
 80 243 80 486 80 729 c 1
 154 729 l 1
 154 588 l 1
 351 588 l 2
 430 587 527 554 527 375 c 0
 527 171 425 149 351 149 c 0
 298 149 282 144 154 168 c 1
 154 0 l 1
 80 0 l 1
154 223 m 2
 351 223 l 2
 403 222 452 244 452 377 c 1
 450 508 386 513 351 513 c 1
 154 513 l 1
 154 223 l 2
EndSplineSet
Fore
SplineSet
81 0 m 1xbc
 81 243 81 486 81 729 c 1
 105 729 l 1
 105 588 l 1
 322 588 l 2
 401 588 498 554 498 375 c 0
 498 171 396 149 322 149 c 0xdc
 282 150 140 154 105 159 c 1
 105 0 l 1
 81 0 l 1xbc
105 173 m 2xbc
 322 173 l 6xdc
 416 173 474 220 474 377 c 1
 474 540 388 563 322 564 c 1
 105 564 l 1
 105 173 l 2xbc
EndSplineSet
Validated: 1
Substitution2: "'c2sc' Capitals to Small Capitals in Latin lookup 17 subtable" thorn.smcp
EndChar

StartChar: uni00B5
Encoding: 181 181 114
Width: 620
VWidth: 0
Flags: W
HStem: -8 24<226.782 370.645> 1 21G<508.774 526> 512 20G<122 146 502 526>
VStem: 122 24<-270 69 99.415 532> 502 24<71.5005 532> 512 14<1 44.4>
LayerCount: 2
Back
SplineSet
90 161 m 1
 90 531 l 1
 164 531 l 1
 164 161 l 2
 164 95 203 65 254 65 c 0xb8
 334 65 373 85 450 122 c 1
 450 531 l 1
 524 531 l 1
 524 0 l 1
 472 0 l 1x78
 450 62 l 1
 389 27 335 -9 254 -9 c 0
 218 -9 188 0 164 16 c 1
 164 -270 l 1xb8
 90 -270 l 1
 90 161 l 1
EndSplineSet
Fore
SplineSet
122 162 m 1xb8
 122 532 l 1
 146 532 l 1
 146 162 l 2
 146 83 197 16 286 16 c 0
 374 16 428 37 502 77 c 1
 502 532 l 1
 526 532 l 1xb8
 526 1 l 1
 512 1 l 1x74
 502 63 l 1
 444 25 367 -8 286 -8 c 0
 220 -8 172 24 146 69 c 1
 146 -270 l 1
 122 -270 l 1
 122 162 l 1xb8
EndSplineSet
Validated: 1
EndChar

StartChar: germandbls
Encoding: 223 223 115
Width: 566
VWidth: 0
Flags: W
HStem: -8 24<220.315 449.983> 0 21G<81 105> 753 24<216.546 383.484>
VStem: 81 24<0 641.461> 258 24<313.697 385.16> 517 24<78.7977 214.64>
LayerCount: 2
Back
SplineSet
85 0 m 1x7c
 85 566 l 2
 85 682 166 777 308 777 c 3
 603 777 567 531 458 455 c 1
 401 408 366 388 366 348 c 3
 366 281 575 329 575 179 c 2
 575 132 l 2
 576 23 480 -8 417 -8 c 3
 349 -8 282 7 244 11 c 9
 244 71 l 17
 284 71 351.942 66 421 66 c 27
 461.447 66 499 92 501 132 c 2
 501 179 l 1
 501 256 292 200 292 348 c 3
 292 412 313 438 413 512 c 0
 445 536 463 568 463 612 c 3
 463 688 378.098 703 308 703 c 27xbc
 229.06 703 159 667 159 566 c 2
 159 0 l 1
 85 0 l 1x7c
EndSplineSet
Fore
SplineSet
81 0 m 1x7c
 81 566 l 2
 81 682 147 777 289 777 c 3
 584 777 513 547 404 471 c 1
 331 415 282 400 282 348 c 1
 282 234 540 327 541 179 c 1
 541 132 l 2
 541 41 478 -8 383 -8 c 3xbc
 315 -8 245 0 210 7 c 9
 210 21 l 17x7c
 248 19 314 16 383 16 c 3xbc
 497 16 517 89 517 132 c 2
 517 179 l 1
 519 304 258 203 258 348 c 3
 258 403 291 420 391 490 c 0
 424 513 461 562 471 606 c 0
 493 700 428 753 289 753 c 3
 174 753 105 686 105 566 c 2
 105 0 l 1
 81 0 l 1x7c
EndSplineSet
Validated: 33
Substitution2: "'smcp' Lowercase to Small Capitals lookup 16-1" germandbls.smcp
EndChar

StartChar: asciitilde
Encoding: 126 126 116
Width: 473
VWidth: 0
Flags: W
HStem: 541 16<277.832 333.61> 614 16<138.304 195.72>
LayerCount: 2
Back
SplineSet
50 572 m 17x80
 90 605 114 640 167 640 c 27x40
 211 640 233 605 273 605 c 3
 312 605 340 629 366 645 c 9
 388 603 l 17
 361 578 326 531 273 531 c 27x80
 228 531 203 566 164 566 c 3x40
 125 566 107 545 71 531 c 25
 50 572 l 17x80
EndSplineSet
Fore
SplineSet
68 572 m 21
 102 602 135 630 174 630 c 7
 213 630 268 557 300 557 c 7
 339 557 377 591 400 610 c 13
 406 603 l 21
 373 570 342 541 300 541 c 7
 258 541 207 614 174 614 c 7
 136 614 108 590 72 564 c 13
 68 572 l 21
EndSplineSet
Validated: 1
EndChar

StartChar: asciicircum
Encoding: 94 94 117
Width: 407
VWidth: 0
Flags: W
HStem: 531 130
VStem: 68 272
DStem2: 68 531 86 531 0.712484 0.701689<12.8247 181.867> 220 661 210 646 0.67828 -0.734803<4.23925 164.709>
LayerCount: 2
Back
SplineSet
50 531 m 1
 167 661 l 1
 238 661 l 1
 342 531 l 1
 271 531 l 1
 201 602 l 1
 122 531 l 1
 50 531 l 1
238 661 m 1
167 661 m 1
EndSplineSet
Fore
SplineSet
68 531 m 5
 200 661 l 5
 220 661 l 5
 340 531 l 5
 322 531 l 5
 210 646 l 5
 86 531 l 5
 68 531 l 5
200 661 m 5
220 661 m 5
EndSplineSet
Validated: 1
EndChar

StartChar: grave
Encoding: 96 96 118
Width: 201
VWidth: 0
Flags: W
HStem: 531 133
VStem: 27 147
DStem2: 53 664 27 664 0.707107 -0.707107<0 169.706>
LayerCount: 2
Back
SplineSet
20 664 m 29
 115 664 l 29
 222 531 l 29
 153 531 l 29
 20 664 l 29
EndSplineSet
Fore
SplineSet
27 664 m 25
 53 664 l 25
 174 531 l 25
 160 531 l 25
 27 664 l 25
EndSplineSet
Validated: 1
Substitution2: "'smcp' Lowercase to Small Capitals lookup 16-1" grave.smcp
EndChar

StartChar: dieresis
Encoding: 168 168 119
Width: 424
VWidth: 0
Flags: W
HStem: 564 35<68.0204 101.98 322.023 356.98>
VStem: 68 34<564.006 598.995> 322 35<564.023 598.98>
LayerCount: 2
Back
SplineSet
305 582 m 4
 305 610 328 632 356 632 c 4
 384 632 406 610 406 582 c 4
 406 554 384 531 356 531 c 4
 328 531 305 554 305 582 c 4
50 582 m 4
 50 610 73 632 101 632 c 4
 129 632 151 610 151 582 c 4
 151 554 129 531 101 531 c 4
 73 531 50 554 50 582 c 4
EndSplineSet
Fore
SplineSet
68 582 m 0
 68 592 75 599 85 599 c 0
 95 599 102 592 102 582 c 0
 102 572 95 564 85 564 c 0
 75 564 68 572 68 582 c 0
322 582 m 0
 322 592 330 599 340 599 c 0
 350 599 357 592 357 582 c 0
 357 572 350 564 340 564 c 0
 330 564 322 572 322 582 c 0
EndSplineSet
Validated: 1
Substitution2: "'smcp' Lowercase to Small Capitals lookup 16-1" dieresis.smcp
EndChar

StartChar: acute
Encoding: 180 180 120
Width: 201
VWidth: 0
Flags: W
HStem: 531 133
VStem: 27 147
DStem2: 27 531 41 531 0.707107 0.707107<9.8995 179.605>
LayerCount: 2
Back
SplineSet
20 531 m 29
 127 664 l 29
 222 664 l 29
 89 531 l 29
 20 531 l 29
EndSplineSet
Fore
SplineSet
27 531 m 29
 148 664 l 29
 174 664 l 29
 41 531 l 29
 27 531 l 29
EndSplineSet
Validated: 1
Substitution2: "'smcp' Lowercase to Small Capitals lookup 16-1" acute.smcp
EndChar

StartChar: cedilla
Encoding: 184 184 121
Width: 267
VWidth: 0
Flags: W
HStem: -173 7<68 100>
VStem: 182 17<-112.854 -37>
LayerCount: 2
Back
SplineSet
50 -136 m 25
 103 -121 l 17
 131 -109 135 -75 135 -37 c 1
 202 -37 l 17
 202 -139 181 -173 101 -173 c 2
 50 -173 l 9
 50 -136 l 25
EndSplineSet
Fore
SplineSet
68 -166 m 25
 100 -161 l 18
 153 -153 184 -145 182 -37 c 1
 199 -37 l 17
 199 -137 181 -173 98 -173 c 2
 68 -173 l 9
 68 -166 l 25
EndSplineSet
Validated: 33
EndChar

StartChar: exclam
Encoding: 33 33 122
Width: 260
VWidth: 0
Flags: W
HStem: 0 86<111 146> 711 20G<117 139>
VStem: 111 35<0 86> 122 12<196 731>
LayerCount: 2
Back
SplineSet
82 23 m 2xe0
 82 80 l 2
 82 95 90 105 106 105 c 2
 161 105 l 2
 176 105 184 94 184 80 c 2
 184 23 l 2
 184 8 175 0 161 0 c 2
 106 0 l 2
 92 0 82 9 82 23 c 2xe0
88 731 m 1
 177 731 l 1xd0
 170 196 l 5xc8
 95 196 l 5xc8
 88 731 l 1
EndSplineSet
Fore
SplineSet
111 12 m 6xe0
 111 74 l 6xe0
 111 82 115 86 123 86 c 6
 134 86 l 6xd0
 142 86 146 81 146 74 c 6
 146 12 l 6xe0
 146 4 141 0 134 0 c 6xd0
 123 0 l 6
 116 0 111 5 111 12 c 6xe0
117 731 m 5
 139 731 l 5
 134 196 l 5
 122 196 l 5xd0
 117 731 l 5
EndSplineSet
Validated: 1
Substitution2: "'smcp' Lowercase to Small Capitals lookup 16-1" exclam.smcp
EndChar

StartChar: degree
Encoding: 176 176 123
Width: 338
VWidth: 0
Flags: W
HStem: 530 15<135.531 204.19> 720 15<135.531 204.19>
VStem: 68 14<598.592 665.54> 256 14<598.592 665.54>
LayerCount: 2
Back
SplineSet
97 632 m 31
 97 602 122 578 152 578 c 31
 182 578 206 602 206 632 c 31
 206 662 182 687 152 687 c 31
 122 687 97 662 97 632 c 31
50 632 m 4
 50 689 96 735 152 735 c 4
 208 735 253 689 253 632 c 4
 253 575 208 530 152 530 c 4
 96 530 50 575 50 632 c 4
EndSplineSet
Fore
SplineSet
68 632 m 0
 68 689 114 735 170 735 c 0
 226 735 270 689 270 632 c 0
 270 575 226 530 170 530 c 0
 114 530 68 575 68 632 c 0
82 632 m 31
 82 584 122 545 170 545 c 31
 218 545 256 584 256 632 c 31
 256 680 218 720 170 720 c 31
 122 720 82 680 82 632 c 31
EndSplineSet
Validated: 1
Substitution2: "'smcp' Lowercase to Small Capitals lookup 16-1" degree.smcp
EndChar

StartChar: period
Encoding: 46 46 124
Width: 172
VWidth: 0
Flags: W
HStem: 0 86<69 104>
VStem: 69 35<0 86>
LayerCount: 2
Back
SplineSet
85 23 m 6
 85 80 l 6
 85 95 93 105 109 105 c 6
 162 105 l 6
 180 105 187 96 187 80 c 6
 187 23 l 6
 187 5 176 0 162 0 c 6
 109 0 l 6
 95 0 85 9 85 23 c 6
EndSplineSet
Fore
SplineSet
69 12 m 6
 69 74 l 6
 69 82 73 86 81 86 c 6
 92 86 l 6
 100 86 104 81 104 74 c 6
 104 12 l 6
 104 4 99 0 92 0 c 6
 81 0 l 6
 74 0 69 5 69 12 c 6
EndSplineSet
Validated: 1
EndChar

StartChar: periodcentered
Encoding: 183 183 125
Width: 264
VWidth: 0
Flags: W
HStem: 364 36<115 150>
VStem: 115 35<364 400>
LayerCount: 2
Back
SplineSet
85 354 m 6
 85 411 l 6
 85 426 93 436 109 436 c 6
 162 436 l 6
 180 436 187 427 187 411 c 6
 187 354 l 6
 187 336 176 331 162 331 c 6
 109 331 l 6
 95 331 85 340 85 354 c 6
EndSplineSet
Fore
SplineSet
115 376 m 2
 115 388 l 2
 115 396 119 400 127 400 c 2
 138 400 l 2
 146 400 150 395 150 388 c 2
 150 376 l 2
 150 368 145 364 138 364 c 2
 127 364 l 2
 120 364 115 369 115 376 c 2
EndSplineSet
Validated: 1
Substitution2: "'smcp' Lowercase to Small Capitals lookup 16-1" periodcentered.smcp
EndChar

StartChar: comma
Encoding: 44 44 126
Width: 171
VWidth: 0
Flags: W
HStem: -68 6<71 81.8337>
VStem: 69 34<0 88> 87 16<-60.4124 0>
LayerCount: 2
Back
SplineSet
85 25 m 6xc0
 85 79 l 6
 85 97 94 106 110 106 c 6
 161 106 l 6
 179 106 185 94 185 79 c 6xc0
 185 -11 l 6
 185 -106 90 -88 90 -88 c 5
 90 -56 l 4
 120 -57 121 -36 121 -25 c 6
 121 0 l 5xa0
 110 0 l 6
 96 0 85 8 85 25 c 6xc0
EndSplineSet
Fore
SplineSet
69 13 m 2xc0
 69 75 l 6
 69 84 73 88 81 88 c 6
 91 88 l 6
 100 88 103 83 103 75 c 6xc0
 103 -37 l 2
 103 -77 71 -68 71 -68 c 1
 71 -62 l 0
 86 -62 87 -53 87 -47 c 2
 87 0 l 1xa0
 81 0 l 2
 74 0 69 5 69 13 c 2xc0
EndSplineSet
Validated: 33
EndChar

StartChar: bullet
Encoding: 256 8226 127
Width: 321
VWidth: 0
Flags: W
HStem: 334 97<116.813 205.484>
VStem: 115 92<335.452 429.326>
LayerCount: 2
Back
SplineSet
85 341 m 2
 85 421 l 2
 85 442 96 456 118 456 c 2
 192 456 l 2
 217 456 227 443 227 421 c 2
 227 341 l 2
 227 317 212 309 192 309 c 2
 118 309 l 2
 98 309 85 321 85 341 c 2
EndSplineSet
Fore
SplineSet
115 366 m 2
 115 396 l 2
 115 417 126 431 148 431 c 2
 172 431 l 2
 197 431 207 418 207 396 c 2
 207 366 l 2
 207 342 192 334 172 334 c 2
 148 334 l 2
 128 334 115 346 115 366 c 2
EndSplineSet
Validated: 1
Substitution2: "'smcp' Lowercase to Small Capitals lookup 16-1" bullet.smcp
EndChar

StartChar: quoteleft
Encoding: 257 8216 128
Width: 169
VWidth: 0
Flags: W
HStem: 724 7<89.9349 102.8>
VStem: 64.7998 41.0002<573 667.996 715.161 720.677> 64.7998 19<668 722.634>
LayerCount: 2
Back
SplineSet
80 613.068 m 2xa0
 80 712.068 l 2
 80 728.568 86.5996 741.768 106.4 741.768 c 2
 162.5 741.768 l 2
 180.1 741.768 190 731.868 190 712.068 c 2
 190 652.668 l 2xc0
 190 633.968 177.9 625.168 162.5 625.168 c 2
 150.4 625.168 l 1
 150.4 597.668 l 2
 150.4 585.568 151.5 562.468 184.5 563.568 c 0xa0
 184.5 528.368 l 1
 184.5 528.368 80 508.568 80 613.068 c 2xa0
EndSplineSet
Fore
SplineSet
64.7998 589 m 6xc0
 64.7998 693 l 2
 64.7998 742 102.8 731 102.8 731 c 1
 102.8 724 l 0
 84.7998 725 83.7998 712 83.7998 705 c 2
 83.7998 668 l 5xa0
 90.7998 668 l 6
 98.7998 668 105.8 662 105.8 652 c 6
 105.8 589 l 6
 105.8 578 100.8 573 90.7998 573 c 6
 78.7998 573 l 6
 67.7998 573 64.7998 580 64.7998 589 c 6xc0
EndSplineSet
Validated: 33
Substitution2: "'smcp' Lowercase to Small Capitals lookup 16-1" quoteleft.smcp
EndChar

StartChar: quoteright
Encoding: 258 8217 129
Width: 169
VWidth: 0
Flags: W
HStem: 574 7<67.2002 80.919> 712 20G<75.2002 96.7001>
VStem: 67.2002 37.9998<584.547 598.668 637 732> 86.2002 18.9998<582.508 637>
LayerCount: 2
Back
SplineSet
80 652.668 m 2
 80 712.068 l 2
 80 731.868 89.9004 741.768 107.5 741.768 c 2
 163.6 741.768 l 2
 183.4 741.768 190 728.568 190 712.068 c 2xc0
 190 613.068 l 2
 190 508.568 85.5 528.368 85.5 528.368 c 1
 85.5 563.568 l 0xa0
 118.5 562.468 119.6 585.568 119.6 597.668 c 2
 119.6 625.168 l 1xa0
 107.5 625.168 l 2
 92.0996 625.168 80 633.968 80 652.668 c 2
EndSplineSet
Fore
SplineSet
64.2002 652 m 2xd0
 65.2002 716 l 2
 65.3721 726.999 70.2002 732 80.2002 732 c 2
 91.2002 732 l 2
 102.2 732 106.286 724.999 106.2 716 c 2
 105.2 611 l 2xd0
 105.2 562 67.2002 574 67.2002 574 c 1
 67.2002 581 l 0xe0
 85.2002 580 86.2002 592 86.2002 599 c 2
 86.2002 637 l 1
 79.2002 637 l 2
 71.2002 637 64.2002 642 64.2002 652 c 2xd0
EndSplineSet
Validated: 33
Substitution2: "'smcp' Lowercase to Small Capitals lookup 16-1" quoteright.smcp
EndChar

StartChar: quotesinglbase
Encoding: 259 8218 130
Width: 169
VWidth: 0
Flags: W
HStem: -64 7<67.7998 80.6649>
VStem: 64.7998 41.0002<-53.6773 -48.161 0 95> 86.7998 19.0002<-55.6341 0>
LayerCount: 2
Back
SplineSet
80 26.668 m 6
 80 86.0684 l 6
 80 105.868 89.9004 115.768 107.5 115.768 c 6
 163.6 115.768 l 6
 183.4 115.768 190 102.568 190 86.0684 c 6xc0
 190 -12.9316 l 6
 190 -117.432 85.5 -97.6318 85.5 -97.6318 c 5
 85.5 -62.4316 l 4xa0
 118.5 -63.5322 119.6 -40.4316 119.6 -28.332 c 6
 119.6 -0.832031 l 5xa0
 107.5 -0.832031 l 6
 92.0996 -0.832031 80 7.96777 80 26.668 c 6
EndSplineSet
Fore
SplineSet
64.7998 15 m 2xc0
 64.7998 78 l 2
 64.7998 89 69.7998 95 79.7998 95 c 2
 90.7998 95 l 2
 101.8 95 105.8 87 105.8 78 c 2xc0
 105.8 -26 l 2
 105.8 -75 67.7998 -64 67.7998 -64 c 1
 67.7998 -57 l 0
 85.7998 -58 86.7998 -45 86.7998 -38 c 2
 86.7998 0 l 1xa0
 79.7998 0 l 2
 71.7998 0 64.7998 5 64.7998 15 c 2xc0
EndSplineSet
Validated: 33
Substitution2: "'smcp' Lowercase to Small Capitals lookup 16-1" quotesinglbase.smcp
EndChar

StartChar: quotedblright
Encoding: 260 8221 131
Width: 254
VWidth: 0
Flags: W
HStem: 574 7<62.4004 75.2653 158.4 172.119> 637 95<59.4004 80.4004 155.4 177.4>
VStem: 59.4004 40.9996<583.497 591.522 637 731.995> 80.4004 19.9996<582.508 637> 155.4 41<583.497 589.2 637.004 731.995> 177.4 19<582.508 637>
LayerCount: 2
Back
SplineSet
235.4 652.668 m 6
 235.4 712.068 l 6
 235.4 731.868 245.3 741.768 262.9 741.768 c 6
 319 741.768 l 6
 338.8 741.768 345.4 728.568 345.4 712.068 c 6xc8
 345.4 613.068 l 6
 345.4 508.568 240.9 528.368 240.9 528.368 c 5
 240.9 563.568 l 4xc4
 273.9 562.468 275 585.568 275 597.668 c 6
 275 625.168 l 5xc4
 262.9 625.168 l 6
 247.5 625.168 235.4 633.968 235.4 652.668 c 6
72.5996 652.668 m 6
 72.5996 712.068 l 6
 72.5996 731.868 82.5 741.768 100.1 741.768 c 6
 156.2 741.768 l 6
 176 741.768 182.6 728.568 182.6 712.068 c 6xe0
 182.6 613.068 l 6xd0
 182.6 508.568 78.0996 528.368 78.0996 528.368 c 5
 78.0996 563.568 l 4
 111.1 562.468 112.2 585.568 112.2 597.668 c 6
 112.2 625.168 l 5xd0
 100.1 625.168 l 6
 84.7002 625.168 72.5996 633.968 72.5996 652.668 c 6
EndSplineSet
Fore
SplineSet
59.4004 652 m 2xe0
 59.4004 716 l 2
 59.4004 727 64.4004 732 74.4004 732 c 2
 85.4004 732 l 2
 96.4004 732 100.4 725 100.4 716 c 2xe0
 100.4 611 l 2
 100.4 562 62.4004 574 62.4004 574 c 1
 62.4004 581 l 0
 80.4004 580 80.4004 592 80.4004 599 c 2
 80.4004 637 l 1xd0
 74.4004 637 l 2
 66.4004 637 59.4004 642 59.4004 652 c 2xe0
155.4 652 m 2xc8
 155.4 716 l 2
 155.4 727 160.4 732 170.4 732 c 2
 182.4 732 l 2
 193.4 732 196.4 725 196.4 716 c 2xc8
 196.4 611 l 2
 196.4 562 158.4 574 158.4 574 c 1
 158.4 581 l 0
 176.4 580 177.4 592 177.4 599 c 2
 177.4 637 l 1xc4
 170.4 637 l 2
 162.4 637 155.4 642 155.4 652 c 2xc8
EndSplineSet
Validated: 33
Substitution2: "'smcp' Lowercase to Small Capitals lookup 16-1" quotedblright.smcp
EndChar

StartChar: quotedblbase
Encoding: 261 8222 132
Width: 254
VWidth: 0
Flags: W
HStem: -62 7<62.4004 75.2653 158.4 171.265> 2 95<59.4004 80.4004 155.4 177.4>
VStem: 59.4004 40.9996<-51.6773 -43.71 2 97> 80.4004 19.9996<-53.6341 2> 155.4 41<-51.6773 -46.161 2 97> 177.4 19<-53.6341 2>
LayerCount: 2
Back
SplineSet
235.4 26.668 m 2
 235.4 86.0684 l 2
 235.4 105.868 245.3 115.768 262.9 115.768 c 2
 319 115.768 l 2
 338.8 115.768 345.4 102.568 345.4 86.0684 c 2xc8
 345.4 -12.9316 l 2
 345.4 -117.432 240.9 -97.6318 240.9 -97.6318 c 1
 240.9 -62.4316 l 0xc4
 273.9 -63.5322 275 -40.4316 275 -28.332 c 2
 275 -0.832031 l 1xc4
 262.9 -0.832031 l 2
 247.5 -0.832031 235.4 7.96777 235.4 26.668 c 2
72.5996 26.668 m 2
 72.5996 86.0684 l 2
 72.5996 105.868 82.5 115.768 100.1 115.768 c 2
 156.2 115.768 l 2
 176 115.768 182.6 102.568 182.6 86.0684 c 2xe0
 182.6 -12.9316 l 2xd0
 182.6 -117.432 78.0996 -97.6318 78.0996 -97.6318 c 1
 78.0996 -62.4316 l 0
 111.1 -63.5322 112.2 -40.4316 112.2 -28.332 c 2
 112.2 -0.832031 l 1xd0
 100.1 -0.832031 l 2
 84.7002 -0.832031 72.5996 7.96777 72.5996 26.668 c 2
EndSplineSet
Fore
SplineSet
59.4004 17 m 2xe0
 59.4004 80 l 2
 59.4004 91 64.4004 97 74.4004 97 c 2
 85.4004 97 l 2
 96.4004 97 100.4 89 100.4 80 c 2xe0
 100.4 -24 l 2
 100.4 -73 62.4004 -62 62.4004 -62 c 1
 62.4004 -55 l 0
 80.4004 -56 80.4004 -43 80.4004 -36 c 2
 80.4004 2 l 1xd0
 74.4004 2 l 2
 66.4004 2 59.4004 7 59.4004 17 c 2xe0
155.4 17 m 2xc8
 155.4 80 l 2
 155.4 91 160.4 97 170.4 97 c 2
 182.4 97 l 2
 193.4 97 196.4 89 196.4 80 c 2xc8
 196.4 -24 l 2
 196.4 -73 158.4 -62 158.4 -62 c 1
 158.4 -55 l 0
 176.4 -56 177.4 -43 177.4 -36 c 2
 177.4 2 l 1xc4
 170.4 2 l 2
 162.4 2 155.4 7 155.4 17 c 2xc8
EndSplineSet
Validated: 33
Substitution2: "'smcp' Lowercase to Small Capitals lookup 16-1" quotedblbase.smcp
EndChar

StartChar: colon
Encoding: 58 58 133
Width: 177
VWidth: 0
Flags: HW
HStem: 0 86<74 109> 444 86<69 104>
VStem: 69 35<0.59375 85.6455 444 530>
LayerCount: 2
Back
SplineSet
85 450 m 6
 85 507 l 6
 85 522 93 532 109 532 c 6
 162 532 l 6
 180 532 187 523 187 507 c 6
 187 450 l 6
 187 432 176 427 162 427 c 6
 109 427 l 6
 95 427 85 436 85 450 c 6
85 23 m 6
 85 80 l 6
 85 95 93 105 109 105 c 6
 162 105 l 6
 180 105 187 96 187 80 c 6
 187 23 l 6
 187 5 176 0 162 0 c 6
 109 0 l 6
 95 0 85 9 85 23 c 6
EndSplineSet
Fore
SplineSet
69 12 m 2
 69 74 l 2
 69 82 73 86 81 86 c 2
 92 86 l 2
 100 86 104 81 104 74 c 2
 104 12 l 2
 104 4 99 0 92 0 c 2
 81 0 l 2
 74 0 69 5 69 12 c 2
69 455 m 2
 69 518 l 2
 69 526 73 530 81 530 c 2
 92 530 l 2
 100 530 104 525 104 518 c 2
 104 455 l 2
 104 447 99 444 92 444 c 2
 81 444 l 2
 74 444 69 448 69 455 c 2
EndSplineSet
EndChar

StartChar: semicolon
Encoding: 59 59 134
Width: 172
VWidth: 0
Flags: HW
HStem: -68 6<71 81.8337> 444 86<69.0036 104>
VStem: 69 34<0 88 444 530> 87 16<-60.4124 0>
LayerCount: 2
Back
SplineSet
87 451 m 2xe0
 87 508 l 2
 87 523 95 533 111 533 c 2
 164 533 l 2
 182 533 189 524 189 508 c 2
 189 451 l 2
 189 433 178 428 164 428 c 2
 111 428 l 2
 97 428 87 437 87 451 c 2xe0
85 25 m 2
 85 79 l 2
 85 93 95 106 110 106 c 2
 161 106 l 2
 176 106 185 94 185 79 c 2
 185 -11 l 2xd0
 185 -106 90 -88 90 -88 c 1
 90 -56 l 0
 120 -57 121 -36 121 -25 c 2
 121 0 l 1
 110 0 l 2
 96 0 85 13 85 25 c 2
EndSplineSet
Fore
SplineSet
69 13 m 2xe0
 69 75 l 2
 69 84 73 88 81 88 c 2
 91 88 l 2
 100 88 103 83 103 75 c 2xe0
 103 -37 l 2
 103 -77 71 -68 71 -68 c 1
 71 -62 l 0
 86 -62 87 -53 87 -47 c 2
 87 0 l 1xd0
 81 0 l 2
 74 0 69 5 69 13 c 2xe0
69 455 m 2
 69 518 l 2
 69 526 73 530 81 530 c 2
 92 530 l 2
 100 530 104 525 104 518 c 2
 104 455 l 2
 104 447 99 444 92 444 c 2
 81 444 l 2
 74 444 69 448 69 455 c 2
EndSplineSet
EndChar

StartChar: quotedbl
Encoding: 34 34 135
Width: 262
VWidth: 0
Flags: W
HStem: 531 201<76 88 176 188>
VStem: 69 25<531 732> 169 25<531 732>
LayerCount: 2
Back
SplineSet
220 665 m 1
 220 732 l 1
 295 732 l 1
 295 665 l 1
 285 531 l 1
 231 531 l 1
 220 665 l 1
85 665 m 1
 85 732 l 1
 160 732 l 1
 160 665 l 1
 150 531 l 1
 96 531 l 1
 85 665 l 1
EndSplineSet
Fore
SplineSet
69 665 m 1
 69 732 l 1
 94 732 l 1
 94 665 l 1
 88 531 l 1
 76 531 l 1
 69 665 l 1
169 665 m 1
 169 732 l 1
 194 732 l 1
 194 665 l 1
 188 531 l 1
 176 531 l 1
 169 665 l 1
EndSplineSet
Validated: 1
Substitution2: "'smcp' Lowercase to Small Capitals lookup 16-1" quotedbl.smcp
EndChar

StartChar: exclamdown.alt
Encoding: 262 -1 136
Width: 260
VWidth: 0
Flags: W
HStem: 0 21G<118 140> 645 86<111 146>
VStem: 111 35<645 731> 118 22<0 535>
LayerCount: 2
Back
SplineSet
89 654 m 2
 89 708 l 2
 89 722 99 730 113 731 c 1
 162 731 l 1
 174 730 186 719 186 705 c 2
 186 654 l 1xf0
 185 642 179 633 166 629 c 1
 110 629 l 1
 97 630 90 640 89 654 c 2
87 0 m 1
 98 531 l 1
 173 531 l 1xe8
 184 0 l 1
 87 0 l 1
EndSplineSet
Fore
SplineSet
111 657 m 2xe0
 111 719 l 2
 111 727 116 731 123 731 c 2
 134 731 l 2
 141 731 146 726 146 719 c 2
 146 657 l 2
 146 649 142 645 134 645 c 2
 123 645 l 2
 115 645 111 650 111 657 c 2xe0
118 0 m 1xd0
 123 535 l 1
 135 535 l 1
 140 0 l 1
 118 0 l 1xd0
EndSplineSet
Validated: 1
EndChar

StartChar: zero
Encoding: 48 48 137
Width: 662
VWidth: 0
Flags: W
HStem: 0 24<198.235 469.778> 708 24<199.047 469.466>
VStem: 94 24<98.4243 629.128> 544 24<95.3073 633.703>
LayerCount: 2
Back
SplineSet
144 162 m 2
 144 95 194 74 242 74 c 10
 406 74 l 18
 470 74 499 108 499 162 c 2
 499 570 l 2
 499 616 480 658 406 658 c 2
 242 658 l 2
 172 658 144 618 144 570 c 2
 144 162 l 2
70 162 m 10
 70 570 l 2
 70 678 147 732 242 732 c 2
 406 732 l 2
 528 732 573 656 573 570 c 26
 573 162 l 18
 573 43 505 0 406 0 c 2
 242 0 l 2
 151 0 70 42 70 162 c 10
EndSplineSet
Fore
SplineSet
94 162 m 10
 94 570 l 2
 94 678 171 732 266 732 c 2
 400 732 l 2
 522 732 568 661 568 570 c 26
 568 162 l 18
 568 43 499 0 400 0 c 2
 266 0 l 2
 175 0 94 42 94 162 c 10
118 162 m 2
 118 70 176 24 266 24 c 10
 400 24 l 18
 504 24 544 77 544 162 c 2
 544 570 l 2
 544 660 496 708 400 708 c 2
 266 708 l 2
 177 708 118 658 118 570 c 2
 118 162 l 2
EndSplineSet
Validated: 1
Substitution2: "'dnom' Denominators lookup 0 subtable" zero.denominator
Substitution2: "'sups' Superscript lookup 2 subtable" zerosuperior
Substitution2: "'onum' Oldstyle Figures in Latin lookup 5-1" zero.oldstyle
Substitution2: "'tnum' Tabular Numbers in Latin lookup 7-1" zero.tnum
Substitution2: "'numr' Numerators lookup 9 subtable" zero.numerator
Substitution2: "'zero' Slashed Zero lookup 20-1" uni0338
Substitution2: "'sinf' Scientific Inferiors lookup 3-1" zeroinferior
Substitution2: "'frac' Diagonal Fractions lookup 13-1" zero.numerator
Substitution2: "'smcp' Lowercase to Small Capitals lookup 16-1" zero.smcp
EndChar

StartChar: one
Encoding: 49 49 138
Width: 354
VWidth: 0
Flags: W
HStem: 0 21G<222 246> 712 20G<182.471 246>
VStem: 222 24<0 705>
LayerCount: 2
Back
SplineSet
30 594 m 1
 30 647 l 1
 198 732 l 1
 272 732 l 1
 272 0 l 1
 198 0 l 1
 198 648 l 1
 30 594 l 1
EndSplineSet
Fore
SplineSet
54 634 m 1
 54 647 l 1
 222 732 l 1
 246 732 l 1
 246 0 l 1
 222 0 l 1
 222 705 l 1
 54 634 l 1
EndSplineSet
Validated: 1
Substitution2: "'dnom' Denominators lookup 0 subtable" one.denominator
Substitution2: "'sups' Superscript lookup 2 subtable" onesuperior
Substitution2: "'onum' Oldstyle Figures in Latin lookup 5-1" one.oldstyle
Substitution2: "'tnum' Tabular Numbers in Latin lookup 7-1" one.tnum
Substitution2: "'numr' Numerators lookup 9 subtable" one.numerator
Substitution2: "'sinf' Scientific Inferiors lookup 3-1" oneinferior
Substitution2: "'frac' Diagonal Fractions lookup 13-1" one.numerator
Substitution2: "'smcp' Lowercase to Small Capitals lookup 16-1" one.smcp
EndChar

StartChar: two
Encoding: 50 50 139
Width: 598
VWidth: 0
Flags: W
HStem: 0 24<100 531> 717 25<138.065 406.608> 717 15<54 138.065>
VStem: 506 25<476.958 616.5>
LayerCount: 2
Back
SplineSet
40 667 m 6
 40 722 l 5xb0
 142 735 233 742 344 742 c 3
 489 742 547 634 547 532 c 3xd0
 547 335.997 262 123 190 74 c 9
 547 74 l 25
 547 0 l 25
 47 0 l 25
 47 68 l 17
 156 142 472 368 472 534 c 3
 472 607 435 667 343 667 c 2xd0
 40 667 l 6
EndSplineSet
Fore
SplineSet
54 717 m 2xb0
 54 732 l 1xb0
 157 745 277 742 328 742 c 3
 475 742 531 656 531 532 c 3
 531 351 151 63 100 24 c 9
 531 24 l 25
 531 0 l 25
 61 0 l 25
 61 23 l 17
 159 102 506 367 506 533 c 3
 506 672 435 717 326 717 c 2xd0
 54 717 l 2xb0
EndSplineSet
Validated: 33
Substitution2: "'dnom' Denominators lookup 0 subtable" two.denominator
Substitution2: "'sups' Superscript lookup 2 subtable" twosuperior
Substitution2: "'onum' Oldstyle Figures in Latin lookup 5-1" two.oldstyle
Substitution2: "'tnum' Tabular Numbers in Latin lookup 7-1" two.tnum
Substitution2: "'numr' Numerators lookup 9 subtable" two.numerator
Substitution2: "'sinf' Scientific Inferiors lookup 3-1" twoinferior
Substitution2: "'frac' Diagonal Fractions lookup 13-1" two.numerator
Substitution2: "'smcp' Lowercase to Small Capitals lookup 16-1" two.smcp
EndChar

StartChar: three
Encoding: 51 51 140
Width: 600
VWidth: 0
Flags: W
HStem: -7 25<133.227 397.034> 4 14<48 120.408> 352 27<108 382.346> 359 14<108 322> 710 24<139.789 392.455> 710 14<40 97.7643>
VStem: 476 24<100.422 267.786 448.722 629.609>
LayerCount: 2
Back
SplineSet
50 660 m 5
 50 706 l 5x06
 138 737 251 736 368 734 c 4
 478 732 539 661 539 569 c 6
 539 500 l 6
 539 427 513 380 473 364 c 5
 514 338 539 296 539 220 c 6
 539 161 l 6
 539 52 483 -7 361 -7 c 4x8a
 247 -7 144 -10 56 21 c 5
 57 68 l 5x42
 355 68 l 6
 408 68 463 77 463 161 c 6
 463 220 l 6
 463 298 415 324 361 326 c 6xa2
 118 333 l 6
 118 391 l 5x12
 361 401 l 6x22
 430 404 465 439 465 500 c 6
 465 569 l 6
 465 634 413 660 361 660 c 6x2a
 50 660 l 5
EndSplineSet
Fore
SplineSet
40 710 m 5x06
 40 724 l 5x06
 100 735 211 736 328 734 c 4
 447 732 500 661 500 569 c 6
 500 500 l 6
 500 395 410 367 380 365 c 5
 412 360 500 324 500 220 c 5
 500 161 l 6
 500 52 444 -7 322 -7 c 4x8a
 208 -7 85 -4 46 4 c 5
 48 18 l 5x42
 320 18 l 6
 399 18 474 44 474 161 c 6
 474 220 l 6
 474 320 379 350 322 352 c 6xa2
 108 359 l 6
 108 373 l 5x12
 322 379 l 5
 400 380 476 415 476 500 c 6
 476 569 l 6
 476 668 408 710 326 710 c 6x2a
 40 710 l 5x06
EndSplineSet
Validated: 33
Substitution2: "'dnom' Denominators lookup 0 subtable" three.denominator
Substitution2: "'sups' Superscript lookup 2 subtable" threesuperior
Substitution2: "'onum' Oldstyle Figures in Latin lookup 5-1" three.oldstyle
Substitution2: "'tnum' Tabular Numbers in Latin lookup 7-1" three.tnum
Substitution2: "'numr' Numerators lookup 9 subtable" three.numerator
Substitution2: "'sinf' Scientific Inferiors lookup 3-1" threeinferior
Substitution2: "'frac' Diagonal Fractions lookup 13-1" three.numerator
Substitution2: "'smcp' Lowercase to Small Capitals lookup 16-1" three.smcp
EndChar

StartChar: four
Encoding: 52 52 141
Width: 575
VWidth: 0
Flags: W
HStem: 2 21G<434 458> 212 24<56 434 458 521> 222 14<485 548> 712 20G<321.596 361>
VStem: 434 24<2 212 236 524.5> 444 14<494.5 547>
DStem2: 27 237 56 236 0.527064 0.849826<14.435 582.472>
LayerCount: 2
Back
SplineSet
20 224 m 5
 341 732 l 5
 429 732 l 5
 135 265 l 5
 419 265 l 5
 419 472 l 5xd8
 456 547 l 5
 493 547 l 5
 493 265 l 5
 583 265 l 5
 583 206 l 5xb8
 493 187 l 5
 493 2 l 5
 419 2 l 5
 419 187 l 5
 54 187 l 5
 20 224 l 5
EndSplineSet
Fore
SplineSet
27 237 m 5xd8
 334 732 l 5
 361 732 l 5
 56 236 l 5
 434 236 l 5
 434 472 l 5xd8
 444 547 l 5
 458 547 l 5xd4
 458 236 l 5xd8
 548 236 l 5
 548 222 l 5xb8
 458 212 l 5
 458 2 l 5
 434 2 l 5
 434 212 l 5
 39 212 l 5
 27 237 l 5xd8
EndSplineSet
Validated: 1
Substitution2: "'dnom' Denominators lookup 0 subtable" four.denominator
Substitution2: "'sups' Superscript lookup 2 subtable" foursuperior
Substitution2: "'onum' Oldstyle Figures in Latin lookup 5-1" four.oldstyle
Substitution2: "'tnum' Tabular Numbers in Latin lookup 7-1" four.tnum
Substitution2: "'numr' Numerators lookup 9 subtable" four.numerator
Substitution2: "'sinf' Scientific Inferiors lookup 3-1" fourinferior
Substitution2: "'frac' Diagonal Fractions lookup 13-1" four.numerator
Substitution2: "'smcp' Lowercase to Small Capitals lookup 16-1" four.smcp
EndChar

StartChar: five
Encoding: 53 53 142
Width: 649
VWidth: 0
Flags: W
HStem: -4 24<216.497 464.312> 6 14<103 184.796> 407 24<205.441 469.739> 708 24<149 549>
VStem: 104 24<282 329.375> 546 24<104.216 330.535>
LayerCount: 2
Back
SplineSet
76.5 20 m 5
 76.5 75 l 5x7c
 380.5 75 l 6
 449.5 75 469.5 124 469.5 168 c 6
 469.5 278 l 6
 469.5 311 469.5 372 380.5 372 c 6
 226.5 372 l 6
 187.5 372 143.5 351 143.5 297 c 5
 77.5 297 l 5
 99.5 732 l 21
 522.5 732 l 5
 522.5 658 l 5
 168.5 658 l 29
 155.5 416 l 5xbc
 169.371 433.244 197.576 441.776 230 445.703 c 5
 284.068 452.252 349.869 446 380.5 446 c 4
 498.5 446 543.5 377 543.5 280 c 6
 543.5 166 l 6
 543.5 29 442.5 -4 380.5 -4 c 7xbc
 256.303 -4 210.5 -3 76.5 20 c 5
EndSplineSet
Fore
SplineSet
103 6 m 1x7c
 103 20 l 1x7c
 407 20 l 2
 477 20 546 68 546 168 c 2
 546 263 l 2
 546 313 532 407 406 407 c 2
 253 407 l 2
 193 407 128 348 128 282 c 1
 104 282 l 1
 126 732 l 17
 549 732 l 1
 549 708 l 1
 149 708 l 25
 132 365 l 1
 140 380 184 431 256 431 c 0
 329 431 376 431 407 431 c 0
 525 431 570 362 570 265 c 2
 570 166 l 2
 570 29 469 -4 407 -4 c 3xbc
 283 -4 175 -4 103 6 c 1x7c
EndSplineSet
Validated: 1
Substitution2: "'dnom' Denominators lookup 0 subtable" five.denominator
Substitution2: "'sups' Superscript lookup 2 subtable" fivesuperior
Substitution2: "'onum' Oldstyle Figures in Latin lookup 5-1" five.oldstyle
Substitution2: "'tnum' Tabular Numbers in Latin lookup 7-1" five.tnum
Substitution2: "'numr' Numerators lookup 9 subtable" five.numerator
Substitution2: "'sinf' Scientific Inferiors lookup 3-1" fiveinferior
Substitution2: "'frac' Diagonal Fractions lookup 13-1" five.numerator
Substitution2: "'smcp' Lowercase to Small Capitals lookup 16-1" five.smcp
EndChar

StartChar: six
Encoding: 54 54 143
Width: 636
VWidth: 0
Flags: W
HStem: -1 24<222.704 465.91> 380 25<205.125 474.793> 380 14<112 200.397> 714 24<218.013 449.941> 714 15<397.444 532>
VStem: 88 24<215.427 380 394 530.747> 533 23<88.715 322.203>
LayerCount: 2
Back
SplineSet
75 384 m 0
 75 649 164 738 247 738 c 0xd6
 348 738 454 732 549 719 c 1
 549 664 l 1x8e
 260 664 l 2
 169 664 151 491 149 407 c 1xb6
 234 417 338 428 412 428 c 0
 548 428 573 357 573 279 c 2
 573 148 l 2
 573 36 506 -1 412 -1 c 2
 263 -1 l 2
 154 0 75 69 75 384 c 0
149 354 m 1xa6
 149 260 153 73 263 73 c 2
 412 73 l 2
 463 73 500 83 500 154 c 2
 500 279 l 2
 500 340 458 354 412 354 c 2xc6
 149 354 l 1xa6
EndSplineSet
Fore
SplineSet
88 384 m 4xc6
 88 642 168 738 260 738 c 4xd6
 361 738 471 736 532 729 c 5
 532 714 l 5x8e
 263 714 l 6
 136 714 112 506 112 394 c 5xb6
 197 404 321 405 395 405 c 4
 529 405 556 341 556 259 c 6
 556 148 l 6
 556 36 489 -1 395 -1 c 6
 276 -1 l 6
 167 -1 88 81 88 384 c 4xc6
112 380 m 5xa6
 112 224 132 23 276 23 c 6
 395 23 l 6
 457 23 533 42 533 146 c 6
 533 259 l 6
 533 364 471 380 395 380 c 6xc6
 112 380 l 5xa6
EndSplineSet
Validated: 1
Substitution2: "'dnom' Denominators lookup 0 subtable" six.denominator
Substitution2: "'sups' Superscript lookup 2 subtable" sixsuperior
Substitution2: "'onum' Oldstyle Figures in Latin lookup 5-1" six.oldstyle
Substitution2: "'tnum' Tabular Numbers in Latin lookup 7-1" six.tnum
Substitution2: "'numr' Numerators lookup 9 subtable" six.numerator
Substitution2: "'sinf' Scientific Inferiors lookup 3-1" sixinferior
Substitution2: "'frac' Diagonal Fractions lookup 13-1" six.numerator
Substitution2: "'smcp' Lowercase to Small Capitals lookup 16-1" six.smcp
EndChar

StartChar: seven
Encoding: 55 55 144
Width: 535
VWidth: 0
Flags: W
HStem: 0 21G<228 262.714> 708 24<40 466>
DStem2: 228 0 256 0 0.318233 0.948013<8.91052 746.932>
LayerCount: 2
Back
SplineSet
20 658 m 1
 20 732 l 1
 479 732 l 1
 506 684 l 1
 241 0 l 1
 153 0 l 1
 411 658 l 1
 20 658 l 1
EndSplineSet
Fore
SplineSet
40 708 m 5
 40 732 l 5
 478 732 l 5
 494 709 l 5
 256 0 l 5
 228 0 l 5
 466 708 l 5
 40 708 l 5
EndSplineSet
Validated: 1
Substitution2: "'dnom' Denominators lookup 0 subtable" seven.denominator
Substitution2: "'sups' Superscript lookup 2 subtable" sevensuperior
Substitution2: "'onum' Oldstyle Figures in Latin lookup 5-1" seven.oldstyle
Substitution2: "'tnum' Tabular Numbers in Latin lookup 7-1" seven.tnum
Substitution2: "'numr' Numerators lookup 9 subtable" seven.numerator
Substitution2: "'sinf' Scientific Inferiors lookup 3-1" seveninferior
Substitution2: "'frac' Diagonal Fractions lookup 13-1" seven.numerator
Substitution2: "'smcp' Lowercase to Small Capitals lookup 16-1" seven.smcp
EndChar

StartChar: percent
Encoding: 37 37 145
Width: 954
VWidth: 0
Flags: W
HStem: 3 15<609.95 827.08> 349 15<125.95 343.08> 371 15<611.039 825.826> 717 15<127.039 341.826>
VStem: 57 15<418.609 661.734> 399 15<419.266 662.208> 541 15<72.6094 315.734> 883 15<73.2656 316.208>
DStem2: 242 0 263 0 0.513461 0.858113<10.7827 853.035>
LayerCount: 2
Back
SplineSet
227 0 m 5
 665 732 l 5x9f
 736 732 l 5
 298 0 l 5
 227 0 l 5
621 127 m 6
 621 78 636 67 683 67 c 6
 784 67 l 6
 842 67 848 82 848 127 c 14
 848 260 l 6
 848 309 833 320 786 320 c 6
 685 320 l 6xdf
 627 320 621 305 621 260 c 6
 621 127 l 6
556 127 m 6
 556 260 l 6
 556 345 584 385 685 385 c 6
 786 385 l 6
 884 385 913 345 913 260 c 6
 913 127 l 22
 913 42 885 2 784 2 c 6
 683 2 l 6
 585 2 556 42 556 127 c 6
107 474 m 6
 107 425 122 414 169 414 c 6
 270 414 l 6xbf
 328 414 334 429 334 474 c 14
 334 607 l 6
 334 656 319 667 272 667 c 6
 171 667 l 6
 113 667 107 652 107 607 c 6
 107 474 l 6
42 474 m 6
 42 607 l 6
 42 692 70 732 171 732 c 6
 272 732 l 6
 370 732 399 692 399 607 c 6
 399 474 l 22
 399 389 371 349 270 349 c 6
 169 349 l 6
 71 349 42 389 42 474 c 6
EndSplineSet
Fore
SplineSet
57 474 m 2
 57 607 l 2
 57 692 85 732 186 732 c 2
 287 732 l 2
 385 732 414 692 414 607 c 2
 414 474 l 18
 414 389 386 349 285 349 c 2
 184 349 l 2
 86 349 57 389 57 474 c 2
72 474 m 2
 72 388 106 364 184 364 c 2
 285 364 l 2
 362 364 399 385 399 474 c 10
 399 607 l 2
 399 685 373 717 287 717 c 2
 186 717 l 2
 107 717 72 696 72 607 c 2
 72 474 l 2
242 0 m 1
 680 732 l 1
 701 732 l 1
 263 0 l 1
 242 0 l 1
541 128 m 2
 541 261 l 2
 541 346 569 386 670 386 c 2
 771 386 l 2
 869 386 898 346 898 261 c 2
 898 128 l 18
 898 43 870 3 769 3 c 2
 668 3 l 2
 570 3 541 43 541 128 c 2
556 128 m 2
 556 42 590 18 668 18 c 2
 769 18 l 2
 846 18 883 39 883 128 c 10
 883 261 l 2
 883 339 857 371 771 371 c 2
 670 371 l 2
 591 371 556 350 556 261 c 2
 556 128 l 2
EndSplineSet
Validated: 1
Substitution2: "'smcp' Lowercase to Small Capitals lookup 16-1" percent.smcp
EndChar

StartChar: nine
Encoding: 57 57 146
Width: 636
VWidth: 0
Flags: W
HStem: -6 24<187.059 418.987> 3 15<105 239.556> 327 25<162.207 431.875> 338 14<436.603 525> 709 24<171.09 414.296>
VStem: 81 23<409.797 643.285> 525 24<201.253 338 352 516.573>
LayerCount: 2
Back
SplineSet
65 458 m 2
 65 589 l 2
 65 701 132 738 226 738 c 2
 375 738 l 2
 484 737 563 668 563 353 c 0
 563 88 474 -1 391 -1 c 0xae
 290 -1 176 0 89 18 c 1
 89 73 l 1x4e
 378 73 l 2
 469 73 487 246 489 330 c 1x9e
 404 320 300 309 226 309 c 0
 90 309 65 380 65 458 c 2
138 458 m 2
 138 397 180 383 226 383 c 2x2e
 489 383 l 1x1e
 489 477 485 664 375 664 c 2
 226 664 l 2
 175 664 138 654 138 583 c 2
 138 458 l 2
EndSplineSet
Fore
SplineSet
81 473 m 2x2e
 81 584 l 2
 81 696 148 733 242 733 c 2
 361 733 l 2
 470 733 549 651 549 348 c 0
 549 90 469 -6 377 -6 c 0xae
 276 -6 166 -4 105 3 c 1
 105 18 l 1x4e
 374 18 l 2
 501 18 525 226 525 338 c 1x9e
 440 328 316 327 242 327 c 0
 108 327 81 391 81 473 c 2x2e
104 473 m 2
 104 368 166 352 242 352 c 2x2e
 525 352 l 1x1e
 525 508 505 709 361 709 c 2
 242 709 l 2
 180 709 104 690 104 586 c 2
 104 473 l 2
EndSplineSet
Validated: 1
Substitution2: "'dnom' Denominators lookup 0 subtable" nine.denominator
Substitution2: "'sups' Superscript lookup 2 subtable" ninesuperior
Substitution2: "'onum' Oldstyle Figures in Latin lookup 5-1" nine.oldstyle
Substitution2: "'tnum' Tabular Numbers in Latin lookup 7-1" nine.tnum
Substitution2: "'numr' Numerators lookup 9 subtable" nine.numerator
Substitution2: "'sinf' Scientific Inferiors lookup 3-1" nineinferior
Substitution2: "'frac' Diagonal Fractions lookup 13-1" nine.numerator
Substitution2: "'smcp' Lowercase to Small Capitals lookup 16-1" nine.smcp
EndChar

StartChar: eight
Encoding: 56 56 147
Width: 655
VWidth: 0
Flags: W
HStem: 0 24<202.368 454.182> 362 23<204.105 457.192> 713 24<202.078 463.215>
VStem: 101 24<93.7098 299.074 437.582 638.886> 531 24<95.9464 311.455 450.73 638.75>
LayerCount: 2
Back
SplineSet
75 154 m 6
 75 252 l 6
 75 326 120 346 160 359 c 5
 96 381 75 446 75 499 c 6
 75 564 l 6
 75 698 148 737 251 737 c 6
 397 737 l 6
 504 737 559 687 559 564 c 6
 559 499 l 6
 560 477 556 398 484 383 c 5
 538 373 560 295 559 252 c 6
 559 154 l 6
 559 24 460 0 396 0 c 6
 251 0 l 6
 79 0 75 113 75 154 c 6
149 151 m 6
 149 102 178 74 251 74 c 6
 396 74 l 6
 439 74 485 98 485 151 c 6
 485 256 l 6
 485 313 443 337 399 337 c 6
 240 337 l 6
 194 337 149 318 149 256 c 6
 149 151 l 6
149 494 m 6
 149 427 206 410 240 410 c 6
 399 410 l 6
 472 410 485 458 485 494 c 6
 485 562 l 6
 485 636 456 663 397 663 c 6
 251 663 l 6
 187 663 149 652 149 562 c 6
 149 494 l 6
EndSplineSet
Fore
SplineSet
101 154 m 2
 101 253 l 2
 101 329 162 366 201 366 c 1
 115 381 101 446 101 499 c 2
 101 564 l 2
 101 698 174 737 277 737 c 2
 393 737 l 2
 500 737 555 687 555 564 c 2
 555 499 l 2
 555 445 519 384 463 380 c 1
 533 360 555 315 555 252 c 2
 555 154 l 2
 555 24 456 0 392 0 c 2
 277 0 l 2
 105 0 101 113 101 154 c 2
125 151 m 2
 125 58 192 24 277 24 c 2
 392 24 l 2
 453 24 531 55 531 151 c 2
 531 256 l 2
 531 362 445 362 395 362 c 2
 266 362 l 2
 220 362 125 338 125 256 c 2
 125 151 l 2
125 494 m 2
 125 393 200 385 266 385 c 2
 395 385 l 2
 492 385 531 448 531 494 c 2
 531 562 l 2
 531 672 486 713 393 713 c 2
 277 713 l 2
 168 713 125 666 125 562 c 2
 125 494 l 2
EndSplineSet
Validated: 1
Substitution2: "'dnom' Denominators lookup 0 subtable" eight.denominator
Substitution2: "'sups' Superscript lookup 2 subtable" eightsuperior
Substitution2: "'onum' Oldstyle Figures in Latin lookup 5-1" eight.oldstyle
Substitution2: "'tnum' Tabular Numbers in Latin lookup 7-1" eight.tnum
Substitution2: "'numr' Numerators lookup 9 subtable" eight.numerator
Substitution2: "'sinf' Scientific Inferiors lookup 3-1" eightinferior
Substitution2: "'frac' Diagonal Fractions lookup 13-1" eight.numerator
Substitution2: "'smcp' Lowercase to Small Capitals lookup 16-1" eight.smcp
EndChar

StartChar: quotesingle
Encoding: 39 39 148
Width: 113
VWidth: 0
Flags: W
HStem: 531 201<51.4004 63.4004>
VStem: 44.4004 25<531 732>
LayerCount: 2
Back
SplineSet
85 665 m 1
 85 732 l 1
 160 732 l 1
 160 665 l 1
 150 531 l 1
 96 531 l 1
 85 665 l 1
EndSplineSet
Fore
SplineSet
44.4004 665 m 5
 44.4004 732 l 5
 69.4004 732 l 5
 69.4004 665 l 5
 63.4004 531 l 5
 51.4004 531 l 5
 44.4004 665 l 5
EndSplineSet
Validated: 1
Substitution2: "'smcp' Lowercase to Small Capitals lookup 16-1" quotesingle.smcp
EndChar

StartChar: onesuperior
Encoding: 185 185 149
Width: 255
VWidth: 100
Flags: W
VStem: 150 18<356 814>
LayerCount: 2
Back
SplineSet
16 628 m 1
 16 677 l 1
 144 732 l 1
 206 732 l 1
 206 256 l 1
 144 256 l 1
 144 663 l 1
 16 628 l 1
EndSplineSet
Fore
SplineSet
22 768 m 1
 22 777 l 1
 150 832 l 1
 168 832 l 1
 168 356 l 1
 150 356 l 1
 150 814 l 1
 22 768 l 1
EndSplineSet
Validated: 1
EndChar

StartChar: twosuperior
Encoding: 178 178 150
Width: 411
VWidth: 100
Flags: W
HStem: 356 18<79 354> 820 18<45.0786 274.836> 820 11<40.9387 163.945>
VStem: 336 18<661.242 759.703>
LayerCount: 2
Back
SplineSet
32 676 m 6
 30 676 31 724 32 723 c 5xb0
 98 731 143 738 215 738 c 7
 313 738 345 680 345 602 c 7xd0
 345 477 190 353 148 318 c 13
 344 318 l 29
 344 256 l 29
 35 256 l 29
 35 314 l 21
 102 368 280 486 280 599 c 7
 280 652 262 676 204 676 c 6xd0
 32 676 l 6
EndSplineSet
Fore
SplineSet
42 820 m 2xb0
 40 820 41 832 42 831 c 1xb0
 108 839 153 838 225 838 c 3
 323 838 355 780 355 702 c 3
 355 580 117 404 79 374 c 9
 354 374 l 25
 354 356 l 25
 45 356 l 25
 45 370 l 17
 112 424 336 593 336 699 c 3
 336 768 315 820 219 820 c 2xd0
 42 820 l 2xb0
EndSplineSet
Validated: 33
EndChar

StartChar: threesuperior
Encoding: 179 179 151
Width: 437
VWidth: 100
Flags: W
HStem: 352 18<56.531 287.709> 363 7<44 63.3131> 592 10<84 238.302> 815 18<53.6544 287.353> 815 10<40 76.6233>
VStem: 340 17<426.603 528.5 657.104 765.5>
LayerCount: 2
Back
SplineSet
30 672 m 5x8c
 30 715 l 5
 87 735 149 733 225 733 c 4xd4
 312 733 346 676 346 616 c 6
 346 581 l 6
 346 534 323 503 297 493 c 5
 324 476 346 448 346 399 c 6
 346 371 l 6
 346 300 319 252 220 252 c 4
 146 252 91 250 34 270 c 5
 35 313 l 5
 67 313 212 314 212 314 c 6
 265.998 314.305 284 331 284 375 c 6
 284 398 l 6
 284 449 251 466 216 467 c 6
 74 472 l 6xa4
 74 519 l 5
 216 526 l 6xd4
 261 528 285 550 285 590 c 6
 285 612 l 6
 285 654 261 672 216 672 c 6
 30 672 l 5x8c
EndSplineSet
Fore
SplineSet
40 815 m 1x2c
 40 825 l 1x2c
 86 834 160 833 236 833 c 0
 323 833 357 783 357 723 c 2
 357 688 l 2
 357 631 297 599 274 597 c 1
 295 593 357 562 357 499 c 2
 357 471 l 2
 357 400 329 352 230 352 c 0xb4
 156 352 86 354 44 363 c 1
 44 370 l 1x64
 222 370 l 2
 304 370 338 393 338 475 c 2
 338 498 l 2
 338 558 278 587 226 588 c 2
 84 592 l 2
 84 602 l 1
 226 606 l 2
 288 608 340 639 340 689 c 2
 340 724 l 2
 340 799 284 815 234 815 c 2xb4
 40 815 l 1x2c
EndSplineSet
Validated: 33
EndChar

StartChar: ordmasculine
Encoding: 186 186 152
Width: 381
VWidth: 0
Flags: W
HStem: 291 13<52 332> 373 16<123.629 261.464> 721 16<121.251 260.446>
VStem: 40 16<463.88 643.28> 324 16<461.794 647.049>
LayerCount: 2
Back
SplineSet
107 550 m 0
 107 438 147.992 435 211 435 c 3
 277.503 435 311 436 313 550 c 0
 315.153 672.745 278.007 675 211 675 c 3
 140.993 675 107 674.906 107 550 c 0
45 550 m 0
 45 692.163 83.8701 737 211 737 c 3
 338.051 737 375 692.25 375 550 c 0
 375 421.946 337.887 373 211 373 c 3
 84.2305 373 45 421.85 45 550 c 0
56 271 m 1
 56 329 l 1
 363 329 l 1
 363 271 l 1
 56 271 l 1
EndSplineSet
Fore
SplineSet
40 550 m 0
 40 692 65 737 192 737 c 3
 319 737 340 692 340 550 c 0
 340 422 319 373 192 373 c 3
 65 373 40 422 40 550 c 0
52 291 m 1
 52 304 l 1
 332 304 l 1
 332 291 l 1
 52 291 l 1
56 550 m 0
 56 423 83 389 192 389 c 3
 294 389 324 414 324 550 c 0
 324 686 304 721 192 721 c 3
 87 721 56 697 56 550 c 0
EndSplineSet
Validated: 1
Ligature2: "'ordn' Ordinals lookup 21-1" o
Substitution2: "'smcp' Lowercase to Small Capitals lookup 16-1" ordmasculine.smcp
EndChar

StartChar: ordfeminine
Encoding: 170 170 153
Width: 360
VWidth: 0
Flags: W
HStem: 291 13<40 320> 374 16<99.854 189.318> 585 14<102.965 302> 723 16<108.795 247.125>
VStem: 40 17<429.125 543.253> 302 16<378 427 434.234 589 598.713 672.699>
LayerCount: 2
Back
SplineSet
101 476 m 6
 101 446 119 436 145 436 c 4
 205 436 279 468 279 468 c 13
 279 554 l 21
 145 544 l 5
 113 541 101 523 101 503 c 6
 101 476 l 6
39 463 m 14
 39 509 l 6
 39 563 77 599 139 599 c 6
 139 599 279 598 279 599 c 4
 279 599 280 630 279 631 c 6
 279 668 256 681 218 681 c 4
 164 681 124 677 51 674 c 13
 51 716 l 21
 107 724 151 738 226 739 c 4
 288 740 341 709 341 636 c 6
 341 378 l 13
 301 378 l 29
 280 427 l 21
 278 427 198 374 139 374 c 31
 87 374 39 405 39 463 c 14
39 268 m 5
 39 326 l 5
 343 326 l 5
 343 268 l 5
 39 268 l 5
EndSplineSet
Fore
SplineSet
40 291 m 5
 40 304 l 5
 320 304 l 5
 320 291 l 5
 40 291 l 5
40 463 m 10
 40 509 l 2
 40 563 78 599 140 599 c 2
 140 599 302 598 302 599 c 0
 302 599 303 630 302 631 c 2
 302 692 269 723 194 723 c 0
 140 723 109 719 52 707 c 9
 52 717 l 17
 90 729 127 738 202 739 c 0
 266 740 318 709 318 636 c 2
 318 378 l 9
 308 378 l 25
 302 427 l 17
 300 427 206 374 140 374 c 27
 88 374 40 405 40 463 c 10
57 466 m 2
 57 411 96 390 146 390 c 0
 206 390 302 438 302 438 c 9
 302 589 l 17
 146 585 l 1
 108 585 57 573 57 503 c 2
 57 466 l 2
EndSplineSet
Validated: 33
Ligature2: "'ordn' Ordinals lookup 21-1" a
Substitution2: "'smcp' Lowercase to Small Capitals lookup 16-1" ordfeminine.smcp
EndChar

StartChar: slash
Encoding: 47 47 154
Width: 354
VWidth: 0
Flags: W
VStem: 27 300
DStem2: 27 -72 46 -72 0.316566 0.948571<6.01475 887.651>
LayerCount: 2
Back
SplineSet
20 -72 m 5
 301 770 l 5
 380 770 l 5
 99 -72 l 5
 20 -72 l 5
EndSplineSet
Fore
SplineSet
27 -72 m 1
 308 770 l 1
 327 770 l 5
 46 -72 l 5
 27 -72 l 1
EndSplineSet
Validated: 1
Substitution2: "'numr' Numerators lookup 9 subtable" fraction
Substitution2: "'frac' Diagonal Fractions lookup 12-1" fraction
EndChar

StartChar: backslash
Encoding: 92 92 155
Width: 354
VWidth: 0
Flags: W
VStem: 27 300
DStem2: 46 770 27 770 0.316566 -0.948571<0 881.637>
LayerCount: 2
Back
SplineSet
20 770 m 1
 99 770 l 1
 380 -72 l 1
 301 -72 l 1
 20 770 l 1
EndSplineSet
Fore
SplineSet
27 770 m 5
 46 770 l 5
 327 -72 l 5
 308 -72 l 5
 27 770 l 5
EndSplineSet
Validated: 1
EndChar

StartChar: bar
Encoding: 124 124 156
Width: 254
VWidth: 0
Flags: W
VStem: 116 24<-72 770>
LayerCount: 2
Back
SplineSet
86 -72 m 5
 86 770 l 5
 160 770 l 5
 160 -72 l 5
 86 -72 l 5
EndSplineSet
Fore
SplineSet
116 -72 m 1
 116 770 l 1
 140 770 l 5
 140 -72 l 5
 116 -72 l 1
EndSplineSet
Validated: 1
EndChar

StartChar: underscore
Encoding: 95 95 157
Width: 658
VWidth: 0
Flags: W
HStem: -1 24<27 631>
LayerCount: 2
Back
SplineSet
20 -1 m 1
 20 73 l 1
 654 73 l 1
 654 -1 l 1
 20 -1 l 1
EndSplineSet
Fore
SplineSet
27 -1 m 1
 27 23 l 1
 631 23 l 5
 631 -1 l 5
 27 -1 l 1
EndSplineSet
Validated: 1
EndChar

StartChar: hyphen
Encoding: 45 45 158
Width: 338
VWidth: 0
Flags: W
HStem: 278 24<27 311>
VStem: 27 284<278 302>
LayerCount: 2
Back
SplineSet
50 253 m 5
 50 327 l 5
 364 327 l 5
 364 253 l 5
 50 253 l 5
EndSplineSet
Fore
SplineSet
27 278 m 5
 27 302 l 5
 311 302 l 5
 311 278 l 5
 27 278 l 5
EndSplineSet
Validated: 1
Substitution2: "'case' Case-Sensitive Forms lookup 1-1" hyphen.alt
Substitution2: "'c2sc' Capitals to Small Capitals in Latin lookup 17 subtable" hyphen.smcp
Substitution2: "'smcp' Lowercase to Small Capitals lookup 16-1" hyphen.smcp
EndChar

StartChar: numbersign
Encoding: 35 35 159
Width: 654
VWidth: 0
Flags: W
HStem: 0 21G<166 181.12 364 379.133> 250 12<29 205 220 403 417 592> 467 12<64 240 254 437 452 627> 712 20G<279.759 295 476.838 492>
DStem2: 166 0 178 0 0.157833 0.987466<1.89399 253.022 267.239 472.826 486.885 741.291> 364 0 376 0 0.156517 0.987675<1.8782 252.035 266.079 472.67 486.87 741.134>
LayerCount: 2
Back
SplineSet
239 284 m 1
 404 283 l 1
 430 449 l 1
 265 449 l 1
 239 284 l 1
20 232 m 1
 28 284 l 1
 187 284 l 1
 213 449 l 1
 54 449 l 1
 63 501 l 1
 221 501 l 1
 258 732 l 1
 310 732 l 1
 273 501 l 1
 439 501 l 1
 475 732 l 1
 527 732 l 1
 491 501 l 1
 668 501 l 1
 659 449 l 1
 482 449 l 1
 456 283 l 1
 633 283 l 1
 625 231 l 1
 448 231 l 1
 411 0 l 1
 359 0 l 1
 396 231 l 1
 230 232 l 1
 193 0 l 1
 141 0 l 1
 178 232 l 1
 20 232 l 1
EndSplineSet
Fore
SplineSet
27 250 m 5
 29 262 l 5
 208 262 l 5
 240 467 l 5
 61 467 l 5
 64 479 l 5
 242 479 l 5
 283 732 l 5
 295 732 l 5
 254 479 l 5
 440 479 l 5
 480 732 l 5
 492 732 l 5
 452 479 l 5
 629 479 l 5
 627 467 l 5
 449 467 l 5
 417 261 l 5
 594 261 l 5
 592 249 l 5
 415 249 l 5
 376 0 l 5
 364 0 l 5
 403 249 l 5
 217 250 l 5
 178 0 l 5
 166 0 l 5
 205 250 l 5
 27 250 l 5
220 262 m 5
 405 261 l 5
 437 467 l 5
 252 467 l 5
 220 262 l 5
EndSplineSet
Validated: 1
Substitution2: "'smcp' Lowercase to Small Capitals lookup 16-1" numbersign.smcp
EndChar

StartChar: dollar
Encoding: 36 36 160
Width: 585
VWidth: 0
Flags: W
HStem: 347 24<163.703 425.318> 714 24<174.187 283 301 423.006>
VStem: 74 24<431.563 637.781> 283 18<-88 -8 738 824> 487 24<90.65 288.085>
LayerCount: 2
Back
SplineSet
55 494 m 2
 55 560 l 1
 57 701 137 736 244 738 c 1
 244 824 l 1
 302 824 l 1
 302 735 l 1
 365 730 453 718 493 714 c 1
 493 656 l 1
 443 656 253 665 253 665 c 2
 183 668 129 655 129 560 c 2
 129 494 l 1
 129 414 183 396 233 396 c 2
 363 396 l 2
 501 396 520 306 520 224 c 2
 520 156 l 2
 520 18 409 -14 302 -8 c 1
 302 -90 l 1
 244 -90 l 1
 244 -3 l 1
 181 4 104 14 78 17 c 1
 78 72 l 1
 118 72 224 66 317 66 c 0
 358 66 446 73 446 156 c 2
 446 224 l 2
 446 281 428 322 363 322 c 2
 233 322 l 2
 86 322 55 415 55 494 c 2
EndSplineSet
Fore
SplineSet
74 494 m 2
 74 560 l 2
 74 711 161 742 283 738 c 1
 283 824 l 1
 301 824 l 1
 301 737 l 1
 358 734 439 725 479 719 c 1
 479 706 l 1
 415 710 267 714 267 714 c 2
 162 718 98 686 98 560 c 6
 98 494 l 2
 98 394 155 371 245 371 c 2
 349 371 l 2
 482 371 511 306 511 224 c 2
 511 156 l 2
 511 8 409 -10 301 -8 c 1
 301 -88 l 1
 283 -88 l 1
 283 -7 l 1
 223 -5 130 0 92 7 c 1
 92 22 l 1
 136 18 224 16 317 16 c 0
 414 16 487 39 487 156 c 2
 487 224 l 2
 487 309 449 347 349 347 c 2
 247 347 l 2
 92 347 74 423 74 494 c 2
EndSplineSet
Validated: 33
Substitution2: "'smcp' Lowercase to Small Capitals lookup 16-1" dollar.smcp
EndChar

StartChar: zerosuperior
Encoding: 263 8304 161
Width: 510
VWidth: 100
Flags: W
HStem: 355 18<141.124 369.568> 812 18<144.494 364.578>
VStem: 81 18<415.62 767.134> 410 18<411.071 767.954>
LayerCount: 2
Back
SplineSet
123 369 m 2
 123 329 132 317 181 317 c 10
 290 317 l 22
 341 317 346 334 346 369 c 6
 346 616 l 6
 346 651 338 668 290 668 c 6
 181 668 l 2
 130 668 123 647 123 616 c 2
 123 369 l 2
60 365 m 2
 60 620 l 2
 60 704 106 730 177 730 c 2
 294 730 l 2
 377 730 407 687 407 620 c 10
 407 365 l 2
 407 269 358 255 294 255 c 2
 177 255 l 2
 118 255 60 265 60 365 c 2
EndSplineSet
Fore
SplineSet
81 465 m 2
 81 720 l 2
 81 804 127 830 198 830 c 2
 315 830 l 2
 398 830 428 787 428 720 c 10
 428 465 l 2
 428 369 379 355 315 355 c 2
 198 355 l 2
 139 355 81 365 81 465 c 2
99 469 m 2
 99 389 133 373 202 373 c 10
 311 373 l 18
 395 373 410 402 410 469 c 2
 410 716 l 2
 410 779 385 812 311 812 c 2
 202 812 l 2
 129 812 99 788 99 716 c 2
 99 469 l 2
EndSplineSet
Validated: 1
EndChar

StartChar: foursuperior
Encoding: 264 8308 162
Width: 409
VWidth: 100
Flags: W
HStem: 522 19<48 313> 533 8<352.455 390>
VStem: 313 18<356 522 541 699.333> 322 9<672.667 710>
DStem2: 22 532 48 541 0.537608 0.843195<21.5666 353.418>
LayerCount: 2
Back
SplineSet
16 400 m 1
 224 730 l 1
 295 730 l 1
 114 441 l 1
 281 441 l 1
 281 562 l 1xa0
 309 610 l 1
 343 610 l 1
 343 441 l 1
 402 441 l 1
 402 389 l 1x60
 343 376 l 1
 343 256 l 1
 281 256 l 1
 281 376 l 1
 38 376 l 1
 16 400 l 1
EndSplineSet
Fore
SplineSet
22 532 m 1xa0
 212 830 l 1
 232 830 l 5
 48 541 l 5
 313 541 l 1
 313 662 l 1xa0
 322 710 l 1
 331 710 l 1x90
 331 541 l 1
 390 541 l 1
 390 533 l 1x60
 331 522 l 1
 331 356 l 1
 313 356 l 1
 313 522 l 1
 26 522 l 1
 22 532 l 1xa0
EndSplineSet
Validated: 1
EndChar

StartChar: fivesuperior
Encoding: 265 8309 163
Width: 452
VWidth: 100
Flags: W
HStem: 351 19<105.698 332.609> 358 12<74 285.191> 611 18<140.481 343.579> 812 18<105 384>
VStem: 380 18<418.177 576.932>
DStem2: 74 538 93 580 0.0513022 0.998683<42.9194 275.23>
LayerCount: 2
Back
SplineSet
55 265 m 1
 55 314 l 1x7c
 266 314 l 2
 301 314 317 336 317 369 c 2
 317 425 l 2
 317 447 319 487 266 487 c 0
 151 487 l 2
 126 487 107 473 107 438 c 1
 55 438 l 1
 70 730 l 25
 365 730 l 1
 365 668 l 1
 128 668 l 25
 120 530 l 1xbc
 150 559 238 549 270 549 c 0
 347 549 379 500 379 429 c 2
 379 365 l 2
 379 283 333 251 270 251 c 0xbc
 189 251 142 250 55 265 c 1
EndSplineSet
Fore
SplineSet
74 358 m 1x78
 74 370 l 1x78
 285 370 l 2
 346 370 380 401 380 469 c 2
 380 525 l 2
 380 575 373 611 289 611 c 4
 179 611 l 2
 133 611 93 575 92 538 c 1
 74 538 l 1
 89 830 l 25
 384 830 l 1
 384 812 l 1
 105 812 l 25
 93 580 l 1
 121 641 207 629 289 629 c 0
 366 629 398 600 398 529 c 2
 398 465 l 2
 398 383 352 351 289 351 c 0xb8
 208 351 110 352 74 358 c 1x78
EndSplineSet
Validated: 33
EndChar

StartChar: sixsuperior
Encoding: 266 8310 164
Width: 472
VWidth: 100
Flags: W
HStem: 355 18<159.885 356.505> 594 18<127.705 373.015> 594 11<91 309.699> 817 18<158.131 401>
VStem: 73 18<482.449 594 605 711.885> 399 18<415.725 570.246>
LayerCount: 2
Back
SplineSet
55 506 m 0
 56.8497 702.991 115 732 178 736 c 1xd6
 244.945 740.504 326.436 731.522 383 724 c 1
 383 674 l 1x8e
 181 674 l 2
 122 674 118 576 117 521 c 1xb6
 172 527 246 535 294 535 c 0
 382 535 399 485 399 434 c 2
 399 361 l 2
 399 289 355 256 294 256 c 2
 187 256 l 2
 115 256 53 293 55 506 c 0
117 473 m 1xa6
 117 440 119 318 184 318 c 2
 290 318 l 2
 323 318 337 333 337 369 c 2
 337 430 l 2
 337 466 320 473 290 473 c 2xc6
 117 473 l 1xa6
EndSplineSet
Fore
SplineSet
73 605 m 0xbc
 75 802 130 833 195 835 c 0
 262 837 359 835 401 829 c 1
 401 817 l 1
 196 817 l 2
 112 817 92 728 91 605 c 1xbc
 146 611 264 612 312 612 c 0xdc
 400 612 417 584 417 533 c 2
 417 460 l 2
 417 388 373 355 312 355 c 2
 205 355 l 2
 133 355 71 392 73 605 c 0xbc
91 594 m 1
 91 418 134 373 205 373 c 2
 311 373 l 2
 369 373 399 404 399 460 c 2
 399 532 l 2
 399 589 365 594 311 594 c 2xdc
 91 594 l 1
EndSplineSet
Validated: 33
EndChar

StartChar: sevensuperior
Encoding: 267 8311 165
Width: 378
VWidth: 100
Flags: W
HStem: 814 18<20 337>
DStem2: 156 356 174 356 0.368956 0.929447<6.64121 492.468>
LayerCount: 2
Back
SplineSet
15 670 m 1
 15 732 l 1
 334 732 l 1
 351 701 l 1
 169 256 l 1
 99 256 l 1
 270 670 l 5
 15 670 l 1
EndSplineSet
Fore
SplineSet
20 814 m 1
 20 832 l 1
 347 832 l 1
 357 817 l 1
 174 356 l 1
 156 356 l 1
 337 814 l 1
 20 814 l 1
EndSplineSet
Validated: 1
EndChar

StartChar: eightsuperior
Encoding: 268 8312 166
Width: 510
VWidth: 100
Flags: W
HStem: 354 18<147.784 364.485> 587 18<147.334 359.74> 817 18<153.43 361.406>
VStem: 89 18<410.406 546.225 644.052 769.196> 405 18<412.972 546.078 646.807 772.562>
LayerCount: 2
Back
SplineSet
66 358 m 2
 66 416 l 2
 66 464 95 480 121 488 c 1
 79 502 66 544 66 578 c 2
 66 618 l 2
 66 710 115 735 182 735 c 2
 292 735 l 2
 362 735 400 704 400 618 c 2
 400 578 l 2
 401 564 399 513 352 503 c 1
 387 497 400 444 400 416 c 2
 400 358 l 2
 400 274 350 254 295 254 c 2
 175 254 l 2
 83 254 66 304 66 358 c 2
128 362 m 2
 128 330 138 317 179 317 c 2
 291 317 l 2
 319 317 338 328 338 362 c 2
 338 412 l 2
 338 449 321 464 292 464 c 2
 177 464 l 2
 147 464 128 452 128 412 c 2
 128 362 l 2
128 582 m 2
 128 538 155 527 177 527 c 2
 288 527 l 2
 335 527 338 559 338 582 c 2
 338 614 l 2
 338 662 321 673 283 673 c 2
 186 673 l 2
 141 673 128 660 128 614 c 2
 128 582 l 2
EndSplineSet
Fore
SplineSet
89 458 m 2
 89 516 l 2
 89 564 135 591 162 592 c 1
 107 602 89 644 89 678 c 2
 89 718 l 2
 89 810 138 835 205 835 c 2
 315 835 l 2
 385 835 423 804 423 718 c 2
 423 678 l 2
 423 644 400 602 352 598 c 1
 385 592 423 561 423 516 c 2
 423 458 l 2
 423 374 373 354 318 354 c 2
 198 354 l 2
 106 354 89 404 89 458 c 2
107 462 m 2
 107 397 132 372 202 372 c 2
 314 372 l 2
 373 372 405 394 405 462 c 2
 405 512 l 2
 405 565 354 587 325 587 c 2
 200 587 l 2
 146 587 107 556 107 514 c 2
 107 462 l 2
107 682 m 2
 107 629 145 605 190 605 c 2
 321 605 l 2
 361 605 405 631 405 682 c 2
 405 714 l 2
 405 798 372 817 306 817 c 2
 209 817 l 2
 141 817 107 794 107 714 c 2
 107 682 l 2
EndSplineSet
Validated: 1
EndChar

StartChar: ninesuperior
Encoding: 269 8313 167
Width: 472
VWidth: 100
Flags: W
HStem: 362 12<77 313.766> 579 18<104.985 350.295> 586 11<168.301 387> 818 18<121.495 318.115>
VStem: 61 18<620.754 775.275> 387 18<479.115 586 597 708.551>
LayerCount: 2
Back
SplineSet
45 558 m 2
 45 631 l 2
 45 703 89 736 150 736 c 2
 257 736 l 2
 329 736 391 699 389 486 c 0
 387.15 289.009 333 261 267 256 c 0xd6
 201.189 251.014 130 254 61 268 c 1
 61 318 l 1x8e
 262 318 l 2
 321 318 326 416 327 471 c 1xb6
 272 465 198 457 150 457 c 0
 62 457 45 507 45 558 c 2
107 562 m 2
 107 526 124 519 154 519 c 2xc6
 327 519 l 1xa6
 327 552 328 674 263 674 c 2
 154 674 l 2
 121 674 107 659 107 623 c 2
 107 562 l 2
EndSplineSet
Fore
SplineSet
61 658 m 6xdc
 61 731 l 6
 61 803 105 836 166 836 c 6
 273 836 l 6
 345 836 407 799 405 586 c 4
 403 389 348 358 283 356 c 4
 216 354 119 356 77 362 c 5
 77 374 l 5
 282 374 l 6
 366 374 386 463 387 586 c 5xbc
 332 580 214 579 166 579 c 4
 78 579 61 607 61 658 c 6xdc
79 659 m 6
 79 602 113 597 167 597 c 6xdc
 387 597 l 5
 387 773 344 818 273 818 c 6
 167 818 l 6
 109 818 79 787 79 731 c 6
 79 659 l 6
EndSplineSet
Validated: 33
EndChar

StartChar: zeroinferior
Encoding: 270 8320 168
Width: 510
VWidth: 0
Flags: W
HStem: -200 18<141.124 369.568> 257 18<144.494 364.578>
VStem: 81 18<-139.38 212.134> 410 18<-143.929 212.954>
LayerCount: 2
Back
SplineSet
123 -86 m 2
 123 -126 132 -138 181 -138 c 10
 290 -138 l 22
 341 -138 346 -121 346 -86 c 6
 346 161 l 6
 346 196 338 213 290 213 c 6
 181 213 l 2
 130 213 123 192 123 161 c 2
 123 -86 l 2
60 -90 m 2
 60 165 l 2
 60 249 106 275 177 275 c 2
 294 275 l 2
 377 275 407 232 407 165 c 10
 407 -90 l 2
 407 -186 358 -200 294 -200 c 2
 177 -200 l 2
 118 -200 60 -190 60 -90 c 2
EndSplineSet
Fore
SplineSet
81 -90 m 2
 81 165 l 2
 81 249 127 275 198 275 c 2
 315 275 l 2
 398 275 428 232 428 165 c 10
 428 -90 l 2
 428 -186 379 -200 315 -200 c 2
 198 -200 l 2
 139 -200 81 -190 81 -90 c 2
99 -86 m 2
 99 -166 133 -182 202 -182 c 10
 311 -182 l 18
 395 -182 410 -153 410 -86 c 2
 410 161 l 2
 410 224 385 257 311 257 c 2
 202 257 l 2
 129 257 99 233 99 161 c 2
 99 -86 l 2
EndSplineSet
Validated: 1
EndChar

StartChar: oneinferior
Encoding: 271 8321 169
Width: 255
VWidth: 0
Flags: W
VStem: 150 18<-199 259>
LayerCount: 2
Back
SplineSet
16 173 m 1
 16 222 l 1
 144 277 l 1
 206 277 l 1
 206 -199 l 1
 144 -199 l 1
 144 208 l 1
 16 173 l 1
EndSplineSet
Fore
SplineSet
22 213 m 1
 22 222 l 1
 150 277 l 1
 168 277 l 1
 168 -199 l 1
 150 -199 l 1
 150 259 l 1
 22 213 l 1
EndSplineSet
Validated: 1
EndChar

StartChar: twoinferior
Encoding: 272 8322 170
Width: 411
VWidth: 0
Flags: W
HStem: -199 18<79 354> 265 18<45.0786 274.836> 265 11<40.9387 163.945>
VStem: 336 18<106.242 204.703>
LayerCount: 2
Back
SplineSet
32 221 m 2
 30 221 31 269 32 268 c 1xb0
 98 276 143 283 215 283 c 3
 313 283 345 225 345 147 c 3xd0
 345 22 190 -102 148 -137 c 9
 344 -137 l 25
 344 -199 l 25
 35 -199 l 25
 35 -141 l 17
 102 -87 280 31 280 144 c 3
 280 197 262 221 204 221 c 2xd0
 32 221 l 2
EndSplineSet
Fore
SplineSet
42 265 m 2xb0
 40 265 41 277 42 276 c 1xb0
 108 284 153 283 225 283 c 3
 323 283 355 225 355 147 c 3
 355 25 117 -151 79 -181 c 9
 354 -181 l 25
 354 -199 l 25
 45 -199 l 25
 45 -185 l 17
 112 -131 336 38 336 144 c 3
 336 213 315 265 219 265 c 2xd0
 42 265 l 2xb0
EndSplineSet
Validated: 33
EndChar

StartChar: threeinferior
Encoding: 273 8323 171
Width: 437
VWidth: 0
Flags: W
HStem: -203 18<56.531 287.709> -192 7<44 63.3131> 37 10<84 238.302> 260 18<53.6544 287.353> 260 10<40 76.6233>
VStem: 340 17<-128.397 -26.4998 102.104 210.5>
LayerCount: 2
Back
SplineSet
30 217 m 1x8c
 30 260 l 1
 87 280 149 278 225 278 c 0xd4
 312 278 346 221 346 161 c 2
 346 126 l 2
 346 79 323 48 297 38 c 1
 324 21 346 -7 346 -56 c 2
 346 -84 l 2
 346 -155 319 -203 220 -203 c 0
 146 -203 91 -205 34 -185 c 1
 35 -142 l 1
 67 -142 212 -141 212 -141 c 2
 265.998 -140.695 284 -124 284 -80 c 2
 284 -57 l 2
 284 -6 251 11 216 12 c 2
 74 17 l 2xa4
 74 64 l 1
 216 71 l 2xd4
 261 73 285 95 285 135 c 2
 285 157 l 2
 285 199 261 217 216 217 c 2
 30 217 l 1x8c
EndSplineSet
Fore
SplineSet
40 260 m 1x2c
 40 270 l 1x2c
 86 279 160 278 236 278 c 0
 323 278 357 228 357 168 c 2
 357 133 l 2
 357 76 297 44 274 42 c 1
 295 38 357 7 357 -56 c 2
 357 -84 l 2
 357 -155 329 -203 230 -203 c 0xb4
 156 -203 86 -201 44 -192 c 1
 44 -185 l 1x64
 222 -185 l 2
 304 -185 338 -162 338 -80 c 2
 338 -57 l 2
 338 3 278 32 226 33 c 2
 84 37 l 2
 84 47 l 1
 226 51 l 2
 288 53 340 84 340 134 c 2
 340 169 l 2
 340 244 284 260 234 260 c 2xb4
 40 260 l 1x2c
EndSplineSet
Validated: 33
EndChar

StartChar: fourinferior
Encoding: 274 8324 172
Width: 409
VWidth: 0
Flags: W
HStem: -33 19<48 313> -22 8<352.455 390>
VStem: 313 18<-199 -33 -14 144.333> 322 9<117.667 155>
DStem2: 22 -23 48 -14 0.537608 0.843195<21.5666 353.418>
LayerCount: 2
Back
SplineSet
16 -55 m 1
 224 275 l 1
 295 275 l 1
 114 -14 l 1
 281 -14 l 1
 281 107 l 1xa0
 309 155 l 1
 343 155 l 1
 343 -14 l 1
 402 -14 l 1
 402 -66 l 1x60
 343 -79 l 1
 343 -199 l 1
 281 -199 l 1
 281 -79 l 1
 38 -79 l 1
 16 -55 l 1
EndSplineSet
Fore
SplineSet
22 -23 m 1xa0
 212 275 l 1
 232 275 l 5
 48 -14 l 5
 313 -14 l 1
 313 107 l 1xa0
 322 155 l 1
 331 155 l 1x90
 331 -14 l 1
 390 -14 l 1
 390 -22 l 1x60
 331 -33 l 1
 331 -199 l 1
 313 -199 l 1
 313 -33 l 1
 26 -33 l 1
 22 -23 l 1xa0
EndSplineSet
Validated: 1
EndChar

StartChar: fiveinferior
Encoding: 275 8325 173
Width: 452
VWidth: 0
Flags: W
HStem: -204 19<105.698 332.609> -197 12<74 285.191> 56 18<140.481 343.579> 257 18<105 384>
VStem: 380 18<-136.823 21.9316>
DStem2: 74 -17 93 25 0.0513022 0.998683<42.9194 275.23>
LayerCount: 2
Back
SplineSet
55 -17 m 1
 70 275 l 25
 365 275 l 1
 365 213 l 1
 128 213 l 25
 120 75 l 1xbc
 150 104 238 94 270 94 c 0
 347 94 379 45 379 -26 c 2
 379 -90 l 2
 379 -172 333 -204 270 -204 c 0xbc
 189 -204 142 -205 55 -190 c 1
 55 -141 l 1x7c
 266 -141 l 2
 301 -141 317 -119 317 -86 c 2
 317 -30 l 2
 317 -8 319 32 266 32 c 0
 151 32 l 2
 126 32 107 18 107 -17 c 1
 55 -17 l 1
EndSplineSet
Fore
SplineSet
74 -17 m 1xb8
 89 275 l 25
 384 275 l 1
 384 257 l 1
 105 257 l 25
 93 25 l 1
 121 86 207 74 289 74 c 0
 366 74 398 45 398 -26 c 2
 398 -90 l 2
 398 -172 352 -204 289 -204 c 0xb8
 208 -204 110 -203 74 -197 c 1
 74 -185 l 1x78
 285 -185 l 2
 346 -185 380 -154 380 -86 c 2
 380 -30 l 2
 380 20 373 56 289 56 c 4
 179 56 l 2
 133 56 93 20 92 -17 c 1
 74 -17 l 1xb8
EndSplineSet
Validated: 33
EndChar

StartChar: sixinferior
Encoding: 276 8326 174
Width: 472
VWidth: 0
Flags: W
HStem: -200 18<159.885 356.505> 39 18<127.705 373.015> 39 11<91 309.699> 262 18<158.131 401>
VStem: 73 18<-72.5513 39 50 156.885> 399 18<-139.275 15.2464>
LayerCount: 2
Back
SplineSet
55 51 m 0
 56.8496 247.991 115 277 178 281 c 0xd6
 243.867 285.182 320 281 383 269 c 1
 383 219 l 1x8e
 181 219 l 2
 122 219 118 121 117 66 c 1xb6
 172 72 246 80 294 80 c 0
 382 80 399 30 399 -21 c 2
 399 -94 l 2
 399 -166 355 -199 294 -199 c 2
 187 -199 l 2
 115 -199 53 -162 55 51 c 0
117 18 m 1xa6
 117 -15 119 -137 184 -137 c 2
 290 -137 l 2
 323 -137 337 -122 337 -86 c 2
 337 -25 l 2
 337 11 320 18 290 18 c 2xc6
 117 18 l 1xa6
EndSplineSet
Fore
SplineSet
73 50 m 0xbc
 75 247 130 278 195 280 c 0
 262 282 359 280 401 274 c 1
 401 262 l 1
 196 262 l 2
 112 262 92 173 91 50 c 1xbc
 146 56 264 57 312 57 c 0xdc
 400 57 417 29 417 -22 c 2
 417 -95 l 2
 417 -167 373 -200 312 -200 c 2
 205 -200 l 2
 133 -200 71 -163 73 50 c 0xbc
91 39 m 1
 91 -137 134 -182 205 -182 c 2
 311 -182 l 2
 369 -182 399 -151 399 -95 c 2
 399 -23 l 2
 399 34 365 39 311 39 c 2xdc
 91 39 l 1
EndSplineSet
Validated: 33
EndChar

StartChar: seveninferior
Encoding: 277 8327 175
Width: 378
VWidth: 0
Flags: W
HStem: 259 18<20 337>
DStem2: 156 -199 174 -199 0.368956 0.929447<6.64121 492.468>
LayerCount: 2
Back
SplineSet
15 215 m 1
 15 277 l 1
 334 277 l 1
 351 246 l 1
 169 -199 l 1
 99 -199 l 1
 270 215 l 5
 15 215 l 1
EndSplineSet
Fore
SplineSet
20 259 m 1
 20 277 l 1
 347 277 l 1
 357 262 l 1
 174 -199 l 1
 156 -199 l 1
 337 259 l 1
 20 259 l 1
EndSplineSet
Validated: 1
EndChar

StartChar: eightinferior
Encoding: 278 8328 176
Width: 510
VWidth: 0
Flags: W
HStem: -201 18<147.784 364.485> 32 18<147.334 359.74> 262 18<153.43 361.406>
VStem: 89 18<-144.594 -8.77507 89.0518 214.196> 405 18<-142.028 -8.92188 91.8071 217.562>
LayerCount: 2
Back
SplineSet
66 -39 m 2
 66 9 95 25 121 33 c 1
 79 47 66 89 66 123 c 2
 66 163 l 2
 66 255 115 280 182 280 c 2
 292 280 l 2
 362 280 400 249 400 163 c 2
 400 123 l 2
 401 109 399 58 352 48 c 1
 387 42 400 -11 400 -39 c 2
 400 -97 l 2
 400 -181 350 -201 295 -201 c 2
 175 -201 l 2
 83 -201 66 -151 66 -97 c 2
 66 -39 l 2
128 -43 m 2
 128 -93 l 2
 128 -125 138 -138 179 -138 c 2
 291 -138 l 2
 319 -138 338 -127 338 -93 c 2
 338 -43 l 2
 338 -6 321 9 292 9 c 2
 177 9 l 2
 147 9 128 -3 128 -43 c 2
128 127 m 2
 128 83 155 72 177 72 c 2
 288 72 l 2
 335 72 338 104 338 127 c 2
 338 159 l 2
 338 207 321 218 283 218 c 2
 186 218 l 2
 141 218 128 205 128 159 c 2
 128 127 l 2
EndSplineSet
Fore
SplineSet
89 -39 m 2
 89 9 135 36 162 37 c 1
 107 47 89 89 89 123 c 2
 89 163 l 2
 89 255 138 280 205 280 c 2
 315 280 l 2
 385 280 423 249 423 163 c 2
 423 123 l 2
 423 89 400 47 352 43 c 1
 385 37 423 6 423 -39 c 2
 423 -97 l 2
 423 -181 373 -201 318 -201 c 2
 198 -201 l 2
 106 -201 89 -151 89 -97 c 2
 89 -39 l 2
107 -41 m 2
 107 -93 l 2
 107 -158 132 -183 202 -183 c 2
 314 -183 l 2
 373 -183 405 -161 405 -93 c 2
 405 -43 l 2
 405 10 354 32 325 32 c 2
 200 32 l 2
 146 32 107 1 107 -41 c 2
107 127 m 2
 107 74 145 50 190 50 c 2
 321 50 l 2
 361 50 405 76 405 127 c 2
 405 159 l 2
 405 243 372 262 306 262 c 2
 209 262 l 2
 141 262 107 239 107 159 c 2
 107 127 l 2
EndSplineSet
Validated: 1
EndChar

StartChar: nineinferior
Encoding: 279 8329 177
Width: 472
VWidth: 0
Flags: W
HStem: -193 12<77 313.766> 24 18<104.985 350.295> 31 11<168.301 387> 263 18<121.495 318.115>
VStem: 61 18<65.7536 220.275> 387 18<-75.8852 31 42 153.551>
LayerCount: 2
Back
SplineSet
45 103 m 2
 45 176 l 2
 45 248 89 281 150 281 c 2
 257 281 l 2
 329 281 391 244 389 31 c 0
 387.15 -165.991 333 -194 267 -199 c 0xd6
 201.188 -203.985 127 -200 61 -187 c 5
 61 -137 l 1x8e
 262 -137 l 2
 321 -137 326 -39 327 16 c 1xb6
 272 10 198 2 150 2 c 0
 62 2 45 52 45 103 c 2
107 107 m 2
 107 71 124 64 154 64 c 2xc6
 327 64 l 1xa6
 327 97 328 219 263 219 c 2
 154 219 l 2
 121 219 107 204 107 168 c 2
 107 107 l 2
EndSplineSet
Fore
SplineSet
61 103 m 6xdc
 61 176 l 6
 61 248 105 281 166 281 c 6
 273 281 l 6
 345 281 407 244 405 31 c 4
 403 -166 348 -197 283 -199 c 4
 216 -201 119 -199 77 -193 c 5
 77 -181 l 5
 282 -181 l 6
 366 -181 386 -92 387 31 c 5xbc
 332 25 214 24 166 24 c 4
 78 24 61 52 61 103 c 6xdc
79 104 m 6
 79 47 113 42 167 42 c 6xdc
 387 42 l 5
 387 218 344 263 273 263 c 6
 167 263 l 6
 109 263 79 232 79 176 c 6
 79 104 l 6
EndSplineSet
Validated: 33
EndChar

StartChar: zero.oldstyle
Encoding: 280 -1 178
Width: 662
VWidth: 0
Flags: W
HStem: 0 24<198.235 469.778> 607 24<199.047 469.466>
VStem: 94 24<98.4243 528.128> 544 24<95.3073 532.703>
LayerCount: 2
Back
SplineSet
144 162 m 2
 144 95 194 74 242 74 c 10
 406 74 l 18
 470 74 499 108 499 162 c 2
 499 469 l 2
 499 515 480 557 406 557 c 2
 242 557 l 2
 172 557 144 517 144 469 c 2
 144 162 l 2
70 162 m 10
 70 469 l 2
 70 577 147 631 242 631 c 2
 406 631 l 2
 528 631 573 560 573 469 c 26
 573 162 l 18
 573 43 505 0 406 0 c 2
 242 0 l 2
 151 0 70 42 70 162 c 10
EndSplineSet
Fore
SplineSet
94 162 m 10
 94 469 l 2
 94 577 171 631 266 631 c 2
 400 631 l 2
 522 631 568 560 568 469 c 26
 568 162 l 18
 568 43 499 0 400 0 c 2
 266 0 l 2
 175 0 94 42 94 162 c 10
118 162 m 2
 118 70 176 24 266 24 c 10
 400 24 l 18
 504 24 544 77 544 162 c 2
 544 469 l 2
 544 559 496 607 400 607 c 2
 266 607 l 2
 177 607 118 557 118 469 c 2
 118 162 l 2
EndSplineSet
Validated: 1
Substitution2: "'tnum' Tabular Numbers in Latin lookup 7-1" zero.tosf
Substitution2: "'lnum' Lining Figures lookup 19-1" zero
EndChar

StartChar: one.oldstyle
Encoding: 281 -1 179
Width: 347
VWidth: 0
Flags: W
HStem: 0 21G<208 232>
VStem: 208 24<0 605>
LayerCount: 2
Back
SplineSet
30 494 m 1
 30 547 l 1
 198 632 l 1
 272 632 l 1
 272 0 l 1
 198 0 l 1
 198 548 l 1
 30 494 l 1
EndSplineSet
Fore
SplineSet
40 534 m 1
 40 547 l 1
 208 632 l 1
 232 632 l 1
 232 0 l 1
 208 0 l 1
 208 605 l 1
 40 534 l 1
EndSplineSet
Validated: 1
Substitution2: "'tnum' Tabular Numbers in Latin lookup 7-1" one.tosf
Substitution2: "'lnum' Lining Figures lookup 19-1" one
EndChar

StartChar: two.oldstyle
Encoding: 282 -1 180
Width: 597
VWidth: 0
Flags: W
HStem: 0 24<111 525> 615 23<141.304 399.709> 615 13<55 110.06>
VStem: 506 19<409.472 513.996>
LayerCount: 2
Back
SplineSet
41 564 m 2
 41 618 l 1
 139 632 229 643 344 638 c 1
 484 638 547 564 547 451 c 3
 547 280 258 104 200 74 c 9
 542 74 l 25
 542 0 l 25
 47 0 l 25
 47 68 l 17
 174 139 472 306 472 453 c 3
 472 526 435 567 343 564 c 1
 41 564 l 2
EndSplineSet
Fore
SplineSet
55 615 m 2xb0
 55 628 l 1xb0
 106 636 212 643 327 638 c 1
 467 638 530 564 530 451 c 3
 530 286 171 54 111 24 c 9
 525 24 l 25
 525 0 l 25
 60 0 l 25
 60 23 l 17
 152 71 506 298 506 453 c 3
 506 575 424 615 316 615 c 2xd0
 55 615 l 2xb0
EndSplineSet
Validated: 33
Substitution2: "'tnum' Tabular Numbers in Latin lookup 7-1" two.tosf
Substitution2: "'lnum' Lining Figures lookup 19-1" two
EndChar

StartChar: three.oldstyle
Encoding: 283 -1 181
Width: 627
VWidth: 0
Flags: W
HStem: -108 25<160.46 423.173> -97 14<74 147.775> 251 27<136 408.346> 258 14<136 348> 609 24<167.789 420.348> 609 14<68 125.764>
VStem: 502 25<-4.25931 168.144 347.722 531.797>
LayerCount: 2
Back
SplineSet
50 565 m 1x06
 50 611 l 1
 138 642 251 641 368 639 c 0x8a
 478 637 539 566 539 474 c 2
 539 405 l 2
 539 332 513 285 473 269 c 1
 514 243 539 201 539 125 c 2
 539 66 l 2
 539 -43 483 -102 361 -102 c 4
 247 -102 144 -105 56 -74 c 1x42
 57 -27 l 1
 355 -27 l 2xa2
 408 -27 463 -12.6667 463 66 c 2
 463 125 l 2
 463 203 415 229 361 231 c 2
 118 238 l 2x12
 118 296 l 1
 361 306 l 2x2a
 430 309 465 344 465 405 c 2
 465 474 l 2
 465 539 413 565 361 565 c 2
 50 565 l 1x06
EndSplineSet
Fore
SplineSet
68 609 m 1x06
 68 623 l 1x06
 128 634 239 635 356 633 c 0
 475 631 527 560 527 468 c 2
 527 399 l 2
 527 294 436 266 406 264 c 1
 438 259 527 223 527 119 c 1
 527 60 l 2
 527 -49 470 -108 348 -108 c 0x8a
 234 -108 113 -105 74 -97 c 1
 74 -83 l 1x42
 348 -83 l 2
 427 -83 500 -57 500 60 c 2
 500 119 l 2
 500 219 405 249 348 251 c 2xa2
 136 258 l 2
 136 272 l 1x12
 348 278 l 1
 426 279 502 314 502 399 c 2
 502 468 l 2
 502 567 436 609 354 609 c 2x2a
 68 609 l 1x06
EndSplineSet
Validated: 33
Substitution2: "'tnum' Tabular Numbers in Latin lookup 7-1" three.tosf
Substitution2: "'lnum' Lining Figures lookup 19-1" three
EndChar

StartChar: four.oldstyle
Encoding: 284 -1 182
Width: 575
VWidth: 0
Flags: W
HStem: 111 24<56 434 458 521> 121 14<485 548>
VStem: 434 24<-99 111 135 423.5> 444 14<393.5 446>
DStem2: 27 136 56 135 0.527064 0.849826<14.435 582.472>
LayerCount: 2
Back
SplineSet
20 124 m 1
 341 632 l 1
 429 632 l 1
 135 165 l 1
 419 165 l 1
 419 372 l 1xa0
 456 447 l 1
 493 447 l 1
 493 165 l 1
 583 165 l 1
 583 106 l 1x60
 493 87 l 1
 493 -98 l 1
 419 -98 l 1
 419 87 l 1
 54 87 l 1
 20 124 l 1
EndSplineSet
Fore
SplineSet
27 136 m 1xa0
 334 631 l 1
 361 631 l 1
 56 135 l 1
 434 135 l 1
 434 371 l 1xa0
 444 446 l 1
 458 446 l 1x90
 458 135 l 1xa0
 548 135 l 1
 548 121 l 1x60
 458 111 l 1
 458 -99 l 1
 434 -99 l 1
 434 111 l 1
 39 111 l 1
 27 136 l 1xa0
EndSplineSet
Validated: 1
Substitution2: "'tnum' Tabular Numbers in Latin lookup 7-1" four.tosf
Substitution2: "'lnum' Lining Figures lookup 19-1" four
EndChar

StartChar: five.oldstyle
Encoding: 285 -1 183
Width: 672
VWidth: 0
Flags: W
HStem: -105 24<216.497 464.312> -95 14<103 184.796> 306 24<205.441 469.739> 607 24<149 549>
VStem: 104 24<181 228.375> 546 24<3.21568 229.535>
LayerCount: 2
Back
SplineSet
76.5 -25 m 1x7c
 380.5 -25 l 2
 449.5 -25 469.5 24 469.5 68 c 2
 469.5 178 l 2
 469.5 211 469.5 272 380.5 272 c 2
 226.5 272 l 2
 187.5 272 143.5 251 143.5 197 c 1
 77.5 197 l 1
 99.5 632 l 17
 522.5 632 l 1
 522.5 558 l 1
 168.5 558 l 25
 155.5 316 l 1xbc
 192.5 362 331.5 346 380.5 346 c 0
 498.5 346 543.5 277 543.5 180 c 2
 543.5 66 l 2
 543.5 -71 442.5 -104 380.5 -104 c 3xbc
 256.303 -104 210.5 -103 76.5 -80 c 1
 76.5 -25 l 1x7c
EndSplineSet
Fore
SplineSet
103 -81 m 5x7c
 407 -81 l 6
 477 -81 546 -33 546 67 c 6
 546 162 l 6
 546 212 532 306 406 306 c 6
 253 306 l 6
 193 306 128 247 128 181 c 5
 104 181 l 5
 126 631 l 21
 549 631 l 5
 549 607 l 5
 149 607 l 29
 132 264 l 5
 140 279 184 330 256 330 c 4
 329 330 376 330 407 330 c 4
 525 330 570 261 570 164 c 6
 570 65 l 6
 570 -72 469 -105 407 -105 c 7xbc
 283 -105 175 -105 103 -95 c 5
 103 -81 l 5x7c
EndSplineSet
Validated: 1
Substitution2: "'tnum' Tabular Numbers in Latin lookup 7-1" five.tosf
Substitution2: "'lnum' Lining Figures lookup 19-1" five
EndChar

StartChar: six.oldstyle
Encoding: 286 -1 184
Width: 636
VWidth: 0
Flags: W
HStem: -1 24<222.704 465.91> 380 25<205.125 474.793> 380 14<112 200.397> 714 24<218.013 449.941> 714 15<397.444 532>
VStem: 88 24<215.427 380 394 530.747> 533 23<88.715 322.203>
LayerCount: 2
Back
SplineSet
75 384 m 0
 75 649 164 738 247 738 c 0xd6
 348 738 446 732 549 719 c 1
 549 664 l 1x8e
 260 664 l 2
 169 664 151 491 149 407 c 1xb6
 234 417 338 428 412 428 c 0
 548 428 573 357 573 279 c 2
 573 148 l 2
 573 36 506 -1 412 -1 c 2
 263 -1 l 2
 154 0 75 69 75 384 c 0
149 354 m 1xa6
 149 260 153 73 263 73 c 2
 412 73 l 2
 463 73 500 83 500 154 c 2
 500 279 l 2
 500 340 458 354 412 354 c 2xc6
 149 354 l 1xa6
EndSplineSet
Fore
SplineSet
88 384 m 0xc6
 88 642 168 738 260 738 c 0xd6
 361 738 471 736 532 729 c 1
 532 714 l 1x8e
 263 714 l 2
 136 714 112 506 112 394 c 1xb6
 197 404 321 405 395 405 c 0
 529 405 556 341 556 259 c 2
 556 148 l 2
 556 36 489 -1 395 -1 c 2
 276 -1 l 2
 167 -1 88 81 88 384 c 0xc6
112 380 m 1xa6
 112 224 132 23 276 23 c 2
 395 23 l 2
 457 23 533 42 533 146 c 2
 533 259 l 2
 533 364 471 380 395 380 c 2xc6
 112 380 l 1xa6
EndSplineSet
Validated: 1
Substitution2: "'tnum' Tabular Numbers in Latin lookup 7-1" six.tosf
Substitution2: "'lnum' Lining Figures lookup 19-1" six
EndChar

StartChar: seven.oldstyle
Encoding: 287 -1 185
Width: 535
VWidth: 0
Flags: W
HStem: 607 24<40 466>
DStem2: 228 -101 256 -101 0.318233 0.948013<8.91052 746.932>
LayerCount: 2
Back
SplineSet
20 558 m 1
 20 632 l 1
 479 632 l 1
 506 584 l 1
 241 -100 l 1
 153 -100 l 1
 411 558 l 1
 20 558 l 1
EndSplineSet
Fore
SplineSet
40 607 m 1
 40 631 l 1
 478 631 l 1
 494 608 l 1
 256 -101 l 1
 228 -101 l 1
 466 607 l 1
 40 607 l 1
EndSplineSet
Validated: 1
Substitution2: "'tnum' Tabular Numbers in Latin lookup 7-1" seven.tosf
Substitution2: "'lnum' Lining Figures lookup 19-1" seven
EndChar

StartChar: eight.oldstyle
Encoding: 288 -1 186
Width: 655
VWidth: 0
Flags: W
HStem: 0 24<202.368 454.182> 362 23<204.105 457.192> 713 24<202.078 463.215>
VStem: 101 24<93.7098 299.074 437.582 638.886> 531 24<95.9464 311.455 450.73 638.75>
LayerCount: 2
Back
SplineSet
75 154 m 2
 75 252 l 2
 75 326 120 346 160 359 c 1
 96 381 75 446 75 499 c 2
 75 564 l 2
 75 698 148 737 251 737 c 2
 397 737 l 2
 504 737 559 687 559 564 c 2
 559 499 l 2
 560 477 556 398 484 383 c 1
 538 373 560 295 559 252 c 2
 559 154 l 2
 559 24 460 0 396 0 c 2
 251 0 l 2
 79 0 75 113 75 154 c 2
149 151 m 2
 149 102 178 74 251 74 c 2
 396 74 l 2
 439 74 485 98 485 151 c 2
 485 256 l 2
 485 313 443 337 399 337 c 2
 240 337 l 2
 194 337 149 318 149 256 c 2
 149 151 l 2
149 494 m 2
 149 427 206 410 240 410 c 2
 399 410 l 2
 472 410 485 458 485 494 c 2
 485 562 l 2
 485 636 456 663 397 663 c 2
 251 663 l 2
 187 663 149 652 149 562 c 2
 149 494 l 2
EndSplineSet
Fore
SplineSet
101 154 m 2
 101 253 l 2
 101 329 162 366 201 366 c 1
 115 381 101 446 101 499 c 2
 101 564 l 2
 101 698 174 737 277 737 c 2
 393 737 l 2
 500 737 555 687 555 564 c 2
 555 499 l 2
 555 445 519 384 463 380 c 1
 533 360 555 315 555 252 c 2
 555 154 l 2
 555 24 456 0 392 0 c 2
 277 0 l 2
 105 0 101 113 101 154 c 2
125 151 m 2
 125 58 192 24 277 24 c 2
 392 24 l 2
 453 24 531 55 531 151 c 2
 531 256 l 2
 531 362 445 362 395 362 c 2
 266 362 l 2
 220 362 125 338 125 256 c 2
 125 151 l 2
125 494 m 2
 125 393 200 385 266 385 c 2
 395 385 l 2
 492 385 531 448 531 494 c 2
 531 562 l 2
 531 672 486 713 393 713 c 2
 277 713 l 2
 168 713 125 666 125 562 c 2
 125 494 l 2
EndSplineSet
Validated: 1
Substitution2: "'tnum' Tabular Numbers in Latin lookup 7-1" eight.tosf
Substitution2: "'lnum' Lining Figures lookup 19-1" eight
EndChar

StartChar: nine.oldstyle
Encoding: 289 -1 187
Width: 636
VWidth: 0
Flags: W
HStem: -107 24<187.059 418.987> -98 15<105 239.556> 226 25<162.207 431.875> 237 14<436.603 525> 608 24<171.09 414.296>
VStem: 81 23<308.797 542.285> 525 24<100.253 237 251 415.573>
LayerCount: 2
Back
SplineSet
65 352 m 2
 65 483 l 2
 65 595 132 632 226 632 c 2
 375 632 l 2
 484 631 563 562 563 247 c 0
 563 -18 474 -107 391 -107 c 0xae
 290 -107 186 -106 89 -88 c 5
 89 -33 l 1x4e
 378 -33 l 2
 469 -33 487 140 489 224 c 1x9e
 404 214 300 203 226 203 c 0
 90 203 65 274 65 352 c 2
138 352 m 2
 138 291 180 277 226 277 c 2x2e
 489 277 l 1x1e
 489 371 485 558 375 558 c 2
 226 558 l 2
 175 558 138 548 138 477 c 2
 138 352 l 2
EndSplineSet
Fore
SplineSet
81 372 m 6x2e
 81 483 l 6
 81 595 148 632 242 632 c 6
 361 632 l 6
 470 632 549 550 549 247 c 4
 549 -11 469 -107 377 -107 c 4xae
 276 -107 166 -105 105 -98 c 5
 105 -83 l 5x4e
 374 -83 l 6
 501 -83 525 125 525 237 c 5x9e
 440 227 316 226 242 226 c 4
 108 226 81 290 81 372 c 6x2e
104 372 m 6
 104 267 166 251 242 251 c 6x2e
 525 251 l 5x1e
 525 407 505 608 361 608 c 6
 242 608 l 6
 180 608 104 589 104 485 c 6
 104 372 l 6
EndSplineSet
Validated: 1
Substitution2: "'tnum' Tabular Numbers in Latin lookup 7-1" nine.tosf
Substitution2: "'lnum' Lining Figures lookup 19-1" nine
EndChar

StartChar: ampersand
Encoding: 38 38 188
Width: 653
VWidth: 0
Flags: W
HStem: 0 21G<523.225 569> 710 14<380.453 486>
DStem2: 127 366 149 353 0.762377 0.647134<-70.6613 109.889> 170 538 150 524 0.595692 -0.803213<-62.5817 105.133 130.34 487.014 513.34 651.343> 365 60 384 44 0.718677 0.695344<-56.3867 100.862 127.355 233.155>
LayerCount: 2
Back
SplineSet
141 122 m 0
 181 71 263.538 43.9424 318 95 c 2
 398 170 l 1
 242 378 l 1
 164 313 l 18
 84.4229 246.686 94.5379 181.239 141 122 c 0
78 82 m 1
 3 177 27.0059 292.156 114 366 c 2
 200 439 l 1
 137 524 l 2
 58 631 136.605 723.325 207 730 c 0
 323 741 401 727 473 710 c 1
 473 660 l 1
 270 660 l 2
 184 660 147.302 630.962 216 538 c 2
 451 220 l 1
 565 339 l 1
 588 315 l 1
 537 208 l 1
 496 163 l 1
 613 0 l 1
 525 0 l 1
 443 111 l 1
 371 44 l 2
 290 -31 149 -19 78 82 c 1
EndSplineSet
Fore
SplineSet
91 82 m 0
 13 182 40 292 127 366 c 2
 213 439 l 1
 150 524 l 2
 71 631 145 707 219 725 c 0
 277 739 414 730 486 724 c 1
 486 710 l 1
 283 710 l 2
 189 710 88 649 170 538 c 2
 459 146 l 1
 613 295 l 1
 622 287 l 1
 553 201 l 1
 475 127 l 1
 569 0 l 1
 538 0 l 1
 456 111 l 1
 384 44 l 6
 304 -31 173 -23 91 82 c 0
110 97 m 0
 172 14 289 -11 365 60 c 2
 440 130 l 1
 227 418 l 1
 149 353 l 18
 59 278 44 185 110 97 c 0
EndSplineSet
Validated: 33
AlternateSubs2: "'salt' Access All Alternates in Latin lookup 4-1" ampersand.salt
Substitution2: "'smcp' Lowercase to Small Capitals lookup 16-1" ampersand.smcp
EndChar

StartChar: asterisk
Encoding: 42 42 189
Width: 469
VWidth: 0
Flags: W
HStem: 592 14<68 210>
DStem2: 251 518 239 495 0.864292 -0.50299<1.19726 142.353>
LayerCount: 2
Back
SplineSet
176 717 m 1
 215 733 l 1
 290 615 l 1
 222 584 l 1
 176 717 l 1
50 566 m 1
 50 606 l 1
 189 635 l 1
 194 561 l 1
 50 566 l 1
118 414 m 1
 142 549 l 1
 214 532 l 1
 155 402 l 1
 118 414 l 1
208 476 m 1
 249 538 l 1
 359 447 l 1
 338 415 l 1
 208 476 l 1
251 571 m 1
 371 647 l 1
 390 612 l 1
 299 515 l 1
 251 571 l 1
EndSplineSet
Fore
SplineSet
68 592 m 5
 68 606 l 5
 210 610 l 5
 210 586 l 5
 68 592 l 5
148 409 m 5
 181 543 l 5
 207 539 l 5
 161 405 l 5
 148 409 l 5
206 723 m 5
 219 727 l 5
 286 604 l 5
 262 593 l 5
 206 723 l 5
239 495 m 5
 251 518 l 5
 369 435 l 5
 361 424 l 5
 239 495 l 5
283 552 m 5
 395 635 l 5
 403 623 l 5
 301 533 l 5
 283 552 l 5
EndSplineSet
Validated: 1
Substitution2: "'smcp' Lowercase to Small Capitals lookup 16-1" asterisk.smcp
EndChar

StartChar: Euro
Encoding: 290 8364 190
Width: 595
VWidth: 0
Flags: W
HStem: -6 24<284.727 521.604> 268 21<27 115 139 423> 430 20<27 115 139 423> 716 24<268.891 510.78>
VStem: 115 24<177.976 268 289 430 450 573.398>
LayerCount: 2
Back
SplineSet
20 255 m 1
 20 302 l 1xa6
 108 309 l 1
 108 410 l 1xd6
 20 418 l 1
 20 461 l 1x8e
 108 470 l 1
 108 542 98 740 342 740 c 3
 394 740 517 723 587 710 c 1
 587 651 l 2
 587 651 424 666 342 666 c 3
 193 666 182 587 182 470 c 1
 416 463 l 1
 416 417 l 1
 182 410 l 1
 182 309 l 1xd6
 416 302 l 1
 416 255 l 1xa6
 416 255 179 250 182 248 c 1
 182 114 248 68 342 68 c 27
 439 68 591 85 591 85 c 1
 591 29 l 1
 510 6 425 -6 342 -6 c 3
 265 -6 108 22 108 248 c 1xc6
 20 255 l 1
EndSplineSet
Fore
SplineSet
27 272 m 1
 27 286 l 1
 115 289 l 1
 115 430 l 1
 27 433 l 1
 27 446 l 1
 115 450 l 1
 115 522 105 740 349 740 c 3
 401 740 494 733 564 720 c 1
 564 706 l 2
 564 706 432 717 349 716 c 0
 162 715 138 587 139 450 c 1
 423 447 l 1
 423 433 l 1
 139 430 l 1
 139 289 l 1
 423 285 l 1
 423 271 l 1
 423 271 136 270 139 268 c 1
 136 133 214 21 349 18 c 0
 458 15 568 30 568 30 c 1
 568 15 l 1
 487 -4 434 -6 349 -6 c 3
 272 -6 115 42 115 268 c 1
 27 272 l 1
EndSplineSet
Validated: 33
Substitution2: "'smcp' Lowercase to Small Capitals lookup 16-1" Euro.smcp
EndChar

StartChar: parenleft
Encoding: 40 40 191
Width: 315
VWidth: 60
Flags: W
VStem: 101 24<188.049 452.14>
LayerCount: 2
Back
SplineSet
75 266 m 4
 75 540 234 800 234 800 c 5
 315 800 l 5
 315 800 149 538 149 266 c 7
 149 -34 315 -270 315 -270 c 5
 234 -270 l 5
 234 -270 75 -50 75 266 c 4
EndSplineSet
Fore
SplineSet
101 326 m 4
 101 600 260 860 260 860 c 5
 287 860 l 5
 287 860 125 598 125 326 c 7
 125 26 288 -210 288 -210 c 5
 260 -210 l 5
 260 -210 101 10 101 326 c 4
EndSplineSet
Validated: 1
Substitution2: "'case' Case-Sensitive Forms lookup 1-1" parenleft.alt
Substitution2: "'c2sc' Capitals to Small Capitals in Latin lookup 17 subtable" parenleft.smcp
Substitution2: "'smcp' Lowercase to Small Capitals lookup 16-1" parenleft.smcp
EndChar

StartChar: parenright
Encoding: 41 41 192
Width: 314
VWidth: 60
Flags: W
VStem: 189 24<188.049 452.14>
LayerCount: 2
Back
SplineSet
20 -270 m 5
 20 -270 186 -34 186 266 c 7
 186 538 20 800 20 800 c 5
 101 800 l 5
 101 800 260 540 260 266 c 4
 260 -50 101 -270 101 -270 c 5
 20 -270 l 5
EndSplineSet
Fore
SplineSet
27 -210 m 1
 27 -210 189 26 189 326 c 3
 189 598 27 860 27 860 c 1
 54 860 l 1
 54 860 213 600 213 326 c 0
 213 10 54 -210 54 -210 c 1
 27 -210 l 1
EndSplineSet
Validated: 1
Substitution2: "'case' Case-Sensitive Forms lookup 1-1" parenright.alt
Substitution2: "'c2sc' Capitals to Small Capitals in Latin lookup 17 subtable" parenright.smcp
Substitution2: "'smcp' Lowercase to Small Capitals lookup 16-1" parenright.smcp
EndChar

StartChar: plus
Encoding: 43 43 193
Width: 521
VWidth: 0
Flags: W
HStem: 344 24<68 248 272 454>
VStem: 248 24<163 344 368 549>
LayerCount: 2
Back
SplineSet
50 319 m 5
 50 393 l 5
 220 393 l 5
 220 564 l 5
 294 564 l 5
 294 393 l 5
 466 393 l 5
 466 319 l 5
 294 319 l 5
 294 148 l 5
 220 148 l 5
 220 319 l 5
 50 319 l 5
EndSplineSet
Fore
SplineSet
68 344 m 5
 68 368 l 5
 248 368 l 5
 248 549 l 1
 272 549 l 1
 272 368 l 5
 454 368 l 5
 454 344 l 5
 272 344 l 5
 272 163 l 1
 248 163 l 1
 248 344 l 5
 68 344 l 5
EndSplineSet
Validated: 1
EndChar

StartChar: endash
Encoding: 291 8211 194
Width: 527
VWidth: 0
Flags: W
HStem: 275 25<27 500>
LayerCount: 2
Back
SplineSet
50 250 m 5
 50 325 l 1
 523 325 l 1
 523 250 l 5
 50 250 l 5
EndSplineSet
Fore
SplineSet
27 275 m 1
 27 300 l 5
 500 300 l 5
 500 275 l 1
 27 275 l 1
EndSplineSet
Validated: 1
Substitution2: "'case' Case-Sensitive Forms lookup 1-1" endash.alt
Substitution2: "'c2sc' Capitals to Small Capitals in Latin lookup 17 subtable" endash.smcp
Substitution2: "'smcp' Lowercase to Small Capitals lookup 16-1" endash.smcp
EndChar

StartChar: emdash
Encoding: 292 8212 195
Width: 750
VWidth: 0
Flags: W
HStem: 277 25<27 723>
LayerCount: 2
Back
SplineSet
50 252 m 5
 50 327 l 1
 746 327 l 1
 746 252 l 5
 50 252 l 5
EndSplineSet
Fore
SplineSet
27 277 m 1
 27 302 l 5
 723 302 l 5
 723 277 l 1
 27 277 l 1
EndSplineSet
Validated: 1
Substitution2: "'case' Case-Sensitive Forms lookup 1-1" emdash.alt
Substitution2: "'c2sc' Capitals to Small Capitals in Latin lookup 17 subtable" emdash.smcp
Substitution2: "'smcp' Lowercase to Small Capitals lookup 16-1" emdash.smcp
EndChar

StartChar: less
Encoding: 60 60 196
Width: 480
VWidth: 0
Flags: W
DStem2: 68 365 98 355 0.873198 0.487366<21.3223 380.795> 98 355 68 345 0.860129 -0.510077<0 364.955>
LayerCount: 2
Back
SplineSet
50 314 m 5
 50 394 l 5
 425 556 l 5
 425 476 l 5
 149 354 l 5
 425 222 l 5
 425 140 l 5
 50 314 l 5
EndSplineSet
Fore
SplineSet
68 345 m 1
 68 365 l 1
 412 557 l 1
 412 530 l 1
 98 355 l 1
 412 169 l 1
 412 141 l 1
 68 345 l 1
EndSplineSet
Validated: 1
EndChar

StartChar: equal
Encoding: 61 61 197
Width: 481
VWidth: 0
Flags: W
HStem: 212 24<27 454> 471 24<27 454>
LayerCount: 2
Back
SplineSet
50 212 m 1
 50 286 l 1
 477 286 l 1
 477 212 l 1
 50 212 l 1
50 421 m 1
 50 495 l 1
 477 495 l 1
 477 421 l 1
 50 421 l 1
EndSplineSet
Fore
SplineSet
27 212 m 5
 27 236 l 5
 454 236 l 5
 454 212 l 5
 27 212 l 5
27 471 m 5
 27 495 l 5
 454 495 l 5
 454 471 l 5
 27 471 l 5
EndSplineSet
Validated: 1
EndChar

StartChar: greater
Encoding: 62 62 198
Width: 480
VWidth: 0
Flags: W
DStem2: 68 557 68 530 0.873198 -0.487366<13.1589 372.632> 68 169 68 141 0.860129 0.510077<0 364.955>
LayerCount: 2
Back
SplineSet
50 140 m 1
 50 222 l 1
 326 354 l 1
 50 476 l 1
 50 556 l 1
 425 394 l 1
 425 314 l 1
 50 140 l 1
EndSplineSet
Fore
SplineSet
68 141 m 1
 68 169 l 1
 382 355 l 1
 68 530 l 1
 68 557 l 1
 412 365 l 1
 412 345 l 1
 68 141 l 1
EndSplineSet
Validated: 1
EndChar

StartChar: multiply
Encoding: 215 215 199
Width: 438
VWidth: 0
Flags: W
HStem: 211 290
VStem: 76 290
DStem2: 93 501 76 484 0.707107 -0.707107<0 181.019 205.061 386.08> 76 228 93 211 0.707107 0.707107<0 181.019 205.061 386.08>
LayerCount: 2
Back
SplineSet
56 235 m 1
 177 355 l 1
 56 476 l 1
 108 529 l 1
 229 408 l 1
 351 529 l 1
 403 477 l 1
 281 355 l 1
 402 235 l 1
 350 182 l 1
 229 303 l 1
 109 183 l 1
 56 235 l 1
EndSplineSet
Fore
SplineSet
76 228 m 1
 204 356 l 1
 76 484 l 1
 93 501 l 1
 221 373 l 1
 349 501 l 1
 366 484 l 1
 238 356 l 1
 366 228 l 1
 349 211 l 1
 221 339 l 1
 93 211 l 1
 76 228 l 1
EndSplineSet
Validated: 1
EndChar

StartChar: divide
Encoding: 247 247 200
Width: 551
VWidth: 0
Flags: W
HStem: 147 66<262 297> 341 24<68 484> 483 66<262 297>
VStem: 262 35<147 213 483 549>
LayerCount: 2
Back
SplineSet
212 173 m 2
 212 227 l 2
 212 242 220 252 236 252 c 2
 286 252 l 2
 301 252 309 241 309 227 c 2
 309 173 l 2
 309 158 300 150 286 150 c 2
 236 150 l 2
 222 150 212 159 212 173 c 2
212 472 m 2
 212 526 l 2
 212 541 220 551 236 551 c 2
 286 551 l 2
 301 551 309 540 309 526 c 2
 309 472 l 2
 309 457 300 449 286 449 c 2
 236 449 l 2
 222 449 212 458 212 472 c 2
50 316 m 1
 50 390 l 1
 466 390 l 1
 466 316 l 1
 50 316 l 1
EndSplineSet
Fore
SplineSet
68 341 m 1
 68 365 l 1
 484 365 l 1
 484 341 l 1
 68 341 l 1
262 159 m 2
 262 201 l 2
 262 209 266 213 274 213 c 2
 285 213 l 2
 293 213 297 208 297 201 c 2
 297 159 l 2
 297 151 292 147 285 147 c 2
 274 147 l 2
 267 147 262 152 262 159 c 2
262 494 m 2
 262 537 l 2
 262 545 266 549 274 549 c 2
 285 549 l 2
 293 549 297 544 297 537 c 2
 297 494 l 2
 297 486 292 483 285 483 c 2
 274 483 l 2
 267 483 262 487 262 494 c 2
EndSplineSet
Validated: 1
EndChar

StartChar: question
Encoding: 63 63 201
Width: 532
VWidth: 0
Flags: W
HStem: 0 86<180 214.997> 297 20<211 367.454> 715 24<91.5144 366.287> 715 14<27 115.156>
VStem: 185 26<0.288284 85.7715 195 297> 454 24<389.141 633.109>
LayerCount: 2
Back
SplineSet
170 23 m 2xca
 170 80 l 2
 170 95 178 105 194 105 c 2
 249 105 l 2
 264 105 272 94 272 80 c 2
 272 23 l 2
 272 8 263 0 249 0 c 2
 194 0 l 2
 180 0 170 9 170 23 c 2xca
20 664 m 2
 20 719 l 1xd6
 122 732 187 744 302 739 c 1
 454 739 501 652 501 554 c 2
 501 453 l 2
 501 318 393 275 258 296 c 1xe6
 258 195 l 1
 183 195 l 1
 183 357 l 1
 325 357 l 0
 374 359 428 386 428 453 c 2
 428 554 l 2
 428 632 388 664 291 664 c 2xe6
 20 664 l 2
EndSplineSet
Fore
SplineSet
27 715 m 2xdc
 27 729 l 1xdc
 105 738 196 739 279 739 c 1
 436 742 478 672 478 554 c 2
 478 453 l 2
 478 318 399 278 211 297 c 1
 211 195 l 1
 185 195 l 1
 185 317 l 1
 291 317 l 0
 395 317 454 352 454 453 c 2
 454 554 l 2
 454 674 403 715 278 715 c 2xec
 27 715 l 2xdc
180 12 m 2
 180 74 l 6
 180 82 184 86 192 86 c 6
 204 86 l 6
 212 86 215 81 215 74 c 6
 215 12 l 2
 215 4 211 0 204 0 c 2
 192 0 l 2
 185 0 180 5 180 12 c 2
EndSplineSet
Validated: 33
Substitution2: "'smcp' Lowercase to Small Capitals lookup 16-1" question.smcp
EndChar

StartChar: bracketleft
Encoding: 91 91 202
Width: 327
VWidth: 60
Flags: W
HStem: -210 24<201.698 301> 818 24<201.698 301>
VStem: 115 24<-113.971 747.223>
LayerCount: 2
Back
SplineSet
85 -98 m 6
 85 610 l 6
 85 670 100 782 221 782 c 6
 301 782 l 5
 301 708 l 5
 221 708 l 6
 183 708 159 670 159 610 c 6
 159 -98 l 6
 159 -158 183 -196 221 -196 c 6
 301 -196 l 5
 301 -270 l 5
 221 -270 l 6
 100 -270 85 -158 85 -98 c 6
EndSplineSet
Fore
SplineSet
115 -38 m 6
 115 670 l 6
 115 730 130 842 251 842 c 6
 301 842 l 5
 301 818 l 5
 251 818 l 6
 185 818 139 775 139 670 c 6
 139 -38 l 6
 139 -118 168 -186 251 -186 c 6
 301 -186 l 5
 301 -210 l 5
 251 -210 l 6
 130 -210 115 -98 115 -38 c 6
EndSplineSet
Validated: 1
EndChar

StartChar: bracketright
Encoding: 93 93 203
Width: 327
VWidth: 60
Flags: W
HStem: -210 24<27 126.302> 818 24<27 126.302>
VStem: 189 24<-113.971 747.223>
LayerCount: 2
Back
SplineSet
20 -196 m 1
 100 -196 l 2
 138 -196 162 -158 162 -98 c 2
 162 610 l 2
 162 670 138 708 100 708 c 2
 20 708 l 1
 20 782 l 1
 100 782 l 2
 221 782 236 670 236 610 c 2
 236 -98 l 2
 236 -158 221 -270 100 -270 c 2
 20 -270 l 1
 20 -196 l 1
EndSplineSet
Fore
SplineSet
27 -186 m 5
 77 -186 l 6
 160 -186 189 -118 189 -38 c 6
 189 670 l 6
 189 775 143 818 77 818 c 6
 27 818 l 5
 27 842 l 5
 77 842 l 6
 198 842 213 730 213 670 c 6
 213 -38 l 6
 213 -98 198 -210 77 -210 c 6
 27 -210 l 5
 27 -186 l 5
EndSplineSet
Validated: 1
EndChar

StartChar: braceleft
Encoding: 123 123 204
Width: 304
VWidth: 60
Flags: W
HStem: -210 24<206.813 277> 818 24<212.846 277>
VStem: 116 24<-116.063 284.174 379.993 736.649>
LayerCount: 2
Back
SplineSet
20 240 m 1
 20 307 l 1
 53 310 110 309 110 360 c 2
 110 596 l 2
 110 692 167 782 300 782 c 1
 300 708 l 1
 237 708 184 687 184 596 c 2
 184 360 l 2
 184 312 147 283 99 274 c 1
 147 267 183 233 183 191 c 2
 183 -98 l 2
 183 -163 230 -200 300 -196 c 1
 300 -270 l 1
 151 -270 109 -176 109 -98 c 2
 109 187 l 2
 109 229 60 243 20 240 c 1
EndSplineSet
Fore
SplineSet
27 320 m 1
 27 347 l 1
 60 350 117 362 117 420 c 2
 117 656 l 2
 117 752 144 842 277 842 c 1
 277 818 l 1
 189 818 141 778 141 656 c 6
 141 420 l 2
 141 372 104 340 61 334 c 1
 104 328 140 293 140 251 c 2
 140 -38 l 2
 140 -152 186 -186 277 -186 c 1
 277 -210 l 1
 128 -210 116 -116 116 -38 c 2
 116 247 l 2
 116 295 67 323 27 320 c 1
EndSplineSet
Validated: 33
EndChar

StartChar: braceright
Encoding: 125 125 205
Width: 304
VWidth: 60
Flags: W
HStem: -210 24<27 97.1873> 818 24<27 91.1536>
VStem: 164 24<-116.063 284.174 379.993 736.649>
LayerCount: 2
Back
SplineSet
20 -196 m 5
 90 -200 137 -163 137 -98 c 6
 137 191 l 6
 137 233 173 267 221 274 c 5
 173 283 136 312 136 360 c 6
 136 596 l 6
 136 687 83 708 20 708 c 5
 20 782 l 5
 153 782 210 692 210 596 c 6
 210 360 l 6
 210 309 267 310 300 307 c 5
 300 240 l 5
 260 243 211 229 211 187 c 6
 211 -98 l 6
 211 -176 169 -270 20 -270 c 5
 20 -196 l 5
EndSplineSet
Fore
SplineSet
27 -186 m 5
 118 -186 164 -152 164 -38 c 6
 164 251 l 6
 164 293 200 328 243 334 c 5
 200 340 163 372 163 420 c 6
 163 656 l 6
 163 778 115 818 27 818 c 5
 27 842 l 5
 160 842 187 752 187 656 c 6
 187 420 l 6
 187 362 244 350 277 347 c 5
 277 320 l 5
 237 323 188 295 188 247 c 6
 188 -38 l 6
 188 -116 176 -210 27 -210 c 5
 27 -186 l 5
EndSplineSet
Validated: 33
EndChar

StartChar: at
Encoding: 64 64 206
Width: 866
VWidth: 0
Flags: W
HStem: -178 25<194.544 647.342> -9 24<312.576 434.266> 0 21G<590.812 609> 270 24<312.937 519.6> 488 24<184.494 519.709> 676 24<286.88 639.139> 676 14<186 248.688>
VStem: 88 24<-68.2893 415.711> 233 24<66.586 215.531> 585 24<8 64 73.3264 280 293.646 425.767> 593 16<0 64> 728 24<-73.1217 584.594>
LayerCount: 2
Back
SplineSet
65 0 m 2
 65 348 l 2
 65 384 67 512 233 512 c 10
 448 512 l 18xf740
 519 512 601 482 601 372 c 2xf740
 601 0 l 9
 545 0 l 25xf6c0
 531 64 l 17
 529 64 444 -9 353 -9 c 1
 279 -11 224 40 225 108 c 10
 225 161 l 2
 225 241 271 294 354 294 c 8
 422 294 529 293 529 294 c 0
 529 294 530 370 529 370 c 2
 529 426 499 438 445 438 c 2
 233 438 l 2
 185 438 139 428 139 348 c 2
 139 0 l 2
 139 -90 193 -103 233 -103 c 10
 582 -103 l 2
 664 -103 685 -68 685 0 c 2
 685 512 l 2
 685 589 643 626 582 626 c 2xf740
 178 626 l 9
 178 673 l 17xef40
 226 683 340 701 466 700 c 0
 582 700 l 6
 688 698 759 637 759 512 c 10
 759 0 l 2
 759 -98 720 -178 582 -178 c 2
 233 -178 l 2
 131 -178 65 -116 65 0 c 2
299 114 m 2
 299 93 327 64 360 65 c 1
 419 64 479 95 529 119 c 9
 529 242 l 17
 359 226 l 2
 319 222 298 194 299 159 c 2
 299 158 299 115 299 114 c 2
EndSplineSet
Fore
SplineSet
88 0 m 2xbdd0
 88 348 l 2
 88 384 90 512 256 512 c 10
 456 512 l 18
 527 512 609 482 609 372 c 2xbdd0
 609 0 l 9
 593 0 l 25xbdb0
 586 64 l 17
 584 64 452 -9 361 -9 c 1xd9b0
 287 -11 232 40 233 108 c 10
 233 161 l 2
 233 241 279 294 362 294 c 8
 449 294 585 293 585 294 c 0
 585 294 586 369 585 370 c 2
 585 452 533 488 453 488 c 2
 256 488 l 2
 170 488 112 451 112 348 c 2
 112 0 l 2
 112 -118 188 -153 256 -153 c 10
 575 -153 l 2
 678 -153 728 -102 728 0 c 2
 728 512 l 2
 728 606 679 676 575 676 c 2xbdd0
 186 676 l 9
 186 690 l 17x9bd0
 234 700 348 701 474 700 c 0
 575 700 l 2
 681 698 752 637 752 512 c 10
 752 0 l 2
 752 -98 713 -178 575 -178 c 2
 256 -178 l 2
 154 -178 88 -116 88 0 c 2xbdd0
257 114 m 2
 257 54 300 15 368 15 c 1xd9d0
 427 14 535 54 585 78 c 9
 585 280 l 17
 367 270 l 2
 327 268 257 257 257 159 c 2
 256 158 256 115 257 114 c 2
EndSplineSet
Validated: 33
Substitution2: "'case' Case-Sensitive Forms lookup 1-1" at.alt
Substitution2: "'smcp' Lowercase to Small Capitals lookup 16-1" at.smcp
EndChar

StartChar: breve
Encoding: 293 728 207
Width: 363
VWidth: 0
Flags: W
HStem: 530 14<145.991 218.254>
VStem: 68 14<608.795 644> 284 14<608.18 644>
LayerCount: 2
Back
SplineSet
50 644 m 1
 97 644 l 1
 97 605 131 577 164 577 c 0
 202 577 233 602 233 644 c 1
 280 644 l 1
 280 568 219 530 164 530 c 0
 109 530 50 572 50 644 c 1
EndSplineSet
Fore
SplineSet
68 644 m 1
 82 644 l 1
 82 587 128 543 182 544 c 0
 241 545 284 586 284 644 c 1
 298 644 l 1
 298 568 237 530 182 530 c 0
 127 530 68 572 68 644 c 1
EndSplineSet
Validated: 33
EndChar

StartChar: ogonek
Encoding: 294 731 208
Width: 258
VWidth: 0
Flags: W
HStem: -181 14<142.805 191> -20 20G<72.5 159>
LayerCount: 2
Back
SplineSet
132 0 m 1
 171 0 l 1
 88 -68 95 -119 174 -121 c 9
 174 -181 l 16
 59 -197 -18 -64 132 0 c 1
EndSplineSet
Fore
SplineSet
147 0 m 5
 159 0 l 5
 48 -45 60 -170 191 -167 c 9
 191 -181 l 16
 76 -197 -2 -66 147 0 c 5
EndSplineSet
Validated: 33
EndChar

StartChar: caron
Encoding: 295 711 209
Width: 407
VWidth: 0
Flags: W
HStem: 531 130
VStem: 68 272
DStem2: 197 546 186 531 0.672106 -0.740455<-161.1 0> 197 546 208 531 0.712484 0.701689<0 169.755>
LayerCount: 2
Back
SplineSet
50 661 m 1
 122 661 l 1
 202 590 l 1
 271 661 l 1
 342 661 l 1
 238 531 l 1
 167 531 l 1
 50 661 l 1
238 531 m 1
167 531 m 1
EndSplineSet
Fore
SplineSet
68 661 m 5
 84 661 l 5
 197 546 l 5
 322 661 l 5
 340 661 l 5
 208 531 l 5
 186 531 l 5
 68 661 l 5
186 531 m 5
208 531 m 5
EndSplineSet
Validated: 1
Substitution2: "'smcp' Lowercase to Small Capitals lookup 16-1" caron.smcp
EndChar

StartChar: hungarumlaut
Encoding: 296 733 210
Width: 344
VWidth: 0
Flags: W
HStem: 531 133
VStem: 27 286
DStem2: 27 531 41 531 0.707107 0.707107<9.8995 179.605> 166 531 180 531 0.707107 0.707107<9.8995 179.605>
LayerCount: 2
Back
SplineSet
155 531 m 25
 262 664 l 25
 357 664 l 25
 224 531 l 25
 155 531 l 25
20 531 m 25
 127 664 l 25
 222 664 l 25
 89 531 l 25
 20 531 l 25
EndSplineSet
Fore
SplineSet
27 531 m 25
 148 664 l 25
 174 664 l 25
 41 531 l 25
 27 531 l 25
166 531 m 25
 287 664 l 25
 313 664 l 25
 180 531 l 25
 166 531 l 25
EndSplineSet
Validated: 1
EndChar

StartChar: dotaccent
Encoding: 297 729 211
Width: 170
VWidth: 0
Flags: W
HStem: 566 86<62 97>
VStem: 62 35<566 652>
LayerCount: 2
Back
SplineSet
50 556 m 2
 50 610 l 2
 50 625 58 635 74 635 c 2
 124 635 l 2
 139 635 147 624 147 610 c 2
 147 556 l 2
 147 541 138 533 124 533 c 2
 74 533 l 2
 60 533 50 542 50 556 c 2
EndSplineSet
Fore
SplineSet
62 578 m 2
 62 640 l 2
 62 648 66 652 74 652 c 2
 85 652 l 2
 93 652 97 647 97 640 c 2
 97 578 l 2
 97 570 92 566 85 566 c 2
 74 566 l 2
 67 566 62 571 62 578 c 2
EndSplineSet
Validated: 1
EndChar

StartChar: Aogonek
Encoding: 298 260 212
Width: 659
VWidth: 0
Flags: W
HStem: -180.922 14<608.805 657> -19.9219 20<538.5 625> 0 21<61 94.4308 597.806 631> 253 24<190 505> 712 20<327.514 376.158>
DStem2: 61 0 87 0 0.350563 0.936539<9.11463 279.012 304.644 765.084> 369 732 352 708 0.336988 -0.941509<16.8674 474.217 499.846 768.714>
LayerCount: 2
Back
SplineSet
544 1 m 1
 583 1 l 1
 500 -67 507 -118 586 -120 c 9
 586 -180 l 16
 471 -196 394 -63 544 1 c 1
20 0 m 1
 289 732 l 1
 363 732 l 1
 620 0 l 1
 542 0 l 1
 469 204 l 1
 177 204 l 1
 101 0 l 1
 20 0 l 1
204 278 m 1
 443 278 l 1
 325 619 l 1
 204 278 l 1
EndSplineSet
Fore
Refer: 208 731 N 1 0 0 1 466 0.0780826 2
Refer: 7 65 N 1 0 0 1 0 0 2
Validated: 5
Substitution2: "'c2sc' Capitals to Small Capitals in Latin lookup 17 subtable" aogonek.smcp
EndChar

StartChar: Lcaron
Encoding: 299 317 213
Width: 559
VWidth: 0
Flags: W
HStem: 0 24<177.525 520> 712 20G<108 132>
VStem: 108 24<68.7894 732> 217 25<571 772>
LayerCount: 2
Back
SplineSet
202 705 m 5
 202 772 l 5
 276 772 l 5
 276 705 l 5
 266 571 l 5
 213 571 l 5
 202 705 l 5
50 0 m 1
 51 732 l 1
 125 732 l 1
 125 74 l 1
 458 74 l 1
 458 1 l 1
 50 0 l 1
EndSplineSet
Fore
SplineSet
108 126 m 2
 108 732 l 1
 132 732 l 1
 132 126 l 2
 132 34 190 24 244 24 c 2
 520 24 l 5
 520 0 l 5
 244 0 l 2
 178 0 108 13 108 126 c 2
217 705 m 1
 217 772 l 1
 242 772 l 1
 242 705 l 1
 236 571 l 1
 224 571 l 1
 217 705 l 1
EndSplineSet
Validated: 1
Substitution2: "'c2sc' Capitals to Small Capitals in Latin lookup 17 subtable" lcaron.smcp
EndChar

StartChar: aogonek
Encoding: 307 261 221
Width: 561
VWidth: 0
Flags: W
HStem: -181 14<455.805 504> -20 20<385.5 472> -6 24<154.453 284.875> 296 24<150.625 375.4> 519 22<188.375 377.704>
VStem: 73 24<75.768 243.178> 448 24<14.2222 64 73.9396 306 319.713 450.055> 457 15<0 49.7778>
LayerCount: 2
Back
SplineSet
427 0 m 1
 466 0 l 1
 383 -68 390 -119 469 -121 c 9
 469 -181 l 16
 354 -197 277 -64 427 0 c 1
124 131 m 6xf8
 124 83 149 68 183 68 c 4
 263 68 405 119 405 119 c 13
 405 268 l 21
 183 252 l 5
 140 248 124 219 124 187 c 6
 124 131 l 6xf8
50 126 m 14
 50 187 l 6
 50 267 100 320 183 320 c 6
 183 320 405 319 405 320 c 4
 405 320 406 386 405 387 c 6
 405 448 373 469 323 469 c 4
 251 469 164 462 67 457 c 13
 67 511 l 21
 141 522 227 540 326 541 c 4
 409 542 479 497 479 387 c 6xf8
 479 0 l 13
 424 0 l 29xf4
 405 64 l 21
 403 64 274 -6 183 -6 c 31
 110 -6 50 41 50 126 c 14
EndSplineSet
Fore
Refer: 208 731 N 1 0 0 1 313 0 2
Refer: 0 97 N 1 0 0 1 19 0 2
Validated: 5
AlternateSubs2: "'salt' Access All Alternates in Latin lookup 4-1" aogonek.salt
Substitution2: "'smcp' Lowercase to Small Capitals lookup 16-1" aogonek.smcp
EndChar

StartChar: lcaron
Encoding: 308 318 222
Width: 298
VWidth: 0
Flags: W
HStem: 0 13<226.454 271> 763 19G<81 105 205 230>
VStem: 81 24<91.0995 783> 205 25<581 782>
LayerCount: 2
Back
SplineSet
90 189 m 2
 90 783 l 1
 164 783 l 1
 164 189 l 2
 164 102 178 86 221 74 c 2
 221 74 303 53 310 53 c 1
 310 0 l 1
 222 0 l 2
 128 0 90 48 90 189 c 2
240 714 m 1
 240 781 l 1
 314 781 l 5
 314 714 l 5
 304 580 l 5
 251 580 l 1
 240 714 l 1
EndSplineSet
Fore
SplineSet
81 189 m 2
 81 783 l 1
 105 783 l 1
 105 189 l 2
 105 54 143 32 197 24 c 2
 197 24 264 13 271 13 c 1
 271 0 l 1
 199 0 l 2
 122 0 81 48 81 189 c 2
205 715 m 1
 205 782 l 1
 230 782 l 1
 230 715 l 1
 224 581 l 1
 212 581 l 1
 205 715 l 1
EndSplineSet
Validated: 1
Substitution2: "'smcp' Lowercase to Small Capitals lookup 16-1" lcaron.smcp
EndChar

StartChar: sacute
Encoding: 309 347 223
Width: 504
VWidth: 0
Flags: W
HStem: -5 24<131.252 388.674> 5 14<76 203.283> 252 24<107.027 375.306> 513 14<290.755 423> 513 23<126.984 379.679> 601 133
VStem: 54 24<305.114 469.229> 253 147 426 24<58.1934 206.019>
DStem2: 253 601 267 601 0.707107 0.707107<9.8995 179.605>
LayerCount: 2
Back
SplineSet
222 601 m 29
 329 734 l 29
 424 734 l 29
 291 601 l 29
 222 601 l 29
46 358 m 10xa6
 46 404 l 18
 46 486 81 536 184 536 c 3xb6
 236 536 393 525 445 520 c 9
 445 463 l 17x2e
 184 463 l 2
 119.999 463 120 438 120 404 c 10
 120 358 l 18
 120 303 147 301 184 301 c 2
 342 301 l 2
 429 301 472 247 472 172 c 1
 472 123 l 2
 472 14 406 -5 342 -5 c 3xb6
 293 -5 106 10 68 14 c 9
 68 69 l 17x66
 342 69 l 26
 342 69 398 63 398 123 c 2
 398 172 l 2
 398 207 386 227 342 227 c 10
 184 227 l 2
 90 227 46 255 46 358 c 10xa6
EndSplineSet
Fore
Refer: 120 180 N 1 0 0 1 226 70 2
Refer: 21 115 N 1 0 0 1 0 0 3
Validated: 1
Substitution2: "'smcp' Lowercase to Small Capitals lookup 16-1" sacute.smcp
EndChar

StartChar: tcaron
Encoding: 312 357 226
Width: 337
VWidth: 0
Flags: W
HStem: 1 13<256.454 301> 508 24<135 310> 508 16<27 100.5>
VStem: 111 24<92.0995 508> 119 16<550.5 680> 217 25<597 798>
LayerCount: 2
Back
SplineSet
20 458 m 1
 20 514 l 1xb4
 119 532 l 1xd4
 137 680 l 1
 193 680 l 1
 193 532 l 1xcc
 348 532 l 1
 348 458 l 1
 193 458 l 1
 193 190 l 2
 193 103 216 83 250 75 c 2
 250 75 332 54 339 54 c 1
 339 1 l 1
 251 1 l 2
 174 1 119 49 119 190 c 2xd4
 119 458 l 1
 20 458 l 1
256 800 m 1
 331 800 l 5
 331 733 l 5
 320 599 l 5
 267 599 l 1
 257 733 l 1
 256 800 l 1
EndSplineSet
Fore
SplineSet
27 508 m 1xb4
 27 524 l 1xb4
 111 532 l 1xd4
 119 680 l 1
 135 680 l 1
 135 532 l 1xcc
 310 532 l 1
 310 508 l 1
 135 508 l 1xd4
 135 190 l 2
 135 34 188 31 227 25 c 2
 227 25 294 14 301 14 c 1
 301 1 l 1
 228 1 l 2
 152 1 111 49 111 190 c 2
 111 508 l 1
 27 508 l 1xb4
217 731 m 1
 217 798 l 1
 242 798 l 1
 242 731 l 1
 236 597 l 1
 224 597 l 1
 217 731 l 1
EndSplineSet
Validated: 1
AlternateSubs2: "'salt' Access All Alternates in Latin lookup 4-1" tcaron.salt
Substitution2: "'smcp' Lowercase to Small Capitals lookup 16-1" tcaron.smcp
EndChar

StartChar: zcaron
Encoding: 314 382 228
Width: 475
VWidth: 0
Flags: W
HStem: 1 24<86 436> 507 24<40 404> 596 130
VStem: 124 272
DStem2: 56 25 86 25 0.587573 0.809171<17.6272 594.496> 253 611 242 596 0.672106 -0.740455<-161.1 0> 253 611 264 596 0.712484 0.701689<0 169.755>
LayerCount: 2
Back
SplineSet
102 721 m 1
 174 721 l 1
 254 650 l 1
 323 721 l 1
 394 721 l 1
 290 591 l 1
 219 591 l 1
 102 721 l 1
290 591 m 1
219 591 m 1
50 457 m 17
 50 531 l 25
 446 531 l 25
 446 457 l 25
 162 75 l 17
 446 75 l 17
 447 74 446 1 446 1 c 25
 65 1 l 25
 65 75 l 25
 354 457 l 17
 50 457 l 17
EndSplineSet
Fore
Refer: 209 711 N 1 0 0 1 56 65 2
Refer: 1 122 N 1 0 0 1 0 0 3
Validated: 1
Substitution2: "'smcp' Lowercase to Small Capitals lookup 16-1" zcaron.smcp
EndChar

StartChar: Racute
Encoding: 316 340 230
Width: 574
VWidth: 0
Flags: W
HStem: 0 21<81 105 499.969 535> 323 24<161.292 348 374 429.219> 333 14<105 238.969> 707 25<105 432.015> 792 133
VStem: 81 24<0 333 347 707> 281 147 508 25<435.916 621.237>
DStem2: 281 792 295 792 0.707107 0.707107<9.8995 179.605> 374 323 348 323 0.44832 -0.893873<0 349.693>
LayerCount: 2
Back
SplineSet
268 792 m 29
 375 925 l 29
 470 925 l 29
 337 792 l 29
 268 792 l 29
86 0 m 1
 86 732 l 1
 378 732 l 2
 473 732 547 678 547 512 c 0
 547 322 449 306 421 302 c 1
 575 0 l 1
 494 0 l 1
 340 299 l 1
 160 313 l 1
 160 0 l 1
 86 0 l 1
161 379 m 1
 378 379 l 2
 424 379 472 379 472 512 c 0
 472 643 422 657 378 657 c 2
 161 657 l 1
 161 379 l 1
EndSplineSet
Fore
Refer: 120 180 N 1 0 0 1 254 261 2
Refer: 46 82 N 1 0 0 1 0 0 3
Validated: 1
Substitution2: "'c2sc' Capitals to Small Capitals in Latin lookup 17 subtable" racute.smcp
EndChar

StartChar: Abreve
Encoding: 317 258 231
Width: 659
VWidth: 0
Flags: W
HStem: 0 21<61 94.4308 597.806 631> 253 24<190 505> 712 20<327.514 376.158> 797 14<322.991 395.254>
VStem: 245 14<875.795 911> 461 14<875.18 911>
DStem2: 61 0 87 0 0.350563 0.936539<9.11463 279.012 304.644 765.084> 369 732 352 708 0.336988 -0.941509<16.8674 474.217 499.846 768.714>
LayerCount: 2
Back
SplineSet
211 906 m 1
 258 906 l 1
 258 867 292 839 325 839 c 0
 363 839 394 864 394 906 c 1
 441 906 l 1
 441 830 380 792 325 792 c 0
 270 792 211 834 211 906 c 1
20 0 m 1
 289 732 l 1
 363 732 l 1
 620 0 l 1
 542 0 l 1
 469 204 l 1
 177 204 l 1
 101 0 l 1
 20 0 l 1
204 278 m 1
 443 278 l 1
 325 619 l 1
 204 278 l 1
EndSplineSet
Fore
Refer: 207 728 N 1 0 0 1 177 267 2
Refer: 7 65 N 1 0 0 1 0 0 3
Validated: 1
Substitution2: "'c2sc' Capitals to Small Capitals in Latin lookup 17 subtable" abreve.smcp
EndChar

StartChar: Cacute
Encoding: 319 262 233
Width: 570
VWidth: 0
Flags: W
HStem: -6 24<246.642 464.168> 716 24<232.29 453.849> 800 133
VStem: 74 24<225.511 526.613> 317 147
DStem2: 317 800 331 800 0.707107 0.707107<9.8995 179.605>
LayerCount: 2
Back
SplineSet
278 800 m 29
 385 933 l 29
 480 933 l 29
 347 800 l 29
 278 800 l 29
75 368 m 0
 75 602 119 740 318 740 c 4
 370 740 492 728 562 715 c 5
 562 656 l 17
 560.667 656 410 666 318 666 c 3
 193 666 149 609 149 366 c 0
 149 202 185.965 68 319 68 c 3
 424.005 68 562 75 562 75 c 1
 562 16 l 1
 492 3 370 -6 318 -6 c 0
 133 -6 75 153 75 368 c 0
EndSplineSet
Fore
Refer: 120 180 N 1 0 0 1 290 269 2
Refer: 30 67 N 1 0 0 1 0 0 3
Validated: 1
Substitution2: "'c2sc' Capitals to Small Capitals in Latin lookup 17 subtable" cacute.smcp
EndChar

StartChar: Ccaron
Encoding: 320 268 234
Width: 570
VWidth: 0
Flags: W
HStem: -6 24<246.642 464.168> 716 24<232.29 453.849> 800 130
VStem: 74 24<225.511 526.613> 203 272
DStem2: 332 815 321 800 0.672106 -0.740455<-161.1 0> 332 815 343 800 0.712484 0.701689<0 169.755>
LayerCount: 2
Back
SplineSet
193 930 m 1
 265 930 l 1
 345 859 l 1
 414 930 l 1
 485 930 l 1
 381 800 l 1
 310 800 l 1
 193 930 l 1
381 800 m 1
310 800 m 1
75 368 m 0
 75 602 119 740 318 740 c 4
 370 740 492 728 562 715 c 5
 562 656 l 17
 560.667 656 410 666 318 666 c 3
 193 666 149 609 149 366 c 0
 149 202 185.965 68 319 68 c 3
 424.005 68 562 75 562 75 c 1
 562 16 l 1
 492 3 370 -6 318 -6 c 0
 133 -6 75 153 75 368 c 0
EndSplineSet
Fore
Refer: 209 711 S 1 0 0 1 135 269 2
Refer: 30 67 N 1 0 0 1 0 0 3
Validated: 1
Substitution2: "'c2sc' Capitals to Small Capitals in Latin lookup 17 subtable" ccaron.smcp
EndChar

StartChar: Eogonek
Encoding: 321 280 235
Width: 582
VWidth: 0
Flags: HW
HStem: -173.129 14<514.805 563> -12.129 20<444.5 531> -3 24<177.513 444.9> 7 14<330.1 531> 351 24<132 491> 708 14<323.1 531> 708 24<179.101 441.9>
VStem: 108 24<65.695 351 375 659.819>
LayerCount: 2
Back
SplineSet
469 15 m 1
 508 15 l 1
 425 -53 432 -104 511 -106 c 9
 511 -166 l 16
 396 -182 319 -49 469 15 c 1
85 123 m 2x8c
 85 602 l 2
 85 700 143.534 735.635 211 732 c 2
 508 716 l 1
 508 658 l 1
 211 658 l 2
 159.5 658 159 629 159 602 c 2
 159 402 l 1xac
 468 392 l 1
 468 333 l 1x1c
 159 323 l 1
 159 123 l 2
 160 70 192 71 221 71 c 2xac
 508 71 l 1
 508 14 l 1x4c
 221 -3 l 2
 155 -6 85 10 85 123 c 2x8c
EndSplineSet
Fore
Refer: 208 731 N 1 0 0 1 372 7.87101 2
Refer: 40 69 N 1 0 0 1 0 0 2
Substitution2: "'c2sc' Capitals to Small Capitals in Latin lookup 17 subtable" eogonek.smcp
EndChar

StartChar: Ohungarumlaut
Encoding: 326 336 240
Width: 675
VWidth: 0
Flags: W
HStem: -4 24<243.453 466.859> 713 24<240.325 465.915> 797 133
VStem: 88 24<191.922 526.072> 279.5 286 600 24<198.788 533.952>
DStem2: 279.5 797 293.5 797 0.707107 0.707107<9.8995 179.605> 418.5 797 432.5 797 0.707107 0.707107<9.8995 179.605>
LayerCount: 2
Back
SplineSet
391 797 m 25
 498 930 l 25
 593 930 l 25
 460 797 l 25
 391 797 l 25
256 797 m 25
 363 930 l 25
 458 930 l 25
 325 797 l 25
 256 797 l 25
75 361 m 3
 75 704 189.926 737 358 737 c 3
 531.201 737 641 704 641 361 c 3
 641 38 538.295 -4 358 -4 c 3
 177.578 -4 75 28 75 361 c 3
149 361 m 3
 149 103.714 200 70 358 70 c 3
 514 70 567 112 567 361 c 3
 567 660 494 663 358 663 c 3
 224.873 663 149 660 149 361 c 3
EndSplineSet
Fore
Refer: 210 733 N 1 0 0 1 252.5 266 2
Refer: 32 79 N 1 0 0 1 0 0 3
Validated: 1
Substitution2: "'c2sc' Capitals to Small Capitals in Latin lookup 17 subtable" ohungarumlaut.smcp
EndChar

StartChar: Uring
Encoding: 328 366 242
Width: 683
VWidth: 0
Flags: W
HStem: -5 24<244.692 468.844> 712 20<108 132 591 615> 797 15<328.031 396.69> 987 15<328.031 396.69>
VStem: 108 24<178.16 732> 260.5 14<865.592 932.54> 448.5 14<865.592 932.54> 591 24<180.281 732>
LayerCount: 2
Back
SplineSet
280 894 m 31
 280 864 305 840 335 840 c 31
 365 840 389 864 389 894 c 31
 389 924 365 949 335 949 c 31
 305 949 280 924 280 894 c 31
233 894 m 4
 233 951 279 997 335 997 c 4
 391 997 436 951 436 894 c 4
 436 837 391 792 335 792 c 4
 279 792 233 837 233 894 c 4
80 320 m 2
 80 732 l 1
 154 732 l 1
 154 320 l 2
 154 62.7139 234 69 351 69 c 3
 450.011 69 542 71 542 320 c 2
 542 732 l 1
 617 732 l 1
 617 320 l 2
 617 -3 471.604 -5 351 -5 c 3
 214.908 -5 80 -13 80 320 c 2
EndSplineSet
Fore
Refer: 296 730 N 1 0 0 1 192.5 267 2
Refer: 47 85 N 1 0 0 1 0 0 3
Validated: 1
Substitution2: "'c2sc' Capitals to Small Capitals in Latin lookup 17 subtable" uring.smcp
EndChar

StartChar: Uhungarumlaut
Encoding: 329 368 243
Width: 683
VWidth: 0
Flags: W
HStem: -5 24<244.692 468.844> 712 20<108 132 591 615> 797 133
VStem: 108 24<178.16 732> 285 286 591 24<180.281 732>
DStem2: 285 797 299 797 0.707107 0.707107<9.8995 179.605> 424 797 438 797 0.707107 0.707107<9.8995 179.605>
LayerCount: 2
Back
SplineSet
382 792 m 25
 489 925 l 25
 584 925 l 25
 451 792 l 25
 382 792 l 25
247 792 m 25
 354 925 l 25
 449 925 l 25
 316 792 l 25
 247 792 l 25
80 320 m 2
 80 732 l 1
 154 732 l 1
 154 320 l 2
 154 62.7139 234 69 351 69 c 3
 450.011 69 542 71 542 320 c 2
 542 732 l 1
 617 732 l 1
 617 320 l 2
 617 -3 471.604 -5 351 -5 c 3
 214.908 -5 80 -13 80 320 c 2
EndSplineSet
Fore
Refer: 210 733 N 1 0 0 1 258 266 2
Refer: 47 85 N 1 0 0 1 0 0 3
Validated: 1
Substitution2: "'c2sc' Capitals to Small Capitals in Latin lookup 17 subtable" uhungarumlaut.smcp
EndChar

StartChar: Tcommaaccent
Encoding: 330 354 244
Width: 604
VWidth: 0
Flags: W
HStem: -181 7<180 212> 0 21<291 315> 708 24<47 291 315 565>
VStem: 291 24<0 708> 294 17<-120.854 -45>
LayerCount: 2
Back
SplineSet
152 -148 m 25
 205 -133 l 17
 233 -121 237 -87 237 -49 c 1
 304 -49 l 17
 304 -151 283 -185 203 -185 c 2
 152 -185 l 9
 152 -148 l 25
20 658 m 1
 20 732 l 1
 528 732 l 1
 528 658 l 1
 308 658 l 1
 308 0 l 1
 234 0 l 1
 234 658 l 1
 20 658 l 1
EndSplineSet
Fore
Refer: 121 184 N 1 0 0 1 112 -8 2
Refer: 44 84 N 1 0 0 1 0 0 3
Validated: 1
Substitution2: "'c2sc' Capitals to Small Capitals in Latin lookup 17 subtable" tcommaaccent.smcp
EndChar

StartChar: cacute
Encoding: 334 263 248
Width: 501
VWidth: 0
Flags: W
HStem: -5 24<176.297 378.768> 512 24<174.59 363.559> 596 133
VStem: 68 24<138.284 395.204> 265 147
DStem2: 265 596 279 596 0.707107 0.707107<9.8995 179.605>
LayerCount: 2
Back
SplineSet
254 598 m 29
 361 731 l 29
 456 731 l 29
 323 598 l 29
 254 598 l 29
60 266 m 0
 60 498 133 536 235 536 c 7
 287 536 393 523 463 510 c 5
 463 456 l 5
 463 456 324 462 235 462 c 7
 175 462 134 451 134 262 c 3
 134 109 163 69 235 69 c 3
 327 69 470 80 470 80 c 1
 470 24 l 17
 389 1 318 -4 235 -5 c 0
 136 -5 60 33 60 266 c 0
EndSplineSet
Fore
Refer: 120 180 S 1 0 0 1 238 65 2
Refer: 5 99 N 1 0 0 1 0 0 3
Validated: 1
Substitution2: "'smcp' Lowercase to Small Capitals lookup 16-1" cacute.smcp
EndChar

StartChar: dcaron
Encoding: 338 271 252
Width: 552
VWidth: 0
Flags: W
HStem: -6 24<195.825 327.174> 515 24<188.784 350.371> 765 20G<450 471 535 560>
VStem: 68 24<156.145 382.798> 448 23<67.9329 487.491 499 785> 458 13<0 41.3> 535 25<581 782>
LayerCount: 2
Back
SplineSet
135 263 m 0
 135 133 171 68 236 68 c 3
 315 68 378 92 432 114 c 1
 432 439 l 1
 363 457 313 465 236 465 c 3
 172 465 135 426 135 263 c 0
61 263 m 0
 61 399 85 539 236 539 c 3
 281 539 368 525 432 499 c 1
 432 785 l 1
 505 785 l 1
 505 0 l 1
 452 0 l 1
 432 59 l 17
 406 40 304 -6 236 -6 c 3
 91 -6 61 141 61 263 c 0
576 780 m 1
 651 780 l 1
 651 713 l 1
 640 579 l 1
 587 579 l 1
 577 713 l 1
 576 780 l 1
EndSplineSet
Fore
SplineSet
68 263 m 0xfa
 68 399 101 539 252 539 c 3
 297 539 386 525 450 499 c 1
 450 785 l 1
 471 785 l 1xfa
 471 0 l 1
 458 0 l 1xf6
 448 59 l 17
 422 35 320 -6 252 -6 c 3
 107 -6 68 141 68 263 c 0xfa
92 263 m 0
 92 82 167 18 252 18 c 3
 331 18 395 46 448 73 c 1
 448 485 l 1
 379 503 329 515 252 515 c 3
 168 515 92 472 92 263 c 0
535 715 m 1
 535 782 l 1
 560 782 l 1
 560 715 l 1
 554 581 l 1
 542 581 l 1
 535 715 l 1
EndSplineSet
Validated: 1
AlternateSubs2: "'salt' Access All Alternates in Latin lookup 4-1" dcaron.salt
Substitution2: "'smcp' Lowercase to Small Capitals lookup 16-1" dcaron.smcp
EndChar

StartChar: Lslash
Encoding: 346 321 260
Width: 559
VWidth: 0
Flags: W
HStem: 0 24<177.525 520> 712 20G<108 132>
VStem: 108 24<68.7894 396 427 732>
DStem2: 26 381 26 360 0.915971 0.401244<0 81.1283 115.55 238.307>
LayerCount: 2
Back
SplineSet
50 320 m 1
 50 381 l 1
 133 416.771 l 1
 133 732 l 1
 207 732 l 1
 207 448.663 l 1
 347 509 l 1
 346 449 l 1
 207 388.422 l 1
 207 126 l 2
 207 72.9902 240.001 74.2246 269 74 c 2
 555 74 l 1
 555 0 l 1
 269 0 l 2
 202.934 0.516602 133 12.9998 133 126 c 2
 133 356.172 l 1
 50 320 l 1
EndSplineSet
Fore
SplineSet
26 360 m 1
 26 381 l 1
 108 417 l 1
 108 732 l 1
 132 732 l 1
 132 427 l 1
 252 479 l 1
 252 459 l 1
 132 407 l 1
 132 126 l 2
 132 34 190 24 244 24 c 2
 520 24 l 1
 520 0 l 1
 244 0 l 2
 178 0 108 13 108 126 c 2
 108 396 l 1
 26 360 l 1
EndSplineSet
Validated: 1
Substitution2: "'c2sc' Capitals to Small Capitals in Latin lookup 17 subtable" lslash.smcp
EndChar

StartChar: uni00AD
Encoding: 173 173 261
Width: 368
VWidth: 0
Flags: W
HStem: 278 24<27 341>
VStem: 27 314<278 302>
LayerCount: 2
Back
SplineSet
50 253 m 5
 50 327 l 5
 364 327 l 5
 364 253 l 5
 50 253 l 5
EndSplineSet
Fore
SplineSet
27 278 m 1
 27 302 l 5
 341 302 l 5
 341 278 l 1
 27 278 l 1
EndSplineSet
Validated: 1
Substitution2: "'case' Case-Sensitive Forms lookup 1-1" uni00AD.alt
Substitution2: "'c2sc' Capitals to Small Capitals in Latin lookup 17 subtable" uni00AD.smcp
Substitution2: "'smcp' Lowercase to Small Capitals lookup 16-1" uni00AD.smcp
EndChar

StartChar: lslash
Encoding: 347 322 262
Width: 298
VWidth: 0
Flags: W
HStem: 0 13<226.454 271> 763 20G<81 105>
VStem: 81 24<91.0995 436 469 783>
DStem2: 11 420 11 399 0.887281 0.46123<0 69.4893 106.005 245.726>
LayerCount: 2
Back
SplineSet
50 369 m 1
 50 430 l 1
 130 464.478 l 1
 130 783 l 1
 204 783 l 1
 204 496.37 l 1
 347 558 l 1
 346 498 l 1
 204 436.115 l 1
 204 189 l 2
 204 102 227 82 261 74 c 2
 261 74 343 53 350 53 c 1
 350 0 l 1
 262 0 l 2
 185 0 130 48 130 189 c 2
 130 403.865 l 1
 50 369 l 1
EndSplineSet
Fore
SplineSet
11 399 m 1
 11 420 l 1
 81 456 l 1
 81 783 l 1
 105 783 l 1
 105 469 l 1
 238 538 l 1
 237 518 l 1
 105 448 l 1
 105 189 l 2
 105 54 143 32 197 24 c 2
 197 24 264 13 271 13 c 1
 271 0 l 1
 199 0 l 2
 122 0 81 48 81 189 c 2
 81 436 l 1
 11 399 l 1
EndSplineSet
Validated: 1
Substitution2: "'smcp' Lowercase to Small Capitals lookup 16-1" lslash.smcp
EndChar

StartChar: dcroat
Encoding: 349 273 264
Width: 552
VWidth: 0
Flags: W
HStem: -6 24<198.544 328.174> 515 24<191.439 351.097> 641 14<318 450 472 555> 765 20G<450 472>
VStem: 68 24<157.587 381.973> 450 22<69.1995 487.491 499 641 655 785> 459 13<0 41.3>
LayerCount: 2
Back
SplineSet
61 263 m 0
 61 399 85 539 236 539 c 0
 281 539 368 525 432 499 c 1
 432 616 l 1
 310 616 l 1
 310 670 l 1
 432 670 l 1
 432 785 l 1
 505 785 l 1
 505 670 l 1
 577 670 l 1
 577 616 l 1
 505 616 l 1
 505 0 l 1
 452 0 l 1
 432 59 l 1
 406 40 304 -6 236 -6 c 0
 91 -6 61 141 61 263 c 0
135 263 m 0
 135 133 171 68 236 68 c 0
 315 68 378 92 432 114 c 1
 432 439 l 1
 363 457 313 465 236 465 c 0
 172 465 135 426 135 263 c 0
EndSplineSet
Fore
SplineSet
68 263 m 0xfa
 68 399 102 539 253 539 c 4
 298 539 386 525 450 499 c 1
 450 641 l 1
 318 641 l 1
 318 655 l 1
 450 655 l 1
 450 785 l 1
 472 785 l 1
 472 655 l 1
 555 655 l 1
 555 641 l 1
 472 641 l 1xfc
 472 0 l 1
 459 0 l 1
 449 59 l 1
 423 35 321 -6 253 -6 c 4
 108 -6 68 141 68 263 c 0xfa
92 263 m 0
 92 89 168 18 253 18 c 4
 332 18 396 46 449 73 c 1
 449 485 l 1
 380 503 330 515 253 515 c 4
 169 515 92 468 92 263 c 0
EndSplineSet
Validated: 1
AlternateSubs2: "'salt' Access All Alternates in Latin lookup 4-1" dcroat.salt
Substitution2: "'smcp' Lowercase to Small Capitals lookup 16-1" dcroat.smcp
EndChar

StartChar: questiondown.alt
Encoding: 350 -1 265
Width: 532
VWidth: 0
Flags: W
HStem: -6 24<161.636 440.486> 4 14<416.844 505> 416 20<164.546 321> 646 86<317.003 352>
VStem: 54 24<99.0469 343.859> 321 26<436 538 646.229 731.712>
LayerCount: 2
Back
SplineSet
272 653 m 2
 272 710 l 2
 272 725 281 733 295 733 c 2
 350 733 l 2
 364 733 374 724 374 710 c 2x3c
 374 653 l 2
 374 638 366 628 350 628 c 2
 295 628 l 2
 280 628 272 639 272 653 c 2
40 179 m 2
 40 280 l 2
 40 415 148 458 283 437 c 1xba
 283 440 285 532 283 538 c 1
 358 538 l 1
 358 376 l 1
 300 377 274 378 216 376 c 0
 167 374 113 347 113 280 c 2
 113 179 l 2
 113 101 153 68 250 68 c 2xba
 521 69 l 2
 521 14 l 1x7a
 419 1 354 -11 239 -6 c 1
 87 -6 40 81 40 179 c 2
EndSplineSet
Fore
SplineSet
54 178 m 2xbc
 54 280 l 2
 54 415 133 455 321 436 c 1
 321 538 l 1
 347 538 l 1
 347 416 l 1
 241 416 l 0
 137 416 78 381 78 280 c 2
 78 178 l 2
 78 58 129 18 254 18 c 2xbc
 505 18 l 2
 505 4 l 1x7c
 427 -5 336 -6 253 -6 c 1
 96 -9 54 60 54 178 c 2xbc
317 658 m 2
 317 720 l 2
 317 728 321 732 328 732 c 2
 340 732 l 2
 347 732 352 727 352 720 c 2
 352 658 l 2
 352 650 348 646 340 646 c 2
 328 646 l 2
 320 646 317 651 317 658 c 2
EndSplineSet
Validated: 33
EndChar

StartChar: at.alt
Encoding: 351 -1 266
Width: 867
VWidth: 0
Flags: W
HStem: -78 25<194.544 647.342> 91 24<312.576 434.266> 370 24<312.937 519.6> 588 24<184.494 519.709> 776 24<286.88 639.139> 776 14<186 248.688>
VStem: 88 24<31.7107 515.711> 233 24<166.586 315.531> 585 24<108 164 173.326 380 393.646 525.767> 593 16<100 164> 728 24<26.8783 684.594>
LayerCount: 2
Back
SplineSet
65 416 m 2
 65 452 68 580 234 580 c 10
 449 580 l 18xee80
 520 580 602 550 602 440 c 2xee80
 602 68 l 9
 546 68 l 25xed80
 532 132 l 17
 530 132 445 59 354 59 c 1
 280 57 225 108 226 176 c 10
 226 229 l 2
 226 309 272 362 355 362 c 8
 423 362 530 361 530 362 c 0
 530 362 531 438 530 438 c 2
 530 494 500 506 446 506 c 2
 234 506 l 2
 186 506 140 496 140 416 c 2
 140 68 l 2
 140 -22 194 -35 234 -35 c 10
 583 -35 l 2
 665 -35 686 0 686 68 c 2
 686 580 l 2
 686 657 644 694 583 694 c 2xee80
 179 694 l 9
 179 741 l 17xde80
 227 751 341 769 467 768 c 0
 583 767 l 2
 689 765 760 705 760 580 c 10
 760 68 l 2
 760 -30 721 -110 583 -110 c 2
 234 -110 l 2
 132 -110 66 -48 66 68 c 2
 65 416 l 2
300 182 m 2
 300 161 328 132 361 133 c 1
 420 132 480 163 530 187 c 9
 530 310 l 17
 360 294 l 2
 320 290 299 262 300 227 c 2
 300 226 300 183 300 182 c 2
EndSplineSet
Fore
SplineSet
88 448 m 6xfba0
 88 484 90 612 256 612 c 14
 456 612 l 22
 527 612 609 582 609 472 c 6xfba0
 609 100 l 13
 593 100 l 29xfb60
 586 164 l 21
 584 164 452 91 361 91 c 5
 287 89 232 140 233 208 c 14
 233 261 l 6
 233 341 279 394 362 394 c 12
 449 394 585 393 585 394 c 4
 585 394 586 469 585 470 c 6
 585 552 533 588 453 588 c 6
 256 588 l 6
 170 588 112 551 112 448 c 6
 112 100 l 6
 112 -18 188 -53 256 -53 c 14
 575 -53 l 6
 678 -53 728 -2 728 100 c 6
 728 612 l 6
 728 706 679 776 575 776 c 6xfba0
 186 776 l 13
 186 790 l 21xf7a0
 234 800 348 801 474 800 c 4
 575 800 l 6
 681 798 752 737 752 612 c 14
 752 100 l 6
 752 2 713 -78 575 -78 c 6
 256 -78 l 6
 154 -78 88 -16 88 100 c 6
 88 448 l 6xfba0
257 214 m 6
 257 154 300 115 368 115 c 5
 427 114 535 154 585 178 c 13
 585 380 l 21
 367 370 l 6
 327 368 257 357 257 259 c 6
 257 258 256 215 257 214 c 6
EndSplineSet
Validated: 33
EndChar

StartChar: questiondown
Encoding: 191 191 267
Width: 530
VWidth: 0
Flags: W
HStem: -268 24<160.636 439.486> -258 14<415.844 504> 154 20<163.546 320> 384 86<316.003 350.996>
VStem: 53 24<-162.953 81.8594> 320 26<174 276 384.229 469.712>
LayerCount: 2
Back
SplineSet
270 394 m 1xf8
 270 445 l 2
 270 459 282 470 294 471 c 1
 343 471 l 1
 357 470 367 462 367 448 c 2
 367 394 l 2
 366 380 359 370 346 369 c 1
 290 369 l 1
 277 373 271 382 270 394 c 1xf8
40 22 m 1
 38 139 146 196 281 175 c 1xf4
 281 178 283 270 281 276 c 1
 358 276 l 1
 359 114 l 1
 301 115 274 116 216 114 c 0
 167 112 131 67 127 15 c 1
 127 15 126 -65 126 -85 c 3
 126 -136 158 -197 250 -194 c 1
 300 -194 523 -193 523 -193 c 2
 520 -193 523 -249 521 -248 c 1
 419 -261 354 -273 239 -268 c 1
 70 -269 40 -164 40 -80 c 2
 40 22 l 1
EndSplineSet
Fore
SplineSet
53 18 m 2xbc
 53 153 132 193 320 174 c 1
 320 276 l 1
 346 276 l 1
 346 154 l 1
 240 154 l 0
 136 154 77 119 77 18 c 2
 77 -84 l 2
 77 -204 128 -244 253 -244 c 2xbc
 504 -244 l 2
 504 -258 l 1x7c
 426 -267 335 -268 252 -268 c 1
 95 -271 53 -202 53 -84 c 2
 53 18 l 2xbc
316 396 m 2
 316 458 l 2
 316 466 320 470 327 470 c 2
 339 470 l 2
 346 470 351 465 351 458 c 2
 351 396 l 2
 351 388 347 384 339 384 c 2
 327 384 l 2
 319 384 316 389 316 396 c 2
EndSplineSet
Validated: 33
Substitution2: "'case' Case-Sensitive Forms lookup 1-1" questiondown.alt
Substitution2: "'smcp' Lowercase to Small Capitals lookup 16-1" questiondown.smcp
EndChar

StartChar: oe
Encoding: 352 339 268
Width: 940
VWidth: 0
Flags: W
HStem: -5 24<188.856 379.59 586.138 809.109> 250 23<506 827> 512 24<191.087 375.353 589.145 784.757>
VStem: 68 24<137.276 387.516> 482 24<141.512 250 273 378.958> 862 24<303.745 435.565>
LayerCount: 2
Back
SplineSet
446 268 m 4
 446 505 514 535 678 535 c 7
 803 535 881 523.142 881 347 c 4
 881 270 840 225 744 225 c 6
 520 225 l 5
 520 100 543 69 621 69 c 7
 713 69 796 68 871 79 c 5
 871 23 l 21
 790 0 704 -5 621 -5 c 4
 486 -5 446 60 446 268 c 4
520 298 m 5
 744 298 l 6
 788 298 807 314 807 347 c 4
 807 452 786.82 461 679 461 c 7
 566 461 520 460 520 298 c 5
134 258 m 7
 134 81 191 69 294 69 c 7
 401.979 69 454 83 454 258 c 7
 454 448 411.145 462 294 462 c 7
 182 462 134 449 134 258 c 7
60 258 m 7
 60 475.146 120 536 294 536 c 7
 473.419 536 528 469 528 258 c 7
 528 61.0498 473.438 -5 294 -5 c 7
 114.706 -5 60 68 60 258 c 7
EndSplineSet
Fore
SplineSet
68 258 m 0
 68 475 127 536 286 536 c 0
 407 536 467 492 491 401 c 1
 512 516 570 535 684 535 c 0
 805 535 886 523 886 347 c 0
 886 268 836 250 750 250 c 2
 506 250 l 1
 506 48 569 19 656 19 c 0
 748 19 801 28 876 39 c 1
 876 23 l 1
 795 0 739 -6 656 -5 c 0
 560 -4 513 34 493 126 c 1
 469 31 409 -5 286 -5 c 0
 110 -5 68 68 68 258 c 0
92 258 m 0
 92 47 159 19 286 19 c 0
 414 19 482 56 482 258 c 0
 482 475 407 512 286 512 c 0
 166 512 92 490 92 258 c 0
506 273 m 1
 750 273 l 2
 806 273 862 277 862 347 c 0
 862 497 802 511 684 511 c 0
 545 511 506 481 506 273 c 1
EndSplineSet
Validated: 33
Substitution2: "'smcp' Lowercase to Small Capitals lookup 16-1" oe.smcp
EndChar

StartChar: OE
Encoding: 353 338 269
Width: 1054
VWidth: 0
Flags: W
HStem: -4 24<243.453 463.259 670.667 898.545> 7 14<812.1 992> 351 24<624 952> 708 14<805.1 992> 713 24<240.325 465.744 681.912 849.6>
VStem: 88 24<191.922 526.072> 599 25<63.2322 136 192.969 351 375 533.824 593 661.944>
LayerCount: 2
Back
SplineSet
567 123 m 2x8c
 567 602 l 2
 567 700 625.534 735.635 693 732 c 2
 990 716 l 1
 990 658 l 1
 693 658 l 2
 641.5 658 641 629 641 602 c 2
 641 402 l 1xac
 950 392 l 1
 950 333 l 1x1c
 641 323 l 1
 641 123 l 2
 642 70 674 71 703 71 c 2xac
 990 71 l 1
 990 14 l 1x4c
 703 -3 l 2
 637 -6 567 10 567 123 c 2x8c
75 361 m 3
 75 704 189.926 737 358 737 c 3
 531.201 737 641 704 641 361 c 3
 641 38 538.295 -4 358 -4 c 3
 177.578 -4 75 28 75 361 c 3
149 361 m 3
 149 103.714 200 70 358 70 c 3
 514 70 567 112 567 361 c 3
 567 660 494 663 358 663 c 3
 224.873 663 149 660 149 361 c 3
EndSplineSet
Fore
SplineSet
112 361 m 0xae
 112 63 177 20 356 20 c 0
 546 20 599 80 599 370 c 0
 599 674 523 713 356 713 c 0
 208 713 112 698 112 361 c 0xae
88 361 m 0
 88 704 184 737 356 737 c 0xae
 477 737 560 721 599 593 c 1
 599 696 656 735 725 732 c 2
 992 722 l 1
 992 708 l 1
 725 708 l 2
 663 708 623 677 623 602 c 2
 623 602 623 449 624 375 c 1
 952 370 l 1
 952 356 l 1
 624 351 l 1
 624 276 623 123 623 123 c 2
 623 31 680 21 735 21 c 2
 992 21 l 1
 992 7 l 1x76
 735 -3 l 2
 661 -6 599 15 599 136 c 1
 561 16 481 -4 356 -4 c 0
 176 -4 88 28 88 361 c 0
EndSplineSet
Validated: 33
EndChar

StartChar: guillemotright
Encoding: 187 187 271
Width: 548
VWidth: 0
Flags: W
DStem2: 68 163 86 145 0.708792 0.705417<0.0607538 272.24> 90 558 74 541 0.710548 -0.703649<0.593273 265.759> 252 163 270 145 0.708792 0.705417<0.0607538 272.24> 276 558 258 541 0.707107 -0.707107<0 264.458>
LayerCount: 2
Back
SplineSet
236 198 m 1
 396 354 l 1
 241 505 l 1
 293 557 l 1
 499 354 l 1
 288 146 l 1
 236 198 l 1
50 198 m 1
 210 354 l 1
 55 505 l 1
 107 557 l 1
 313 354 l 1
 102 146 l 1
 50 198 l 1
EndSplineSet
Fore
SplineSet
68 163 m 1
 262 354 l 1
 74 541 l 1
 90 558 l 1
 296 354 l 1
 86 145 l 1
 68 163 l 1
252 163 m 1
 446 354 l 1
 258 541 l 1
 276 558 l 1
 480 354 l 1
 270 145 l 1
 252 163 l 1
EndSplineSet
Validated: 1
EndChar

StartChar: cent
Encoding: 162 162 272
Width: 488
VWidth: 0
Flags: W
HStem: -5 24<163.21 246 264 365.973> 512 24<160.22 246 264 354.053>
VStem: 54 24<136.12 393.713> 246 18<-82 -5 536 618>
LayerCount: 2
Back
SplineSet
60 266 m 0
 60 505 135 543 251 538 c 1
 251 634 l 1
 311 634 l 1
 311 533 l 1
 361 527 419 518 463 510 c 1
 463 456 l 1
 463 456 324 464 235 464 c 0
 175 464 134 451 134 262 c 0
 134 109 163 67 235 67 c 0
 327 67 470 78 470 78 c 1
 470 22 l 1
 415 6 364 -1 311 -4 c 1
 311 -96 l 1
 251 -96 l 1
 251 -7 l 1
 137 -9 60 24 60 266 c 0
EndSplineSet
Fore
SplineSet
54 266 m 4
 54 506 131 536 246 536 c 1
 246 618 l 1
 264 618 l 1
 264 535 l 1
 314 532 378 522 427 510 c 1
 427 496 l 1
 427 496 318 512 229 512 c 0
 138 512 78 478 78 262 c 0
 78 56 143 19 229 19 c 0
 321 19 434 40 434 40 c 1
 434 24 l 1
 365 4 325 -2 264 -4 c 1
 264 -82 l 1
 246 -82 l 1
 246 -5 l 1
 131.177 -5 54 22.191 54 266 c 4
EndSplineSet
Validated: 1
EndChar

StartChar: sterling
Encoding: 163 163 273
Width: 601
VWidth: 0
Flags: W
HStem: 0 24<164 532> 0 14<68 118.4> 350 22<164 417.75> 350 14<68 131 200.25 454> 709 23<262.844 533.921> 709 14<431.759 534>
VStem: 140 24<24 350 372 605.415>
LayerCount: 2
Back
SplineSet
50 0 m 1
 50 59 l 1x42
 122 74 l 1x82
 122 330 l 1
 50 330 l 1
 50 375 l 1x92
 122 392 l 1
 122 505 l 2
 122 719 219 732 350 732 c 3x2a
 407 732 546 716 546 716 c 1
 546 659 l 1x06
 352 659 l 2
 230 659 196 656 196 505 c 2
 196 392 l 1x2a
 467 375 l 1
 467 330 l 1x12
 196 330 l 1
 196 74 l 1
 545 74 l 1
 545 0 l 1xa2
 50 0 l 1
EndSplineSet
Fore
SplineSet
68 0 m 1x42
 68 14 l 1x42
 140 24 l 1
 140 350 l 1
 68 350 l 1
 68 364 l 1x92
 140 372 l 1
 140 505 l 2
 140 719 237 732 368 732 c 3x2a
 425 732 534 723 534 723 c 1
 534 709 l 1x06
 370 709 l 2
 236 709 164 689 164 505 c 2
 164 372 l 1x2a
 454 364 l 1
 454 350 l 1x12
 164 350 l 1
 164 24 l 1
 532 24 l 1
 532 0 l 1xa2
 68 0 l 1x42
EndSplineSet
Validated: 1
Substitution2: "'smcp' Lowercase to Small Capitals lookup 16-1" sterling.smcp
EndChar

StartChar: yen
Encoding: 165 165 274
Width: 584
VWidth: 0
Flags: W
HStem: 0 21G<270 294> 198 14<74 270 294 501> 307 14<74 269 295 501> 712 20G<27 67.7098 514.306 557>
VStem: 270 24<0 198 212 307>
DStem2: 56 732 27 732 0.507387 -0.861719<0 447.293> 282 346 295 321 0.537539 0.843239<0 457.187>
LayerCount: 2
Back
SplineSet
20 732 m 5
 101 732 l 5
 290 394 l 5
 496 732 l 5
 580 732 l 5
 328 321 l 5
 509 321 l 5
 509 262 l 5
 327 262 l 5
 327 212 l 5
 509 212 l 5
 509 153 l 5
 327 153 l 5
 327 0 l 5
 253 0 l 5
 253 153 l 5
 82 153 l 5
 82 212 l 5
 253 212 l 5
 253 262 l 5
 82 262 l 5
 82 321 l 5
 252 321 l 5
 20 732 l 5
EndSplineSet
Fore
SplineSet
27 732 m 1
 56 732 l 1
 282 346 l 5
 527 732 l 1
 557 732 l 1
 295 321 l 1
 501 321 l 1
 501 307 l 1
 294 307 l 1
 294 212 l 1
 501 212 l 1
 501 198 l 1
 294 198 l 1
 294 0 l 1
 270 0 l 1
 270 198 l 1
 74 198 l 1
 74 212 l 1
 270 212 l 1
 270 307 l 1
 74 307 l 1
 74 321 l 1
 269 321 l 1
 27 732 l 1
EndSplineSet
Validated: 1
Substitution2: "'smcp' Lowercase to Small Capitals lookup 16-1" yen.smcp
EndChar

StartChar: section
Encoding: 167 167 275
Width: 559
VWidth: 0
Flags: W
HStem: -8 24<157.016 415.976> 2 14<111 233.908> 255 24<117.901 443.75> 495 23<123.25 434.121> 760 24<143.08 392.748> 760 14<320.717 448>
VStem: 74 24<297.571 471.393 544.697 714.458> 461 24<58.6345 235.166 296 470.215>
LayerCount: 2
Back
SplineSet
149 353 m 2
 149 308 168 304 205 304 c 2
 384 304 l 2
 443 304 442 326 442 354 c 2
 443 355 442 416 442 416 c 2
 442 451 440 470 384 470 c 2
 205 470 l 2x33
 162 470 149 463 149 414 c 2
 149 353 l 2
75 590 m 2
 75 660 l 2
 75 758 141 784 205 784 c 3xbb
 254 784 441 769 479 765 c 1
 479 710 l 1x37
 205 710 l 2
 171 710 150 700 149 660 c 2
 149 590 l 2
 149 552 179 543 205 543 c 2
 384 543 l 2
 497 543 518 490 517 416 c 2
 517 354 l 2
 517 326 515 271 475 265 c 1
 513 259 516 216 516 183 c 2
 516 110 l 2
 516 1 442 -8 378 -8 c 3xbb
 329 -8 150 7 112 11 c 1
 112 66 l 1x73
 378 66 l 2xb3
 412 66 441 70 442 110 c 2
 442 183 l 2
 442 225 424 230 384 230 c 2
 205 230 l 2
 125 230 76 251 76 353 c 2
 76 415 l 2
 76 465 85 497 120 508 c 1
 86 518 75 555 75 590 c 2
EndSplineSet
Fore
SplineSet
74 353 m 2xb3
 74 415 l 2
 74 462 85 500 129 508 c 1
 87 516 74 555 74 590 c 2
 74 660 l 2
 74 758 140 784 204 784 c 3xbb
 253 784 410 778 448 774 c 1
 448 760 l 1x37
 204 760 l 2
 122 760 98 717 98 660 c 2
 98 590 l 2
 98 527 134 518 204 518 c 2
 353 518 l 2
 466 518 487 490 486 416 c 2
 486 354 l 2
 486 314 482 269 434 265 c 1
 483 255 485 216 485 183 c 2
 485 110 l 2
 485 1 411 -8 347 -8 c 3xbb
 298 -8 149 -2 111 2 c 1
 111 16 l 1x73
 347 16 l 2
 419 16 461 36 461 110 c 2
 461 183 l 2
 461 241 451 255 353 255 c 2
 204 255 l 2
 124 255 74 251 74 353 c 2xb3
98 353 m 2
 98 277 125 279 204 279 c 2
 353 279 l 2
 451 279 461 284 461 354 c 2
 462 355 461 416 461 416 c 2
 461 481 443 495 353 495 c 6
 204 495 l 2
 130 495 98 495 98 414 c 2
 98 353 l 2
EndSplineSet
Validated: 33
EndChar

StartChar: g.salt
Encoding: 355 -1 276
Width: 563
VWidth: 0
Flags: W
HStem: -10 24<187.394 358.099> 513 24<193.36 441.141>
VStem: 68 24<140.893 380.546> 458 24<-166.15 29 46.0937 513>
DStem2: 96 -234 96 -248 0.994505 -0.104685<1.46559 246.953>
LayerCount: 2
Back
SplineSet
144 268 m 7
 144 181 140 64 254 64 c 7
 328 64 358 68 441 89 c 5
 441 463 l 6
 254 463 l 6
 147 463 144 331 144 268 c 7
70 268 m 7
 70 436 129 537 254 537 c 7
 360 537 468 518 515 514 c 5
 515 -104 l 6
 515 -228 426 -279 356 -272 c 6
 98 -248 l 5
 98 -199 l 5
 356 -199 l 6
 409 -199 441 -168 441 -104 c 6
 441 29 l 5
 377 3 299 -10 254 -10 c 7
 101 -10 70 110 70 268 c 7
EndSplineSet
Fore
SplineSet
68 268 m 3
 68 436 127 537 252 537 c 3
 358 537 435 528 482 524 c 1
 482 -104 l 2
 482 -228 392 -279 324 -272 c 2
 96 -248 l 1
 96 -234 l 1
 324 -249 l 2
 379 -253 458 -212 458 -104 c 2
 458 29 l 1
 394 3 297 -10 252 -10 c 3
 99 -10 68 110 68 268 c 3
92 268 m 3
 92 92 136 14 252 14 c 3
 326 14 375 28 458 49 c 1
 458 513 l 2
 252 513 l 2
 139 513 92 417 92 268 c 3
EndSplineSet
Validated: 33
EndChar

StartChar: guillemotleft
Encoding: 171 171 277
Width: 548
VWidth: 0
Flags: W
DStem2: 102 354 68 354 0.708792 -0.705417<0 272.18> 68 354 102 354 0.707107 0.707107<24.0416 288.5> 286 354 252 354 0.708792 -0.705417<0 272.18> 252 354 286 354 0.710548 0.703649<24.1586 289.324>
LayerCount: 2
Back
SplineSet
50 354 m 1
 256 557 l 1
 308 505 l 1
 153 354 l 1
 313 198 l 1
 261 146 l 1
 50 354 l 1
236 354 m 1
 442 557 l 1
 494 505 l 1
 339 354 l 1
 499 198 l 1
 447 146 l 1
 236 354 l 1
EndSplineSet
Fore
SplineSet
68 354 m 1
 272 558 l 1
 290 541 l 1
 102 354 l 1
 296 163 l 1
 278 145 l 1
 68 354 l 1
252 354 m 1
 458 558 l 1
 474 541 l 1
 286 354 l 1
 480 163 l 1
 462 145 l 1
 252 354 l 1
EndSplineSet
Validated: 1
EndChar

StartChar: paragraph
Encoding: 182 182 278
Width: 572
VWidth: 0
Flags: W
HStem: 0 21G<452 476> 355 24<153.448 263.664> 708 24<147.499 264 288 452 476 545>
VStem: 54 24<446.829 640.197> 264 24<-270 365 379 708> 452 24<0 706>
LayerCount: 2
Back
SplineSet
124 501 m 2
 124 439 178 429 206 429 c 10
 260 429 l 25
 260 658 l 25
 206 658 l 2
 141 658 124 618 124 590 c 10
 124 501 l 2
50 499 m 2
 50 592 l 2
 50 687 129 732 206 732 c 2
 571 732 l 1
 571 656 l 1
 502 656 l 1
 502 0 l 1
 428 0 l 1
 428 658 l 1
 334 658 l 1
 334 -270 l 1
 260 -270 l 1
 260 372 l 1
 254 370 235 354 206 355 c 3
 103 355 50 421 50 499 c 2
EndSplineSet
Fore
SplineSet
54 499 m 2
 54 592 l 2
 54 687 133 732 210 732 c 1
 545 732 l 1
 545 706 l 1
 476 706 l 1
 476 0 l 1
 452 0 l 1
 452 708 l 1
 288 708 l 1
 288 -270 l 1
 264 -270 l 1
 264 365 l 1
 257 360 239 354 210 355 c 0
 107 355 54 421 54 499 c 2
78 501 m 2
 78 392 182 379 210 379 c 10
 264 379 l 25
 264 708 l 25
 210 708 l 2
 125 708 78 656 78 590 c 10
 78 501 l 2
EndSplineSet
Validated: 33
EndChar

StartChar: macron
Encoding: 175 175 279
Width: 387
VWidth: 0
Flags: W
HStem: 531 15<68 320>
VStem: 68 252<531 546>
LayerCount: 2
Back
SplineSet
50 531 m 1
 50 594 l 5
 342 594 l 5
 342 531 l 1
 50 531 l 1
EndSplineSet
Fore
SplineSet
68 531 m 1
 68 546 l 1
 320 546 l 5
 320 531 l 5
 68 531 l 1
EndSplineSet
Validated: 1
Substitution2: "'smcp' Lowercase to Small Capitals lookup 16-1" macron.smcp
EndChar

